Scada-SemiBold.ufo
<glyph name="exclam" format="2">
  <advance width="290"/>
  <unicode hex="0021"/>
  <outline>
    <contour>
      <point x="198.333" y="193.333" type="line"/>
      <point x="218.333" y="700" type="line"/>
      <point x="71.6667" y="700" type="line"/>
      <point x="91.6667" y="193.333" type="line"/>
    </contour>
    <contour>
      <point x="145" y="-10" type="curve" smooth="yes"/>
      <point x="183.333" y="-10"/>
      <point x="215" y="21.6667"/>
      <point x="215" y="60" type="curve" smooth="yes"/>
      <point x="215" y="98.3333"/>
      <point x="183.333" y="130"/>
      <point x="145" y="130" type="curve" smooth="yes"/>
      <point x="106.667" y="130"/>
      <point x="75" y="98.3333"/>
      <point x="75" y="60" type="curve" smooth="yes"/>
      <point x="75" y="21.6667"/>
      <point x="106.667" y="-10"/>
    </contour>
  </outline>
</glyph>
<glyph name="quotedbl" format="2">
  <advance width="367"/>
  <unicode hex="0022"/>
  <outline>
    <contour>
      <point x="306.667" y="456.667" type="line"/>
      <point x="330" y="700" type="line"/>
      <point x="205" y="700" type="line"/>
      <point x="228.333" y="456.667" type="line"/>
    </contour>
    <contour>
      <point x="138.333" y="456.667" type="line"/>
      <point x="161.667" y="700" type="line"/>
      <point x="36.6667" y="700" type="line"/>
      <point x="60" y="456.667" type="line"/>
    </contour>
  </outline>
</glyph>
<glyph name="numbersign" format="2">
  <advance width="665"/>
  <unicode hex="0023"/>
  <outline>
    <contour>
      <point x="188" y="0" type="line"/>
      <point x="231.667" y="173.333" type="line"/>
      <point x="345" y="173.333" type="line"/>
      <point x="301.333" y="0" type="line"/>
      <point x="421.333" y="0" type="line"/>
      <point x="465" y="173.333" type="line"/>
      <point x="590" y="173.333" type="line"/>
      <point x="590" y="256.667" type="line"/>
      <point x="487" y="256.667" type="line"/>
      <point x="532.333" y="443.333" type="line"/>
      <point x="648" y="443.333" type="line"/>
      <point x="648" y="526.667" type="line"/>
      <point x="551" y="526.667" type="line"/>
      <point x="594.667" y="700" type="line"/>
      <point x="474.667" y="700" type="line"/>
      <point x="431" y="526.667" type="line"/>
      <point x="317.667" y="526.667" type="line"/>
      <point x="361.333" y="700" type="line"/>
      <point x="241.333" y="700" type="line"/>
      <point x="197.667" y="526.667" type="line"/>
      <point x="74.6667" y="526.667" type="line"/>
      <point x="74.6667" y="443.333" type="line"/>
      <point x="179" y="443.333" type="line"/>
      <point x="133.667" y="256.667" type="line"/>
      <point x="16.6667" y="256.667" type="line"/>
      <point x="16.6667" y="173.333" type="line"/>
      <point x="111.667" y="173.333" type="line"/>
      <point x="68" y="0" type="line"/>
    </contour>
    <contour>
      <point x="299" y="443.333" type="line"/>
      <point x="412.333" y="443.333" type="line"/>
      <point x="367" y="256.667" type="line"/>
      <point x="253.667" y="256.667" type="line"/>
    </contour>
  </outline>
</glyph>
<glyph name="ampersand" format="2">
  <advance width="635"/>
  <unicode hex="0026"/>
  <outline>
    <contour>
      <point x="246.667" y="-10" type="curve" smooth="yes"/>
      <point x="316" y="-10"/>
      <point x="386" y="12.3333"/>
      <point x="440" y="53.3333" type="curve"/>
      <point x="483.333" y="0" type="line"/>
      <point x="630" y="0" type="line"/>
      <point x="521.667" y="131.667" type="line"/>
      <point x="556.667" y="180.333"/>
      <point x="580" y="238"/>
      <point x="580" y="320" type="curve"/>
      <point x="463.333" y="320" type="line"/>
      <point x="463.333" y="281.667"/>
      <point x="459.667" y="246.333"/>
      <point x="453.333" y="213.333" type="curve"/>
      <point x="319.333" y="373.333" type="line"/>
      <point x="383.667" y="412.667"/>
      <point x="455" y="479"/>
      <point x="455" y="560" type="curve" smooth="yes"/>
      <point x="455" y="641.667"/>
      <point x="386.333" y="710"/>
      <point x="271.667" y="710" type="curve" smooth="yes"/>
      <point x="151.333" y="710"/>
      <point x="83.3333" y="642"/>
      <point x="83.3333" y="550" type="curve" smooth="yes"/>
      <point x="83.3333" y="485.333"/>
      <point x="123.667" y="421.333"/>
      <point x="171.667" y="380" type="curve"/>
      <point x="96" y="337.667"/>
      <point x="23.3333" y="271"/>
      <point x="23.3333" y="180" type="curve" smooth="yes"/>
      <point x="23.3333" y="73.3333"/>
      <point x="106.333" y="-10"/>
    </contour>
    <contour>
      <point x="266.667" y="73.3333" type="curve" smooth="yes"/>
      <point x="196.667" y="73.3333"/>
      <point x="150" y="119"/>
      <point x="150" y="180" type="curve" smooth="yes"/>
      <point x="150" y="231"/>
      <point x="184" y="273.667"/>
      <point x="228.333" y="305" type="curve"/>
      <point x="388.333" y="113.333" type="line"/>
      <point x="357.333" y="84.3333"/>
      <point x="310.667" y="73.3333"/>
    </contour>
    <contour>
      <point x="260" y="445" type="curve"/>
      <point x="237" y="472.333"/>
      <point x="210" y="513.667"/>
      <point x="210" y="550" type="curve" smooth="yes"/>
      <point x="210" y="605.667"/>
      <point x="236" y="631.667"/>
      <point x="271.667" y="631.667" type="curve" smooth="yes"/>
      <point x="301.667" y="631.667"/>
      <point x="328.333" y="605.333"/>
      <point x="328.333" y="560" type="curve" smooth="yes"/>
      <point x="328.333" y="516"/>
      <point x="293.667" y="470.667"/>
    </contour>
  </outline>
</glyph>
<glyph name="hyphen" format="2">
  <advance width="447"/>
  <unicode hex="002D"/>
  <outline>
    <contour>
      <point x="416.667" y="283.333" type="line"/>
      <point x="416.667" y="376.667" type="line"/>
      <point x="30" y="376.667" type="line"/>
      <point x="30" y="283.333" type="line"/>
    </contour>
  </outline>
</glyph>
<glyph name="zero" format="2">
  <advance width="600"/>
  <unicode hex="0030"/>
  <outline>
    <contour>
      <point x="300" y="-10" type="curve" smooth="yes"/>
      <point x="444.667" y="-10"/>
      <point x="548.333" y="93.3333"/>
      <point x="548.333" y="350" type="curve" smooth="yes"/>
      <point x="548.333" y="606.667"/>
      <point x="444.667" y="710"/>
      <point x="300" y="710" type="curve" smooth="yes"/>
      <point x="154.667" y="710"/>
      <point x="51.6667" y="606.667"/>
      <point x="51.6667" y="350" type="curve" smooth="yes"/>
      <point x="51.6667" y="93.3333"/>
      <point x="154.667" y="-10"/>
    </contour>
    <contour>
      <point x="300" y="73.3333" type="curve" smooth="yes"/>
      <point x="235" y="73.3333"/>
      <point x="178.333" y="130.333"/>
      <point x="178.333" y="350" type="curve" smooth="yes"/>
      <point x="178.333" y="569.667"/>
      <point x="235" y="626.667"/>
      <point x="300" y="626.667" type="curve" smooth="yes"/>
      <point x="365" y="626.667"/>
      <point x="421.667" y="569.667"/>
      <point x="421.667" y="350" type="curve" smooth="yes"/>
      <point x="421.667" y="130.333"/>
      <point x="365" y="73.3333"/>
    </contour>
  </outline>
</glyph>
<glyph name="one" format="2">
  <advance width="403"/>
  <unicode hex="0031"/>
  <outline>
    <contour>
      <point x="383.333" y="0" type="line"/>
      <point x="383.333" y="83.3333" type="line"/>
      <point x="280" y="83.3333" type="line"/>
      <point x="280" y="700" type="line"/>
      <point x="163.333" y="700" type="line"/>
      <point x="16.6667" y="580" type="line"/>
      <point x="66.6667" y="511.667" type="line"/>
      <point x="153.333" y="570" type="line"/>
      <point x="153.333" y="83.3333" type="line"/>
      <point x="50" y="83.3333" type="line"/>
      <point x="50" y="0" type="line"/>
    </contour>
  </outline>
</glyph>
<glyph name="two" format="2">
  <advance width="510"/>
  <unicode hex="0032"/>
  <outline>
    <contour>
      <point x="471.667" y="0" type="line"/>
      <point x="471.667" y="83.3333" type="line"/>
      <point x="150" y="83.3333" type="line"/>
      <point x="150" y="223.333"/>
      <point x="471.667" y="307.333"/>
      <point x="471.667" y="513.333" type="curve" smooth="yes"/>
      <point x="471.667" y="630"/>
      <point x="391.333" y="710"/>
      <point x="233.333" y="710" type="curve" smooth="yes"/>
      <point x="166.333" y="710"/>
      <point x="116.667" y="697"/>
      <point x="82.6667" y="682" type="curve"/>
      <point x="63" y="674"/>
      <point x="46" y="665"/>
      <point x="31.6667" y="655" type="curve"/>
      <point x="73.3333" y="581.667" type="line"/>
      <point x="83.3333" y="581.667" type="line"/>
      <point x="92.6667" y="589.667"/>
      <point x="104.667" y="596.667"/>
      <point x="118" y="603.667" type="curve"/>
      <point x="141.333" y="614.667"/>
      <point x="176.333" y="626.667"/>
      <point x="223.333" y="626.667" type="curve" smooth="yes"/>
      <point x="302.333" y="626.667"/>
      <point x="345" y="583.333"/>
      <point x="345" y="523.333" type="curve" smooth="yes"/>
      <point x="345" y="360"/>
      <point x="23.3333" y="289.667"/>
      <point x="23.3333" y="70" type="curve" smooth="yes"/>
      <point x="23.3333" y="0" type="line"/>
    </contour>
  </outline>
</glyph>
<glyph name="three" format="2">
  <advance width="513"/>
  <unicode hex="0033"/>
  <outline>
    <contour>
      <point x="210" y="-10" type="curve" smooth="yes"/>
      <point x="393" y="-10"/>
      <point x="476.667" y="73"/>
      <point x="476.667" y="200" type="curve" smooth="yes"/>
      <point x="476.667" y="325.667"/>
      <point x="392.667" y="416.667"/>
      <point x="228.333" y="416.667" type="curve"/>
      <point x="450" y="616.667" type="line"/>
      <point x="450" y="700" type="line"/>
      <point x="23.3333" y="700" type="line"/>
      <point x="23.3333" y="616.667" type="line"/>
      <point x="303.333" y="616.667" type="line"/>
      <point x="88.3333" y="416.667" type="line"/>
      <point x="88.3333" y="333.333" type="line"/>
      <point x="200" y="333.333" type="line" smooth="yes"/>
      <point x="303.667" y="333.333"/>
      <point x="350" y="287"/>
      <point x="350" y="200" type="curve" smooth="yes"/>
      <point x="350" y="119"/>
      <point x="303.667" y="73.3333"/>
      <point x="200" y="73.3333" type="curve" smooth="yes"/>
      <point x="153" y="73.3333"/>
      <point x="118" y="84.3333"/>
      <point x="94.6667" y="95.3333" type="curve"/>
      <point x="81.3333" y="102.333"/>
      <point x="69.3333" y="109.333"/>
      <point x="60" y="118.333" type="curve"/>
      <point x="50" y="118.333" type="line"/>
      <point x="8.33333" y="45" type="line"/>
      <point x="22.6667" y="34"/>
      <point x="39.6667" y="25"/>
      <point x="59.3333" y="17" type="curve"/>
      <point x="93.3333" y="2"/>
      <point x="143" y="-10"/>
    </contour>
  </outline>
</glyph>
<glyph name="four" format="2">
  <advance width="553"/>
  <unicode hex="0034"/>
  <outline>
    <contour>
      <point x="460" y="0" type="line"/>
      <point x="460" y="163.333" type="line"/>
      <point x="533.333" y="163.333" type="line"/>
      <point x="533.333" y="246.667" type="line"/>
      <point x="460" y="246.667" type="line"/>
      <point x="460" y="700" type="line"/>
      <point x="340" y="700" type="line"/>
      <point x="10" y="246.667" type="line"/>
      <point x="10" y="163.333" type="line"/>
      <point x="333.333" y="163.333" type="line"/>
      <point x="333.333" y="0" type="line"/>
    </contour>
    <contour>
      <point x="305" y="473.333" type="line"/>
      <point x="315" y="486"/>
      <point x="322.667" y="501.667"/>
      <point x="328.667" y="514.667" type="curve"/>
      <point x="332.333" y="522"/>
      <point x="335" y="529.667"/>
      <point x="338.667" y="536.667" type="curve"/>
      <point x="342.667" y="536.667" type="line"/>
      <point x="341.119" y="531.274"/>
      <point x="338.906" y="521.557"/>
      <point x="338" y="515.333" type="curve"/>
      <point x="335" y="502.333"/>
      <point x="333.333" y="487.333"/>
      <point x="333.333" y="473.333" type="curve" smooth="yes"/>
      <point x="333.333" y="246.667" type="line"/>
      <point x="140" y="246.667" type="line"/>
    </contour>
  </outline>
</glyph>
<glyph name="five" format="2">
  <advance width="528"/>
  <unicode hex="0035"/>
  <outline>
    <contour>
      <point x="233.333" y="-10" type="curve" smooth="yes"/>
      <point x="409" y="-10"/>
      <point x="491.667" y="73"/>
      <point x="491.667" y="213.333" type="curve" smooth="yes"/>
      <point x="491.667" y="354.333"/>
      <point x="409.333" y="436.667"/>
      <point x="238.333" y="436.667" type="curve" smooth="yes"/>
      <point x="190" y="436.667" type="line"/>
      <point x="190" y="623.333" type="line"/>
      <point x="459" y="623.333" type="line"/>
      <point x="459" y="700" type="line"/>
      <point x="63.3333" y="700" type="line"/>
      <point x="63.3333" y="390.667" type="line"/>
      <point x="99.3333" y="353.333" type="line"/>
      <point x="223.333" y="353.333" type="line" smooth="yes"/>
      <point x="317.667" y="353.333"/>
      <point x="365" y="306.667"/>
      <point x="365" y="213.333" type="curve" smooth="yes"/>
      <point x="365" y="120"/>
      <point x="317.667" y="73.3333"/>
      <point x="223.333" y="73.3333" type="curve" smooth="yes"/>
      <point x="176.333" y="73.3333"/>
      <point x="141.333" y="84.3333"/>
      <point x="118" y="95.3333" type="curve"/>
      <point x="104.667" y="102.333"/>
      <point x="92.6667" y="109.333"/>
      <point x="83.3333" y="118.333" type="curve"/>
      <point x="73.3333" y="118.333" type="line"/>
      <point x="31.6667" y="45" type="line"/>
      <point x="46" y="34"/>
      <point x="63" y="25"/>
      <point x="82.6667" y="17" type="curve"/>
      <point x="116.667" y="2"/>
      <point x="166.333" y="-10"/>
    </contour>
  </outline>
</glyph>
<glyph name="six" format="2">
  <advance width="552"/>
  <unicode hex="0036"/>
  <outline>
    <contour>
      <point x="287.667" y="-10" type="curve" smooth="yes"/>
      <point x="432" y="-10"/>
      <point x="515" y="72.3333"/>
      <point x="515" y="230" type="curve" smooth="yes"/>
      <point x="515" y="373.667"/>
      <point x="432.667" y="456.667"/>
      <point x="295" y="456.667" type="curve" smooth="yes"/>
      <point x="258.333" y="456.667"/>
      <point x="228.333" y="448.333"/>
      <point x="207.333" y="440" type="curve"/>
      <point x="195" y="434.667"/>
      <point x="184.333" y="429"/>
      <point x="175" y="423.333" type="curve"/>
      <point x="175" y="573.667"/>
      <point x="228.333" y="626.667"/>
      <point x="306.667" y="626.667" type="curve" smooth="yes"/>
      <point x="347.667" y="626.667"/>
      <point x="378.667" y="614.667"/>
      <point x="401.667" y="603.667" type="curve"/>
      <point x="414.667" y="596.667"/>
      <point x="425.667" y="589.667"/>
      <point x="435.667" y="581.667" type="curve"/>
      <point x="445.667" y="581.667" type="line"/>
      <point x="487.333" y="655" type="line"/>
      <point x="473" y="665"/>
      <point x="456.333" y="674"/>
      <point x="437.667" y="682" type="curve"/>
      <point x="405.333" y="697"/>
      <point x="357.667" y="710"/>
      <point x="296.667" y="710" type="curve" smooth="yes"/>
      <point x="145" y="710"/>
      <point x="48.3333" y="613"/>
      <point x="48.3333" y="423.333" type="curve" smooth="yes"/>
      <point x="48.3333" y="230" type="line" smooth="yes"/>
      <point x="48.3333" y="72.3333"/>
      <point x="131.333" y="-10"/>
    </contour>
    <contour>
      <point x="286.667" y="73.3333" type="curve" smooth="yes"/>
      <point x="221.667" y="73.3333"/>
      <point x="175" y="120"/>
      <point x="175" y="230" type="curve" smooth="yes"/>
      <point x="175" y="340" type="line"/>
      <point x="180.277" y="343.839"/>
      <point x="195.257" y="352.892"/>
      <point x="202" y="356.667" type="curve"/>
      <point x="219" y="365"/>
      <point x="243.333" y="373.333"/>
      <point x="271.667" y="373.333" type="curve" smooth="yes"/>
      <point x="341.667" y="373.333"/>
      <point x="388.333" y="327.333"/>
      <point x="388.333" y="230" type="curve" smooth="yes"/>
      <point x="388.333" y="120"/>
      <point x="341.667" y="73.3333"/>
    </contour>
  </outline>
</glyph>
<glyph name="seven" format="2">
  <advance width="467"/>
  <unicode hex="0037"/>
  <outline>
    <contour>
      <point x="273.333" y="0" type="line"/>
      <point x="273.333" y="90" type="line" smooth="yes"/>
      <point x="273.333" y="318.667"/>
      <point x="366.333" y="508"/>
      <point x="456.667" y="616.667" type="curve"/>
      <point x="456.667" y="700" type="line"/>
      <point x="6.66667" y="700" type="line"/>
      <point x="6.66667" y="616.667" type="line"/>
      <point x="326.667" y="616.667" type="line"/>
      <point x="236.667" y="508.333"/>
      <point x="146.667" y="318.333"/>
      <point x="146.667" y="90" type="curve" smooth="yes"/>
      <point x="146.667" y="0" type="line"/>
    </contour>
  </outline>
</glyph>
<glyph name="nine" format="2">
  <advance width="552"/>
  <unicode hex="0039"/>
  <outline>
    <contour>
      <point x="255" y="-10" type="curve" smooth="yes"/>
      <point x="406.333" y="-10"/>
      <point x="503.333" y="86.6667"/>
      <point x="503.333" y="276.667" type="curve" smooth="yes"/>
      <point x="503.333" y="470" type="line" smooth="yes"/>
      <point x="503.333" y="627.667"/>
      <point x="420.333" y="710"/>
      <point x="264" y="710" type="curve" smooth="yes"/>
      <point x="119.667" y="710"/>
      <point x="36.6667" y="627.667"/>
      <point x="36.6667" y="470" type="curve" smooth="yes"/>
      <point x="36.6667" y="326.333"/>
      <point x="119" y="243.333"/>
      <point x="256.667" y="243.333" type="curve" smooth="yes"/>
      <point x="293.333" y="243.333"/>
      <point x="323.333" y="251"/>
      <point x="344.333" y="260" type="curve"/>
      <point x="356.667" y="264.667"/>
      <point x="367" y="270.333"/>
      <point x="376.667" y="276.667" type="curve"/>
      <point x="376.667" y="126.333"/>
      <point x="323.333" y="73.3333"/>
      <point x="245" y="73.3333" type="curve" smooth="yes"/>
      <point x="203.333" y="73.3333"/>
      <point x="173" y="84.3333"/>
      <point x="150" y="95.3333" type="curve"/>
      <point x="137" y="102.333"/>
      <point x="126" y="109.333"/>
      <point x="116" y="118.333" type="curve"/>
      <point x="106" y="118.333" type="line"/>
      <point x="64.3333" y="45" type="line"/>
      <point x="78.6667" y="34"/>
      <point x="95.3333" y="25"/>
      <point x="114" y="17" type="curve"/>
      <point x="146.333" y="2"/>
      <point x="192.667" y="-10"/>
    </contour>
    <contour>
      <point x="280" y="326.667" type="curve" smooth="yes"/>
      <point x="210" y="326.667"/>
      <point x="163.333" y="372.667"/>
      <point x="163.333" y="470" type="curve" smooth="yes"/>
      <point x="163.333" y="580"/>
      <point x="210" y="626.667"/>
      <point x="265" y="626.667" type="curve" smooth="yes"/>
      <point x="330" y="626.667"/>
      <point x="376.667" y="580"/>
      <point x="376.667" y="470" type="curve" smooth="yes"/>
      <point x="376.667" y="360" type="line"/>
      <point x="368.667" y="353.667"/>
      <point x="359.333" y="348"/>
      <point x="349.667" y="343.333" type="curve"/>
      <point x="332.667" y="334.333"/>
      <point x="308.333" y="326.667"/>
    </contour>
  </outline>
</glyph>
<glyph name="semicolon" format="2">
  <advance width="213"/>
  <unicode hex="003B"/>
  <outline>
    <contour>
      <point x="73.3333" y="-133.333" type="line"/>
      <point x="92.3333" y="-123"/>
      <point x="109.333" y="-109"/>
      <point x="125" y="-92" type="curve" smooth="yes"/>
      <point x="150.667" y="-63.3333"/>
      <point x="176.667" y="-18.3333"/>
      <point x="176.667" y="50" type="curve" smooth="yes"/>
      <point x="176.667" y="99"/>
      <point x="145" y="130"/>
      <point x="101.667" y="130" type="curve" smooth="yes"/>
      <point x="68" y="130"/>
      <point x="36.6667" y="98.3333"/>
      <point x="36.6667" y="60" type="curve" smooth="yes"/>
      <point x="36.6667" y="21.6667"/>
      <point x="68" y="-10"/>
      <point x="105" y="-10" type="curve"/>
      <point x="105" y="-34.3333"/>
      <point x="89.3333" y="-55"/>
      <point x="73.6667" y="-70.3333" type="curve"/>
      <point x="65" y="-79.3333"/>
      <point x="54.6667" y="-87.6667"/>
      <point x="43.3333" y="-95" type="curve"/>
    </contour>
    <contour>
      <point x="106.667" y="370" type="curve" smooth="yes"/>
      <point x="145" y="370"/>
      <point x="176.667" y="401.667"/>
      <point x="176.667" y="440" type="curve" smooth="yes"/>
      <point x="176.667" y="478.333"/>
      <point x="145" y="510"/>
      <point x="106.667" y="510" type="curve" smooth="yes"/>
      <point x="68.3333" y="510"/>
      <point x="36.6667" y="478.333"/>
      <point x="36.6667" y="440" type="curve" smooth="yes"/>
      <point x="36.6667" y="401.667"/>
      <point x="68.3333" y="370"/>
    </contour>
  </outline>
</glyph>
<glyph name="less" format="2">
  <advance width="460"/>
  <unicode hex="003C"/>
  <outline>
    <contour>
      <point x="423.333" y="111.667" type="line"/>
      <point x="163.333" y="250" type="line"/>
      <point x="423.333" y="388.333" type="line"/>
      <point x="423.333" y="500" type="line"/>
      <point x="26.6667" y="288.333" type="line"/>
      <point x="26.6667" y="211.667" type="line"/>
      <point x="423.333" y="0" type="line"/>
    </contour>
  </outline>
</glyph>
<glyph name="question" format="2">
  <advance width="480"/>
  <unicode hex="003F"/>
  <outline>
    <contour>
      <point x="248.667" y="193.333" type="line"/>
      <point x="248.667" y="226.667" type="line" smooth="yes"/>
      <point x="248.667" y="343.333"/>
      <point x="443.333" y="343"/>
      <point x="443.333" y="520" type="curve" smooth="yes"/>
      <point x="443.333" y="630"/>
      <point x="363.667" y="710"/>
      <point x="201.667" y="710" type="curve" smooth="yes"/>
      <point x="134.667" y="710"/>
      <point x="85" y="697"/>
      <point x="51" y="682" type="curve"/>
      <point x="31.3333" y="674"/>
      <point x="14.3333" y="665"/>
      <point x="0" y="655" type="curve"/>
      <point x="41.6667" y="581.667" type="line"/>
      <point x="51.6667" y="581.667" type="line"/>
      <point x="61" y="589.667"/>
      <point x="73" y="596.667"/>
      <point x="86.3333" y="603.667" type="curve"/>
      <point x="109.667" y="614.667"/>
      <point x="144.667" y="626.667"/>
      <point x="191.667" y="626.667" type="curve" smooth="yes"/>
      <point x="273.333" y="626.667"/>
      <point x="316.667" y="584"/>
      <point x="316.667" y="530" type="curve" smooth="yes"/>
      <point x="316.667" y="396"/>
      <point x="132" y="396.667"/>
      <point x="132" y="226.667" type="curve" smooth="yes"/>
      <point x="132" y="193.333" type="line"/>
    </contour>
    <contour>
      <point x="190.333" y="-10" type="curve" smooth="yes"/>
      <point x="228.667" y="-10"/>
      <point x="260.333" y="21.6667"/>
      <point x="260.333" y="60" type="curve" smooth="yes"/>
      <point x="260.333" y="98.3333"/>
      <point x="228.667" y="130"/>
      <point x="190.333" y="130" type="curve" smooth="yes"/>
      <point x="152" y="130"/>
      <point x="120.333" y="98.3333"/>
      <point x="120.333" y="60" type="curve" smooth="yes"/>
      <point x="120.333" y="21.6667"/>
      <point x="152" y="-10"/>
    </contour>
  </outline>
</glyph>
<glyph name="D" format="2">
  <advance width="605"/>
  <unicode hex="0044"/>
  <outline>
    <contour>
      <point x="250" y="0" type="line" smooth="yes"/>
      <point x="446.667" y="0"/>
      <point x="553.333" y="106.333"/>
      <point x="553.333" y="350" type="curve" smooth="yes"/>
      <point x="553.333" y="593.667"/>
      <point x="446.667" y="700"/>
      <point x="250" y="700" type="curve" smooth="yes"/>
      <point x="86.6667" y="700" type="line"/>
      <point x="86.6667" y="0" type="line"/>
    </contour>
    <contour>
      <point x="213.333" y="616.667" type="line"/>
      <point x="250" y="616.667" type="line" smooth="yes"/>
      <point x="363.333" y="616.667"/>
      <point x="426.667" y="553.667"/>
      <point x="426.667" y="350" type="curve" smooth="yes"/>
      <point x="426.667" y="146.333"/>
      <point x="363.333" y="83.3333"/>
      <point x="250" y="83.3333" type="curve" smooth="yes"/>
      <point x="213.333" y="83.3333" type="line"/>
    </contour>
  </outline>
</glyph>
<glyph name="E" format="2">
  <advance width="523"/>
  <unicode hex="0045"/>
  <outline>
    <contour>
      <point x="496.667" y="0" type="line"/>
      <point x="496.667" y="83.3333" type="line"/>
      <point x="213.333" y="83.3333" type="line"/>
      <point x="213.333" y="323.333" type="line"/>
      <point x="436.667" y="323.333" type="line"/>
      <point x="436.667" y="406.667" type="line"/>
      <point x="213.333" y="406.667" type="line"/>
      <point x="213.333" y="616.667" type="line"/>
      <point x="496.667" y="616.667" type="line"/>
      <point x="496.667" y="700" type="line"/>
      <point x="86.6667" y="700" type="line"/>
      <point x="86.6667" y="0" type="line"/>
    </contour>
  </outline>
</glyph>
<glyph name="G" format="2">
  <advance width="582"/>
  <unicode hex="0047"/>
  <outline>
    <contour>
      <point x="325" y="-10" type="curve" smooth="yes"/>
      <point x="387.667" y="-10"/>
      <point x="468.667" y="4.66667"/>
      <point x="520" y="45" type="curve"/>
      <point x="520" y="350" type="line"/>
      <point x="483.333" y="386.667" type="line"/>
      <point x="285" y="386.667" type="line"/>
      <point x="285" y="303.333" type="line"/>
      <point x="393.333" y="303.333" type="line"/>
      <point x="393.333" y="86.6667" type="line"/>
      <point x="381.667" y="82"/>
      <point x="359.667" y="73.3333"/>
      <point x="335" y="73.3333" type="curve" smooth="yes"/>
      <point x="241.667" y="73.3333"/>
      <point x="178.333" y="136"/>
      <point x="178.333" y="350" type="curve" smooth="yes"/>
      <point x="178.333" y="564"/>
      <point x="241.667" y="626.667"/>
      <point x="325" y="626.667" type="curve" smooth="yes"/>
      <point x="368" y="626.667"/>
      <point x="411.667" y="609"/>
      <point x="445" y="581.667" type="curve"/>
      <point x="455" y="581.667" type="line"/>
      <point x="496.667" y="655" type="line"/>
      <point x="445" y="692.667"/>
      <point x="377.667" y="710"/>
      <point x="315" y="710" type="curve" smooth="yes"/>
      <point x="158.333" y="710"/>
      <point x="51.6667" y="603.667"/>
      <point x="51.6667" y="350" type="curve" smooth="yes"/>
      <point x="51.6667" y="96.3333"/>
      <point x="157.667" y="-10"/>
    </contour>
  </outline>
</glyph>
<glyph name="J" format="2">
  <advance width="442"/>
  <unicode hex="004A"/>
  <outline>
    <contour>
      <point x="145" y="-10" type="curve" smooth="yes"/>
      <point x="287" y="-10"/>
      <point x="363.333" y="66.3333"/>
      <point x="363.333" y="190" type="curve" smooth="yes"/>
      <point x="363.333" y="700" type="line"/>
      <point x="236.667" y="700" type="line"/>
      <point x="236.667" y="190" type="line" smooth="yes"/>
      <point x="236.667" y="109"/>
      <point x="200.333" y="73.3333"/>
      <point x="135" y="73.3333" type="curve" smooth="yes"/>
      <point x="112" y="73.3333"/>
      <point x="90.6667" y="82.3333"/>
      <point x="74" y="93.3333" type="curve"/>
      <point x="64.3333" y="99.3333"/>
      <point x="55.3333" y="106.333"/>
      <point x="46.6667" y="113.333" type="curve"/>
      <point x="36.6667" y="113.333" type="line"/>
      <point x="0" y="35" type="line"/>
      <point x="12.3333" y="26"/>
      <point x="26.3333" y="19"/>
      <point x="42.3333" y="12" type="curve" smooth="yes"/>
      <point x="68.3333" y="1"/>
      <point x="105" y="-10"/>
    </contour>
  </outline>
</glyph>
<glyph name="L" format="2">
  <advance width="500"/>
  <unicode hex="004C"/>
  <outline>
    <contour>
      <point x="490" y="0" type="line"/>
      <point x="490" y="83.3333" type="line"/>
      <point x="213.333" y="83.3333" type="line"/>
      <point x="213.333" y="700" type="line"/>
      <point x="86.6667" y="700" type="line"/>
      <point x="86.6667" y="0" type="line"/>
    </contour>
  </outline>
</glyph>
<glyph name="N" format="2">
  <advance width="650"/>
  <unicode hex="004E"/>
  <outline>
    <contour>
      <point x="213.333" y="0" type="line"/>
      <point x="213.333" y="435" type="line" smooth="yes"/>
      <point x="213.333" y="450"/>
      <point x="211.667" y="467.333"/>
      <point x="210.667" y="482.333" type="curve" smooth="yes"/>
      <point x="208.667" y="506.667" type="line"/>
      <point x="212.667" y="506.667" type="line"/>
      <point x="214.6" y="500.551"/>
      <point x="219.479" y="487.909"/>
      <point x="221.333" y="482.333" type="curve" smooth="yes"/>
      <point x="226.667" y="467.333"/>
      <point x="233.667" y="450"/>
      <point x="240" y="435" type="curve" smooth="yes"/>
      <point x="426.667" y="0" type="line"/>
      <point x="563.333" y="0" type="line"/>
      <point x="563.333" y="700" type="line"/>
      <point x="436.667" y="700" type="line"/>
      <point x="436.667" y="265" type="line" smooth="yes"/>
      <point x="436.667" y="250"/>
      <point x="437" y="231.333"/>
      <point x="438.667" y="217.667" type="curve" smooth="yes"/>
      <point x="441.333" y="193.333" type="line"/>
      <point x="437.333" y="193.333" type="line"/>
      <point x="435.479" y="198.909"/>
      <point x="430.6" y="211.551"/>
      <point x="428.667" y="217.667" type="curve"/>
      <point x="423" y="231.333"/>
      <point x="416.333" y="250"/>
      <point x="410" y="265" type="curve" smooth="yes"/>
      <point x="223.333" y="700" type="line"/>
      <point x="86.6667" y="700" type="line"/>
      <point x="86.6667" y="0" type="line"/>
    </contour>
  </outline>
</glyph>
<glyph name="O" format="2">
  <advance width="620"/>
  <unicode hex="004F"/>
  <outline>
    <contour>
      <point x="310" y="-10" type="curve" smooth="yes"/>
      <point x="465" y="-10"/>
      <point x="568.333" y="93.3333"/>
      <point x="568.333" y="350" type="curve" smooth="yes"/>
      <point x="568.333" y="606.667"/>
      <point x="465" y="710"/>
      <point x="310" y="710" type="curve" smooth="yes"/>
      <point x="155" y="710"/>
      <point x="51.6667" y="606.667"/>
      <point x="51.6667" y="350" type="curve" smooth="yes"/>
      <point x="51.6667" y="93.3333"/>
      <point x="155" y="-10"/>
    </contour>
    <contour>
      <point x="310" y="73.3333" type="curve" smooth="yes"/>
      <point x="241.667" y="73.3333"/>
      <point x="178.333" y="136"/>
      <point x="178.333" y="350" type="curve" smooth="yes"/>
      <point x="178.333" y="564"/>
      <point x="241.667" y="626.667"/>
      <point x="310" y="626.667" type="curve" smooth="yes"/>
      <point x="378.333" y="626.667"/>
      <point x="441.667" y="564"/>
      <point x="441.667" y="350" type="curve" smooth="yes"/>
      <point x="441.667" y="136"/>
      <point x="378.333" y="73.3333"/>
    </contour>
  </outline>
</glyph>
<glyph name="R" format="2">
  <advance width="592"/>
  <unicode hex="0052"/>
  <outline>
    <contour>
      <point x="213.333" y="0" type="line"/>
      <point x="213.333" y="253.333" type="line"/>
      <point x="276.667" y="253.333" type="line"/>
      <point x="425" y="0" type="line"/>
      <point x="570" y="0" type="line"/>
      <point x="401" y="275" type="line"/>
      <point x="489.333" y="304.333"/>
      <point x="533.333" y="381"/>
      <point x="533.333" y="476.667" type="curve" smooth="yes"/>
      <point x="533.333" y="620.333"/>
      <point x="453" y="700"/>
      <point x="270" y="700" type="curve" smooth="yes"/>
      <point x="86.6667" y="700" type="line"/>
      <point x="86.6667" y="0" type="line"/>
    </contour>
    <contour>
      <point x="213.333" y="616.667" type="line"/>
      <point x="270" y="616.667" type="line" smooth="yes"/>
      <point x="364" y="616.667"/>
      <point x="406.667" y="574"/>
      <point x="406.667" y="476.667" type="curve" smooth="yes"/>
      <point x="406.667" y="379.333"/>
      <point x="364" y="336.667"/>
      <point x="270" y="336.667" type="curve" smooth="yes"/>
      <point x="213.333" y="336.667" type="line"/>
    </contour>
  </outline>
</glyph>
<glyph name="T" format="2">
  <advance width="500"/>
  <unicode hex="0054"/>
  <outline>
    <contour>
      <point x="313.333" y="0" type="line"/>
      <point x="313.333" y="616.667" type="line"/>
      <point x="490" y="616.667" type="line"/>
      <point x="490" y="700" type="line"/>
      <point x="10" y="700" type="line"/>
      <point x="10" y="616.667" type="line"/>
      <point x="186.667" y="616.667" type="line"/>
      <point x="186.667" y="0" type="line"/>
    </contour>
  </outline>
</glyph>
<glyph name="X" format="2">
  <advance width="550"/>
  <unicode hex="0058"/>
  <outline>
    <contour>
      <point x="148.333" y="0" type="line"/>
      <point x="258.333" y="228.333" type="line"/>
      <point x="261.091" y="234.607"/>
      <point x="266.893" y="251.347"/>
      <point x="269" y="258" type="curve"/>
      <point x="273" y="273.333" type="line"/>
      <point x="277" y="273.333" type="line"/>
      <point x="281" y="258" type="line"/>
      <point x="284" y="249"/>
      <point x="286.667" y="238.333"/>
      <point x="291.667" y="228.333" type="curve" smooth="yes"/>
      <point x="401.667" y="0" type="line"/>
      <point x="538.333" y="0" type="line"/>
      <point x="360" y="355" type="line"/>
      <point x="533.333" y="700" type="line"/>
      <point x="396.667" y="700" type="line"/>
      <point x="291.667" y="481.667" type="line" smooth="yes"/>
      <point x="286.667" y="471.333"/>
      <point x="284" y="461"/>
      <point x="281" y="452" type="curve"/>
      <point x="277" y="436.667" type="line"/>
      <point x="273" y="436.667" type="line"/>
      <point x="269" y="452" type="line"/>
      <point x="266.993" y="458.021"/>
      <point x="260.712" y="475.53"/>
      <point x="258.333" y="481.667" type="curve"/>
      <point x="153.333" y="700" type="line"/>
      <point x="16.6667" y="700" type="line"/>
      <point x="190" y="355" type="line"/>
      <point x="11.6667" y="0" type="line"/>
    </contour>
  </outline>
</glyph>
<glyph name="Z" format="2">
  <advance width="512"/>
  <unicode hex="005A"/>
  <outline>
    <contour>
      <point x="480" y="0" type="line"/>
      <point x="480" y="83.3333" type="line"/>
      <point x="178.333" y="83.3333" type="line"/>
      <point x="475" y="611.667" type="line"/>
      <point x="475" y="700" type="line"/>
      <point x="31.6667" y="700" type="line"/>
      <point x="31.6667" y="616.667" type="line"/>
      <point x="328.333" y="616.667" type="line"/>
      <point x="31.6667" y="88.3333" type="line"/>
      <point x="31.6667" y="0" type="line"/>
    </contour>
  </outline>
</glyph>
<glyph name="bracketleft" format="2">
  <advance width="327"/>
  <unicode hex="005B"/>
  <outline>
    <contour>
      <point x="313.333" y="-170" type="line"/>
      <point x="313.333" y="-86.6667" type="line"/>
      <point x="213.333" y="-86.6667" type="line"/>
      <point x="213.333" y="646.667" type="line"/>
      <point x="313.333" y="646.667" type="line"/>
      <point x="313.333" y="730" type="line"/>
      <point x="86.6667" y="730" type="line"/>
      <point x="86.6667" y="-170" type="line"/>
    </contour>
  </outline>
</glyph>
<glyph name="bracketright" format="2">
  <advance width="327"/>
  <unicode hex="005D"/>
  <outline>
    <contour>
      <point x="240" y="-170" type="line"/>
      <point x="240" y="730" type="line"/>
      <point x="13.3333" y="730" type="line"/>
      <point x="13.3333" y="646.667" type="line"/>
      <point x="113.333" y="646.667" type="line"/>
      <point x="113.333" y="-86.6667" type="line"/>
      <point x="13.3333" y="-86.6667" type="line"/>
      <point x="13.3333" y="-170" type="line"/>
    </contour>
  </outline>
</glyph>
<glyph name="asciicircum" format="2">
  <advance width="457"/>
  <unicode hex="005E"/>
  <outline>
    <contour>
      <point x="120" y="440" type="line"/>
      <point x="228.333" y="606.667" type="line"/>
      <point x="336.667" y="440" type="line"/>
      <point x="456.667" y="440" type="line"/>
      <point x="273.333" y="720" type="line"/>
      <point x="183.333" y="720" type="line"/>
      <point x="0" y="440" type="line"/>
    </contour>
  </outline>
</glyph>
<glyph name="a" format="2">
  <advance width="530"/>
  <unicode hex="0061"/>
  <outline>
    <contour>
      <point x="220" y="-10" type="curve" smooth="yes"/>
      <point x="267" y="-10"/>
      <point x="300.667" y="6"/>
      <point x="324" y="25" type="curve"/>
      <point x="337.333" y="35"/>
      <point x="348.667" y="47"/>
      <point x="358.333" y="60" type="curve"/>
      <point x="363.333" y="60" type="line"/>
      <point x="373.333" y="0" type="line"/>
      <point x="463.333" y="0" type="line"/>
      <point x="463.333" y="320" type="line" smooth="yes"/>
      <point x="463.333" y="430"/>
      <point x="382.667" y="510"/>
      <point x="248.333" y="510" type="curve" smooth="yes"/>
      <point x="197.333" y="510"/>
      <point x="156.667" y="497"/>
      <point x="126.333" y="484" type="curve" smooth="yes"/>
      <point x="109.333" y="476.667"/>
      <point x="93.6667" y="467.667"/>
      <point x="80" y="458.333" type="curve"/>
      <point x="121.667" y="385" type="line"/>
      <point x="131.667" y="385" type="line"/>
      <point x="140" y="392.333"/>
      <point x="149.667" y="399.333"/>
      <point x="161" y="405.667" type="curve" smooth="yes"/>
      <point x="180.333" y="416.667"/>
      <point x="206" y="426.667"/>
      <point x="238.333" y="426.667" type="curve" smooth="yes"/>
      <point x="303.333" y="426.667"/>
      <point x="336.667" y="394"/>
      <point x="336.667" y="320" type="curve" smooth="yes"/>
      <point x="336.667" y="301.667" type="line"/>
      <point x="263.333" y="301.667" type="line" smooth="yes"/>
      <point x="105" y="301.667"/>
      <point x="41.6667" y="239"/>
      <point x="41.6667" y="145" type="curve" smooth="yes"/>
      <point x="41.6667" y="52.3333"/>
      <point x="105" y="-10"/>
    </contour>
    <contour>
      <point x="245" y="78.3333" type="curve" smooth="yes"/>
      <point x="195" y="78.3333"/>
      <point x="168.333" y="104.667"/>
      <point x="168.333" y="145" type="curve" smooth="yes"/>
      <point x="168.333" y="190"/>
      <point x="196.667" y="218.333"/>
      <point x="263.333" y="218.333" type="curve" smooth="yes"/>
      <point x="336.667" y="218.333" type="line"/>
      <point x="336.667" y="138.333" type="line"/>
      <point x="329" y="127.333"/>
      <point x="320.333" y="117.333"/>
      <point x="310.667" y="108.333" type="curve" smooth="yes"/>
      <point x="294.333" y="93.3333"/>
      <point x="272" y="78.3333"/>
    </contour>
  </outline>
</glyph>
<glyph name="d" format="2">
  <advance width="552"/>
  <unicode hex="0064"/>
  <outline>
    <contour>
      <point x="236.667" y="-10" type="curve" smooth="yes"/>
      <point x="283.667" y="-10"/>
      <point x="317.333" y="6"/>
      <point x="340.667" y="25" type="curve"/>
      <point x="354" y="35"/>
      <point x="365.333" y="47"/>
      <point x="375" y="60" type="curve"/>
      <point x="380" y="60" type="line"/>
      <point x="390" y="0" type="line"/>
      <point x="480" y="0" type="line"/>
      <point x="480" y="700" type="line"/>
      <point x="390" y="700" type="line"/>
      <point x="353.333" y="663.333" type="line"/>
      <point x="353.333" y="480" type="line"/>
      <point x="323.667" y="495" type="line"/>
      <point x="304.333" y="502"/>
      <point x="281" y="510"/>
      <point x="250" y="510" type="curve" smooth="yes"/>
      <point x="128.333" y="510"/>
      <point x="43.3333" y="425"/>
      <point x="43.3333" y="250" type="curve" smooth="yes"/>
      <point x="43.3333" y="75"/>
      <point x="128.333" y="-10"/>
    </contour>
    <contour>
      <point x="261.667" y="78.3333" type="curve" smooth="yes"/>
      <point x="213" y="78.3333"/>
      <point x="170" y="121.667"/>
      <point x="170" y="250" type="curve" smooth="yes"/>
      <point x="170" y="383.333"/>
      <point x="213.667" y="426.667"/>
      <point x="271.667" y="426.667" type="curve" smooth="yes"/>
      <point x="296" y="426.667"/>
      <point x="316" y="419.667"/>
      <point x="330.333" y="413.333" type="curve"/>
      <point x="336.201" y="410.523"/>
      <point x="348.495" y="402.884"/>
      <point x="353.333" y="400" type="curve"/>
      <point x="353.333" y="138.333" type="line"/>
      <point x="345.667" y="127.333"/>
      <point x="337.667" y="117.333"/>
      <point x="328.667" y="108.333" type="curve"/>
      <point x="312.333" y="93.3333"/>
      <point x="290" y="78.3333"/>
    </contour>
  </outline>
</glyph>
<glyph name="f" format="2">
  <advance width="357"/>
  <unicode hex="0066"/>
  <outline>
    <contour>
      <point x="205" y="0" type="line"/>
      <point x="205" y="416.667" type="line"/>
      <point x="333.333" y="416.667" type="line"/>
      <point x="333.333" y="500" type="line"/>
      <point x="205" y="500" type="line"/>
      <point x="205" y="543.333" type="line" smooth="yes"/>
      <point x="205" y="597.333"/>
      <point x="235" y="626.667"/>
      <point x="273.333" y="626.667" type="curve" smooth="yes"/>
      <point x="296.333" y="626.667"/>
      <point x="317" y="616.667"/>
      <point x="333.333" y="605.667" type="curve" smooth="yes"/>
      <point x="342.667" y="599.333"/>
      <point x="351.667" y="592.333"/>
      <point x="360" y="585" type="curve"/>
      <point x="370" y="585" type="line"/>
      <point x="411.667" y="658.333" type="line"/>
      <point x="398.333" y="667.667"/>
      <point x="383.667" y="676.667"/>
      <point x="368" y="684" type="curve" smooth="yes"/>
      <point x="340.333" y="697"/>
      <point x="304.333" y="710"/>
      <point x="263.333" y="710" type="curve" smooth="yes"/>
      <point x="146.667" y="710"/>
      <point x="78.3333" y="642"/>
      <point x="78.3333" y="543.333" type="curve" smooth="yes"/>
      <point x="78.3333" y="500" type="line"/>
      <point x="20" y="500" type="line"/>
      <point x="20" y="416.667" type="line"/>
      <point x="78.3333" y="416.667" type="line"/>
      <point x="78.3333" y="0" type="line"/>
    </contour>
  </outline>
</glyph>
<glyph name="h" format="2">
  <advance width="565"/>
  <unicode hex="0068"/>
  <outline>
    <contour>
      <point x="198.333" y="0" type="line"/>
      <point x="198.333" y="361.667" type="line"/>
      <point x="206" y="372.667"/>
      <point x="214" y="382.667"/>
      <point x="223" y="391.667" type="curve"/>
      <point x="239.333" y="406.667"/>
      <point x="261" y="421.667"/>
      <point x="290" y="421.667" type="curve" smooth="yes"/>
      <point x="338.667" y="421.667"/>
      <point x="371.667" y="388.667"/>
      <point x="371.667" y="326.667" type="curve" smooth="yes"/>
      <point x="371.667" y="0" type="line"/>
      <point x="498.333" y="0" type="line"/>
      <point x="498.333" y="326.667" type="line" smooth="yes"/>
      <point x="498.333" y="440.667"/>
      <point x="429" y="510"/>
      <point x="315" y="510" type="curve" smooth="yes"/>
      <point x="277.333" y="510"/>
      <point x="249" y="497.667"/>
      <point x="228.667" y="486.333" type="curve"/>
      <point x="217" y="479.333"/>
      <point x="206.667" y="471.667"/>
      <point x="198.333" y="463.333" type="curve"/>
      <point x="198.333" y="700" type="line"/>
      <point x="108.333" y="700" type="line"/>
      <point x="71.6667" y="663.333" type="line"/>
      <point x="71.6667" y="0" type="line"/>
    </contour>
  </outline>
</glyph>
<glyph name="i" format="2">
  <advance width="270"/>
  <unicode hex="0069"/>
  <outline>
    <contour>
      <point x="198.333" y="0" type="line"/>
      <point x="198.333" y="500" type="line"/>
      <point x="71.6667" y="500" type="line"/>
      <point x="71.6667" y="0" type="line"/>
    </contour>
    <contour>
      <point x="135" y="570" type="curve" smooth="yes"/>
      <point x="173.333" y="570"/>
      <point x="205" y="601.667"/>
      <point x="205" y="640" type="curve" smooth="yes"/>
      <point x="205" y="678.333"/>
      <point x="173.333" y="710"/>
      <point x="135" y="710" type="curve" smooth="yes"/>
      <point x="96.6667" y="710"/>
      <point x="65" y="678.333"/>
      <point x="65" y="640" type="curve" smooth="yes"/>
      <point x="65" y="601.667"/>
      <point x="96.6667" y="570"/>
    </contour>
  </outline>
</glyph>
<glyph name="l" format="2">
  <advance width="270"/>
  <unicode hex="006C"/>
  <outline>
    <contour>
      <point x="198.333" y="0" type="line"/>
      <point x="198.333" y="700" type="line"/>
      <point x="108.333" y="700" type="line"/>
      <point x="71.6667" y="663.333" type="line"/>
      <point x="71.6667" y="0" type="line"/>
    </contour>
  </outline>
</glyph>
<glyph name="m" format="2">
  <advance width="825"/>
  <unicode hex="006D"/>
  <outline>
    <contour>
      <point x="198.333" y="0" type="line"/>
      <point x="198.333" y="361.667" type="line"/>
      <point x="204.667" y="372.667"/>
      <point x="212.333" y="382.667"/>
      <point x="220.667" y="391.667" type="curve" smooth="yes"/>
      <point x="234.333" y="406.667"/>
      <point x="255" y="421.667"/>
      <point x="280" y="421.667" type="curve" smooth="yes"/>
      <point x="318.333" y="421.667"/>
      <point x="351.667" y="388.667"/>
      <point x="351.667" y="326.667" type="curve" smooth="yes"/>
      <point x="351.667" y="0" type="line"/>
      <point x="478.333" y="0" type="line"/>
      <point x="478.333" y="371.667" type="line"/>
      <point x="486" y="380.667"/>
      <point x="493.667" y="389.667"/>
      <point x="502" y="396.667" type="curve" smooth="yes"/>
      <point x="516.333" y="408.667"/>
      <point x="536.333" y="421.667"/>
      <point x="560" y="421.667" type="curve" smooth="yes"/>
      <point x="598.333" y="421.667"/>
      <point x="631.667" y="388.667"/>
      <point x="631.667" y="326.667" type="curve" smooth="yes"/>
      <point x="631.667" y="0" type="line"/>
      <point x="758.333" y="0" type="line"/>
      <point x="758.333" y="326.667" type="line" smooth="yes"/>
      <point x="758.333" y="440.667"/>
      <point x="689" y="510"/>
      <point x="585" y="510" type="curve" smooth="yes"/>
      <point x="538" y="510"/>
      <point x="501.667" y="492"/>
      <point x="474.667" y="475" type="curve"/>
      <point x="459.667" y="464"/>
      <point x="446.333" y="453"/>
      <point x="435" y="440" type="curve"/>
      <point x="428" y="453"/>
      <point x="418.667" y="464"/>
      <point x="406.667" y="475" type="curve"/>
      <point x="386.333" y="492"/>
      <point x="354.667" y="510"/>
      <point x="305" y="510" type="curve" smooth="yes"/>
      <point x="264" y="510"/>
      <point x="231.667" y="492"/>
      <point x="210" y="475" type="curve"/>
      <point x="197.667" y="464"/>
      <point x="186.333" y="453"/>
      <point x="176.667" y="440" type="curve"/>
      <point x="171.667" y="440" type="line"/>
      <point x="161.667" y="500" type="line"/>
      <point x="71.6667" y="500" type="line"/>
      <point x="71.6667" y="0" type="line"/>
    </contour>
  </outline>
</glyph>
<glyph name="n" format="2">
  <advance width="565"/>
  <unicode hex="006E"/>
  <outline>
    <contour>
      <point x="198.333" y="0" type="line"/>
      <point x="198.333" y="361.667" type="line"/>
      <point x="206" y="372.667"/>
      <point x="214" y="382.667"/>
      <point x="223" y="391.667" type="curve"/>
      <point x="239.333" y="406.667"/>
      <point x="261" y="421.667"/>
      <point x="290" y="421.667" type="curve" smooth="yes"/>
      <point x="338.667" y="421.667"/>
      <point x="371.667" y="388.667"/>
      <point x="371.667" y="326.667" type="curve" smooth="yes"/>
      <point x="371.667" y="0" type="line"/>
      <point x="498.333" y="0" type="line"/>
      <point x="498.333" y="326.667" type="line" smooth="yes"/>
      <point x="498.333" y="440.667"/>
      <point x="429" y="510"/>
      <point x="315" y="510" type="curve" smooth="yes"/>
      <point x="268" y="510"/>
      <point x="234.333" y="492"/>
      <point x="211" y="475" type="curve"/>
      <point x="197.667" y="464"/>
      <point x="185.667" y="453"/>
      <point x="176.667" y="440" type="curve"/>
      <point x="171.667" y="440" type="line"/>
      <point x="161.667" y="500" type="line"/>
      <point x="71.6667" y="500" type="line"/>
      <point x="71.6667" y="0" type="line"/>
    </contour>
  </outline>
</glyph>
<glyph name="r" format="2">
  <advance width="385"/>
  <unicode hex="0072"/>
  <outline>
    <contour>
      <point x="198.333" y="0" type="line"/>
      <point x="198.333" y="356.667" type="line"/>
      <point x="206" y="367.667"/>
      <point x="213.667" y="377.667"/>
      <point x="222.667" y="386.667" type="curve"/>
      <point x="239" y="401.667"/>
      <point x="260.333" y="416.667"/>
      <point x="288.333" y="416.667" type="curve" smooth="yes"/>
      <point x="304.667" y="416.667"/>
      <point x="322" y="414.667"/>
      <point x="335" y="411.667" type="curve"/>
      <point x="342" y="409.667"/>
      <point x="349.667" y="407.667"/>
      <point x="356.667" y="406.667" type="curve"/>
      <point x="366.667" y="406.667" type="line"/>
      <point x="385" y="500" type="line"/>
      <point x="378.626" y="500.941"/>
      <point x="369.064" y="503.387"/>
      <point x="362.667" y="505" type="curve"/>
      <point x="348.667" y="508"/>
      <point x="330.333" y="510"/>
      <point x="313.333" y="510" type="curve" smooth="yes"/>
      <point x="267.333" y="510"/>
      <point x="233.667" y="492"/>
      <point x="210.667" y="475" type="curve"/>
      <point x="197.667" y="464"/>
      <point x="185.667" y="453"/>
      <point x="176.667" y="440" type="curve"/>
      <point x="171.667" y="440" type="line"/>
      <point x="161.667" y="500" type="line"/>
      <point x="71.6667" y="500" type="line"/>
      <point x="71.6667" y="0" type="line"/>
    </contour>
  </outline>
</glyph>
<glyph name="s" format="2">
  <advance width="477"/>
  <unicode hex="0073"/>
  <outline>
    <contour>
      <point x="230" y="-10" type="curve" smooth="yes"/>
      <point x="381.667" y="-10"/>
      <point x="445" y="53.3333"/>
      <point x="445" y="144" type="curve" smooth="yes"/>
      <point x="445" y="313.667"/>
      <point x="168.333" y="279.333"/>
      <point x="168.333" y="371.667" type="curve" smooth="yes"/>
      <point x="168.333" y="400"/>
      <point x="194" y="426.667"/>
      <point x="255" y="426.667" type="curve" smooth="yes"/>
      <point x="291.333" y="426.667"/>
      <point x="322" y="416.667"/>
      <point x="344.333" y="405.667" type="curve" smooth="yes"/>
      <point x="357" y="399.333"/>
      <point x="368" y="392.333"/>
      <point x="378.333" y="385" type="curve"/>
      <point x="388.333" y="385" type="line"/>
      <point x="430" y="458.333" type="line"/>
      <point x="415" y="467.667"/>
      <point x="397.667" y="476.667"/>
      <point x="378.667" y="484" type="curve" smooth="yes"/>
      <point x="345" y="497"/>
      <point x="301" y="510"/>
      <point x="245" y="510" type="curve" smooth="yes"/>
      <point x="104.667" y="510"/>
      <point x="41.6667" y="446.667"/>
      <point x="41.6667" y="361.667" type="curve" smooth="yes"/>
      <point x="41.6667" y="191.667"/>
      <point x="318.333" y="227.333"/>
      <point x="318.333" y="134" type="curve" smooth="yes"/>
      <point x="318.333" y="100"/>
      <point x="292.333" y="73.3333"/>
      <point x="216.667" y="73.3333" type="curve" smooth="yes"/>
      <point x="174.667" y="73.3333"/>
      <point x="142" y="83"/>
      <point x="119" y="94" type="curve" smooth="yes"/>
      <point x="106" y="100.333"/>
      <point x="94" y="107.333"/>
      <point x="83.3333" y="115" type="curve"/>
      <point x="73.3333" y="115" type="line"/>
      <point x="31.6667" y="41.6667" type="line"/>
      <point x="47.3333" y="32"/>
      <point x="65.3333" y="23"/>
      <point x="85.3333" y="15.6667" type="curve"/>
      <point x="119.667" y="2"/>
      <point x="170" y="-10"/>
    </contour>
  </outline>
</glyph>
<glyph name="t" format="2">
  <advance width="410"/>
  <unicode hex="0074"/>
  <outline>
    <contour>
      <point x="263.333" y="-10" type="curve" smooth="yes"/>
      <point x="303.333" y="-10"/>
      <point x="339.667" y="2"/>
      <point x="366.667" y="15" type="curve"/>
      <point x="382.333" y="22"/>
      <point x="396.667" y="31"/>
      <point x="410" y="40" type="curve"/>
      <point x="368.333" y="113.333" type="line"/>
      <point x="358.333" y="113.333" type="line"/>
      <point x="350.333" y="106.333"/>
      <point x="341.333" y="99.3333"/>
      <point x="332.333" y="93.3333" type="curve" smooth="yes"/>
      <point x="316.333" y="82.3333"/>
      <point x="296.333" y="73.3333"/>
      <point x="273.333" y="73.3333" type="curve" smooth="yes"/>
      <point x="237.667" y="73.3333"/>
      <point x="211.667" y="99.3333"/>
      <point x="211.667" y="156.667" type="curve" smooth="yes"/>
      <point x="211.667" y="416.667" type="line"/>
      <point x="330" y="416.667" type="line"/>
      <point x="330" y="500" type="line"/>
      <point x="211.667" y="500" type="line"/>
      <point x="211.667" y="620" type="line"/>
      <point x="160" y="620" type="line"/>
      <point x="16.6667" y="476.667" type="line"/>
      <point x="16.6667" y="416.667" type="line"/>
      <point x="85" y="416.667" type="line"/>
      <point x="85" y="156.667" type="line" smooth="yes"/>
      <point x="85" y="58"/>
      <point x="152.667" y="-10"/>
    </contour>
  </outline>
</glyph>
<glyph name="u" format="2">
  <advance width="570"/>
  <unicode hex="0075"/>
  <outline>
    <contour>
      <point x="255" y="-10" type="curve" smooth="yes"/>
      <point x="302" y="-10"/>
      <point x="335.667" y="6"/>
      <point x="359" y="25" type="curve"/>
      <point x="372.333" y="35"/>
      <point x="383.667" y="47"/>
      <point x="393.333" y="60" type="curve"/>
      <point x="398.333" y="60" type="line"/>
      <point x="408.333" y="0" type="line"/>
      <point x="498.333" y="0" type="line"/>
      <point x="498.333" y="500" type="line"/>
      <point x="371.667" y="500" type="line"/>
      <point x="371.667" y="138.333" type="line"/>
      <point x="364" y="127.333"/>
      <point x="356" y="117.333"/>
      <point x="347" y="108.333" type="curve"/>
      <point x="330.667" y="93.3333"/>
      <point x="308.333" y="78.3333"/>
      <point x="280" y="78.3333" type="curve" smooth="yes"/>
      <point x="231.333" y="78.3333"/>
      <point x="198.333" y="111.333"/>
      <point x="198.333" y="173.333" type="curve" smooth="yes"/>
      <point x="198.333" y="500" type="line"/>
      <point x="71.6667" y="500" type="line"/>
      <point x="71.6667" y="173.333" type="line" smooth="yes"/>
      <point x="71.6667" y="59.3333"/>
      <point x="141" y="-10"/>
    </contour>
  </outline>
</glyph>
<glyph name="v" format="2">
  <advance width="484"/>
  <unicode hex="0076"/>
  <outline>
    <contour>
      <point x="300" y="0" type="line"/>
      <point x="463.333" y="500" type="line"/>
      <point x="349.667" y="500" type="line"/>
      <point x="254.667" y="183.333" type="line" smooth="yes"/>
      <point x="251" y="171"/>
      <point x="249" y="157"/>
      <point x="247.333" y="144.667" type="curve" smooth="yes"/>
      <point x="245" y="123.333" type="line"/>
      <point x="241" y="123.333" type="line"/>
      <point x="238.667" y="144.667" type="line" smooth="yes"/>
      <point x="237" y="157"/>
      <point x="235" y="171"/>
      <point x="231.333" y="183.333" type="curve" smooth="yes"/>
      <point x="136.333" y="500" type="line"/>
      <point x="18.3333" y="500" type="line"/>
      <point x="181.667" y="0" type="line"/>
    </contour>
  </outline>
</glyph>
<glyph name="y" format="2">
  <advance width="495"/>
  <unicode hex="0079"/>
  <outline>
    <contour>
      <point x="141.667" y="-210" type="curve" smooth="yes"/>
      <point x="234" y="-210"/>
      <point x="291.667" y="-150"/>
      <point x="320" y="-56.6667" type="curve"/>
      <point x="483.333" y="500" type="line"/>
      <point x="356.667" y="500" type="line"/>
      <point x="269.667" y="173.333" type="line" smooth="yes"/>
      <point x="266.972" y="163.274"/>
      <point x="262.673" y="142.974"/>
      <point x="261.333" y="133" type="curve"/>
      <point x="260.12" y="127.869"/>
      <point x="258.559" y="115.591"/>
      <point x="258" y="110" type="curve"/>
      <point x="254" y="110" type="line"/>
      <point x="253.106" y="115.61"/>
      <point x="251.545" y="127.882"/>
      <point x="250.333" y="133" type="curve"/>
      <point x="248.333" y="145.667"/>
      <point x="245.333" y="161"/>
      <point x="241.667" y="173.333" type="curve" smooth="yes"/>
      <point x="138.333" y="500" type="line"/>
      <point x="19" y="500" type="line"/>
      <point x="186" y="0" type="line"/>
      <point x="221.333" y="0" type="line"/>
      <point x="205.333" y="-56.6667" type="line" smooth="yes"/>
      <point x="193" y="-101.333"/>
      <point x="164" y="-126.667"/>
      <point x="131.667" y="-126.667" type="curve" smooth="yes"/>
      <point x="116.667" y="-126.667"/>
      <point x="103.667" y="-121.667"/>
      <point x="92.6667" y="-114.667" type="curve"/>
      <point x="86.6667" y="-111.667"/>
      <point x="81.6667" y="-106.667"/>
      <point x="76.6667" y="-101.667" type="curve"/>
      <point x="66.6667" y="-101.667" type="line"/>
      <point x="35" y="-180" type="line"/>
      <point x="43.3333" y="-186"/>
      <point x="53.6667" y="-191"/>
      <point x="65.3333" y="-195" type="curve"/>
      <point x="84.3333" y="-203"/>
      <point x="110.667" y="-210"/>
    </contour>
  </outline>
</glyph>
<glyph name="braceleft" format="2">
  <advance width="332"/>
  <unicode hex="007B"/>
  <outline>
    <contour>
      <point x="321.667" y="-170" type="line"/>
      <point x="321.667" y="-86.6667" type="line"/>
      <point x="286.667" y="-86.6667" type="line" smooth="yes"/>
      <point x="252.667" y="-86.6667"/>
      <point x="228.333" y="-61.6667"/>
      <point x="228.333" y="-23.3333" type="curve" smooth="yes"/>
      <point x="228.333" y="150" type="line" smooth="yes"/>
      <point x="228.333" y="210"/>
      <point x="207" y="241"/>
      <point x="185" y="260" type="curve"/>
      <point x="172.333" y="270"/>
      <point x="158" y="277"/>
      <point x="141.667" y="280" type="curve"/>
      <point x="158" y="283"/>
      <point x="172.333" y="289"/>
      <point x="185" y="300" type="curve"/>
      <point x="207" y="317"/>
      <point x="228.333" y="350"/>
      <point x="228.333" y="410" type="curve" smooth="yes"/>
      <point x="228.333" y="583.333" type="line" smooth="yes"/>
      <point x="228.333" y="621.667"/>
      <point x="252.667" y="646.667"/>
      <point x="286.667" y="646.667" type="curve" smooth="yes"/>
      <point x="321.667" y="646.667" type="line"/>
      <point x="321.667" y="730" type="line"/>
      <point x="286.667" y="730" type="line" smooth="yes"/>
      <point x="161.667" y="730"/>
      <point x="101.667" y="670"/>
      <point x="101.667" y="583.333" type="curve" smooth="yes"/>
      <point x="101.667" y="410" type="line" smooth="yes"/>
      <point x="101.667" y="343"/>
      <point x="81" y="321.667"/>
      <point x="26.6667" y="321.667" type="curve"/>
      <point x="26.6667" y="238.333" type="line"/>
      <point x="81" y="238.333"/>
      <point x="101.667" y="217"/>
      <point x="101.667" y="150" type="curve" smooth="yes"/>
      <point x="101.667" y="-23.3333" type="line" smooth="yes"/>
      <point x="101.667" y="-110.667"/>
      <point x="161.667" y="-170"/>
      <point x="286.667" y="-170" type="curve" smooth="yes"/>
    </contour>
  </outline>
</glyph>
<glyph name="braceright" format="2">
  <advance width="332"/>
  <unicode hex="007D"/>
  <outline>
    <contour>
      <point x="45" y="-170" type="line" smooth="yes"/>
      <point x="170" y="-170"/>
      <point x="230" y="-110.667"/>
      <point x="230" y="-23.3333" type="curve" smooth="yes"/>
      <point x="230" y="150" type="line" smooth="yes"/>
      <point x="230" y="217"/>
      <point x="250.667" y="238.333"/>
      <point x="305" y="238.333" type="curve"/>
      <point x="305" y="321.667" type="line"/>
      <point x="250.667" y="321.667"/>
      <point x="230" y="343"/>
      <point x="230" y="410" type="curve" smooth="yes"/>
      <point x="230" y="583.333" type="line" smooth="yes"/>
      <point x="230" y="670"/>
      <point x="170" y="730"/>
      <point x="45" y="730" type="curve" smooth="yes"/>
      <point x="10" y="730" type="line"/>
      <point x="10" y="646.667" type="line"/>
      <point x="45" y="646.667" type="line" smooth="yes"/>
      <point x="79" y="646.667"/>
      <point x="103.333" y="621.667"/>
      <point x="103.333" y="583.333" type="curve" smooth="yes"/>
      <point x="103.333" y="410" type="line" smooth="yes"/>
      <point x="103.333" y="350"/>
      <point x="124.667" y="317"/>
      <point x="146.667" y="300" type="curve"/>
      <point x="159.333" y="289"/>
      <point x="173.667" y="283"/>
      <point x="190" y="280" type="curve"/>
      <point x="173.667" y="277"/>
      <point x="159.333" y="270"/>
      <point x="146.667" y="260" type="curve"/>
      <point x="124.667" y="241"/>
      <point x="103.333" y="210"/>
      <point x="103.333" y="150" type="curve" smooth="yes"/>
      <point x="103.333" y="-23.3333" type="line" smooth="yes"/>
      <point x="103.333" y="-61.6667"/>
      <point x="79" y="-86.6667"/>
      <point x="45" y="-86.6667" type="curve" smooth="yes"/>
      <point x="10" y="-86.6667" type="line"/>
      <point x="10" y="-170" type="line"/>
    </contour>
  </outline>
</glyph>
<glyph name="exclamdown" format="2">
  <advance width="290"/>
  <unicode hex="00A1"/>
  <outline>
    <contour>
      <point x="218.333" y="-200" type="line"/>
      <point x="198.333" y="306.667" type="line"/>
      <point x="91.6667" y="306.667" type="line"/>
      <point x="71.6667" y="-200" type="line"/>
    </contour>
    <contour>
      <point x="145" y="370" type="curve" smooth="yes"/>
      <point x="183.333" y="370"/>
      <point x="215" y="401.667"/>
      <point x="215" y="440" type="curve" smooth="yes"/>
      <point x="215" y="478.333"/>
      <point x="183.333" y="510"/>
      <point x="145" y="510" type="curve" smooth="yes"/>
      <point x="106.667" y="510"/>
      <point x="75" y="478.333"/>
      <point x="75" y="440" type="curve" smooth="yes"/>
      <point x="75" y="401.667"/>
      <point x="106.667" y="370"/>
    </contour>
  </outline>
</glyph>
<glyph name="dieresis" format="2">
  <advance width="338"/>
  <unicode hex="00A8"/>
  <outline>
    <contour>
      <point x="263.333" y="568.333" type="curve" smooth="yes"/>
      <point x="298.667" y="568.333"/>
      <point x="328.333" y="598"/>
      <point x="328.333" y="633.333" type="curve" smooth="yes"/>
      <point x="328.333" y="668.667"/>
      <point x="298.667" y="698.333"/>
      <point x="263.333" y="698.333" type="curve" smooth="yes"/>
      <point x="228" y="698.333"/>
      <point x="198.333" y="668.667"/>
      <point x="198.333" y="633.333" type="curve" smooth="yes"/>
      <point x="198.333" y="598"/>
      <point x="228" y="568.333"/>
    </contour>
    <contour>
      <point x="75" y="568.333" type="curve" smooth="yes"/>
      <point x="110.333" y="568.333"/>
      <point x="140" y="598"/>
      <point x="140" y="633.333" type="curve" smooth="yes"/>
      <point x="140" y="668.667"/>
      <point x="110.333" y="698.333"/>
      <point x="75" y="698.333" type="curve" smooth="yes"/>
      <point x="39.6667" y="698.333"/>
      <point x="10" y="668.667"/>
      <point x="10" y="633.333" type="curve" smooth="yes"/>
      <point x="10" y="598"/>
      <point x="39.6667" y="568.333"/>
    </contour>
  </outline>
</glyph>
<glyph name="copyright" format="2">
  <advance width="893"/>
  <unicode hex="00A9"/>
  <outline>
    <contour>
      <point x="446.667" y="-36.6667" type="curve" smooth="yes"/>
      <point x="683.333" y="-36.6667"/>
      <point x="853.333" y="132.667"/>
      <point x="853.333" y="350" type="curve" smooth="yes"/>
      <point x="853.333" y="567.333"/>
      <point x="683.333" y="736.667"/>
      <point x="446.667" y="736.667" type="curve" smooth="yes"/>
      <point x="210" y="736.667"/>
      <point x="40" y="567.333"/>
      <point x="40" y="350" type="curve" smooth="yes"/>
      <point x="40" y="132.667"/>
      <point x="210" y="-36.6667"/>
    </contour>
    <contour>
      <point x="465" y="125" type="curve" smooth="yes"/>
      <point x="508" y="125"/>
      <point x="545.667" y="137"/>
      <point x="572" y="150" type="curve"/>
      <point x="587.667" y="157"/>
      <point x="601.333" y="166"/>
      <point x="613.333" y="175" type="curve"/>
      <point x="576.667" y="235" type="line"/>
      <point x="567.667" y="235" type="line"/>
      <point x="558.667" y="228"/>
      <point x="549.667" y="222"/>
      <point x="540" y="217" type="curve" smooth="yes"/>
      <point x="522.333" y="208"/>
      <point x="500" y="200"/>
      <point x="475" y="200" type="curve" smooth="yes"/>
      <point x="414" y="200"/>
      <point x="370" y="245"/>
      <point x="370" y="350" type="curve" smooth="yes"/>
      <point x="370" y="455"/>
      <point x="415" y="500"/>
      <point x="465" y="500" type="curve" smooth="yes"/>
      <point x="490" y="500"/>
      <point x="512.333" y="491"/>
      <point x="530" y="482" type="curve" smooth="yes"/>
      <point x="539.667" y="477"/>
      <point x="548.667" y="471"/>
      <point x="557.667" y="465" type="curve"/>
      <point x="566.667" y="465" type="line"/>
      <point x="603.333" y="525" type="line"/>
      <point x="591.333" y="534"/>
      <point x="577.667" y="543"/>
      <point x="562" y="550" type="curve" smooth="yes"/>
      <point x="535.667" y="562"/>
      <point x="498" y="575"/>
      <point x="455" y="575" type="curve" smooth="yes"/>
      <point x="342" y="575"/>
      <point x="260" y="493.333"/>
      <point x="260" y="350" type="curve" smooth="yes"/>
      <point x="260" y="206.333"/>
      <point x="341.333" y="125"/>
    </contour>
    <contour>
      <point x="446.667" y="46.6667" type="curve" smooth="yes"/>
      <point x="276" y="46.6667"/>
      <point x="150" y="173.333"/>
      <point x="150" y="350" type="curve" smooth="yes"/>
      <point x="150" y="526.667"/>
      <point x="276" y="653.333"/>
      <point x="446.667" y="653.333" type="curve" smooth="yes"/>
      <point x="617.333" y="653.333"/>
      <point x="743.333" y="526.667"/>
      <point x="743.333" y="350" type="curve" smooth="yes"/>
      <point x="743.333" y="173.333"/>
      <point x="617.333" y="46.6667"/>
    </contour>
  </outline>
</glyph>
<glyph name="ordfeminine" format="2">
  <advance width="373"/>
  <unicode hex="00AA"/>
  <outline>
    <contour>
      <point x="148.667" y="350" type="curve" smooth="yes"/>
      <point x="179.667" y="350"/>
      <point x="203.333" y="361.333"/>
      <point x="219" y="373" type="curve" smooth="yes"/>
      <point x="228" y="380"/>
      <point x="235.667" y="387.667"/>
      <point x="241.667" y="396.667" type="curve"/>
      <point x="246.667" y="396.667" type="line"/>
      <point x="252.667" y="360" type="line"/>
      <point x="338.333" y="360" type="line"/>
      <point x="338.333" y="583.333" type="line" smooth="yes"/>
      <point x="338.333" y="660.333"/>
      <point x="289.333" y="710"/>
      <point x="185" y="710" type="curve" smooth="yes"/>
      <point x="145" y="710"/>
      <point x="111" y="698"/>
      <point x="88" y="687" type="curve"/>
      <point x="74.3333" y="680"/>
      <point x="62" y="673"/>
      <point x="51.6667" y="665" type="curve"/>
      <point x="84.3333" y="610" type="line"/>
      <point x="94.3333" y="610" type="line"/>
      <point x="98.1391" y="613.125"/>
      <point x="110.398" y="621.559"/>
      <point x="115.333" y="625" type="curve"/>
      <point x="128" y="632"/>
      <point x="145.667" y="640"/>
      <point x="166.667" y="640" type="curve" smooth="yes"/>
      <point x="206.667" y="640"/>
      <point x="228.333" y="619.667"/>
      <point x="228.333" y="583.333" type="curve" smooth="yes"/>
      <point x="228.333" y="565" type="line"/>
      <point x="186.667" y="565" type="line" smooth="yes"/>
      <point x="73" y="565"/>
      <point x="28.3333" y="520"/>
      <point x="28.3333" y="455" type="curve" smooth="yes"/>
      <point x="28.3333" y="395"/>
      <point x="72.6667" y="350"/>
    </contour>
    <contour>
      <point x="178.333" y="423.333" type="curve" smooth="yes"/>
      <point x="150" y="423.333"/>
      <point x="135" y="436.667"/>
      <point x="135" y="458.333" type="curve" smooth="yes"/>
      <point x="135" y="482"/>
      <point x="151.667" y="495"/>
      <point x="186.667" y="495" type="curve" smooth="yes"/>
      <point x="228.333" y="495" type="line"/>
      <point x="228.333" y="450" type="line"/>
      <point x="224" y="444.667"/>
      <point x="219.667" y="439.667"/>
      <point x="214" y="436.333" type="curve"/>
      <point x="205" y="429"/>
      <point x="192" y="423.333"/>
    </contour>
  </outline>
</glyph>
<glyph name="guillemetleft" format="2">
  <advance width="505"/>
  <unicode hex="00AB"/>
  <outline>
    <contour>
      <point x="307.333" y="66.6667" type="line"/>
      <point x="150" y="250" type="line"/>
      <point x="307.333" y="433.333" type="line"/>
      <point x="231.667" y="503.333" type="line"/>
      <point x="10" y="250" type="line"/>
      <point x="231.667" y="-3.33333" type="line"/>
    </contour>
    <contour>
      <point x="485" y="108.333" type="line"/>
      <point x="365" y="250" type="line"/>
      <point x="485" y="391.667" type="line"/>
      <point x="410" y="461.667" type="line"/>
      <point x="225" y="250" type="line"/>
      <point x="410" y="38.3333" type="line"/>
    </contour>
  </outline>
</glyph>
<glyph name="macron" format="2">
  <advance width="310"/>
  <unicode hex="00AF"/>
  <outline>
    <contour>
      <point x="296.667" y="576.667" type="line"/>
      <point x="296.667" y="660" type="line"/>
      <point x="13.3333" y="660" type="line"/>
      <point x="13.3333" y="576.667" type="line"/>
    </contour>
  </outline>
</glyph>
<glyph name="degree" format="2">
  <advance width="420"/>
  <unicode hex="00B0"/>
  <outline>
    <contour>
      <point x="210" y="370" type="curve" smooth="yes"/>
      <point x="320.667" y="370"/>
      <point x="390" y="440"/>
      <point x="390" y="540" type="curve" smooth="yes"/>
      <point x="390" y="640"/>
      <point x="320.667" y="710"/>
      <point x="210" y="710" type="curve" smooth="yes"/>
      <point x="99.3333" y="710"/>
      <point x="30" y="640"/>
      <point x="30" y="540" type="curve" smooth="yes"/>
      <point x="30" y="440"/>
      <point x="99.3333" y="370"/>
    </contour>
    <contour>
      <point x="210" y="445" type="curve" smooth="yes"/>
      <point x="168.333" y="445"/>
      <point x="136.667" y="476.333"/>
      <point x="136.667" y="540" type="curve" smooth="yes"/>
      <point x="136.667" y="603.667"/>
      <point x="168.333" y="635"/>
      <point x="210" y="635" type="curve" smooth="yes"/>
      <point x="251.667" y="635"/>
      <point x="283.333" y="603.667"/>
      <point x="283.333" y="540" type="curve" smooth="yes"/>
      <point x="283.333" y="476.333"/>
      <point x="251.667" y="445"/>
    </contour>
  </outline>
</glyph>
<glyph name="plusminus" format="2">
  <advance width="497"/>
  <unicode hex="00B1"/>
  <outline>
    <contour>
      <point x="460" y="81.6667" type="line"/>
      <point x="460" y="175" type="line"/>
      <point x="295" y="175" type="line"/>
      <point x="295" y="303.333" type="line"/>
      <point x="460" y="303.333" type="line"/>
      <point x="460" y="396.667" type="line"/>
      <point x="295" y="396.667" type="line"/>
      <point x="295" y="561.667" type="line"/>
      <point x="201.667" y="561.667" type="line"/>
      <point x="201.667" y="396.667" type="line"/>
      <point x="36.6667" y="396.667" type="line"/>
      <point x="36.6667" y="303.333" type="line"/>
      <point x="201.667" y="303.333" type="line"/>
      <point x="201.667" y="175" type="line"/>
      <point x="36.6667" y="175" type="line"/>
      <point x="36.6667" y="81.6667" type="line"/>
    </contour>
  </outline>
</glyph>
<glyph name="micro" format="2">
  <advance width="570"/>
  <unicode hex="00B5"/>
  <outline>
    <contour>
      <point x="161.667" y="-200" type="line"/>
      <point x="198.333" y="-163.333" type="line"/>
      <point x="198.333" y="20" type="line"/>
      <point x="204.667" y="14"/>
      <point x="212" y="9"/>
      <point x="219.667" y="5" type="curve"/>
      <point x="232.667" y="-3"/>
      <point x="251.667" y="-10"/>
      <point x="273.333" y="-10" type="curve" smooth="yes"/>
      <point x="312.333" y="-10"/>
      <point x="342" y="5.66667"/>
      <point x="362.333" y="23.3333" type="curve" smooth="yes"/>
      <point x="374" y="33"/>
      <point x="385" y="44.3333"/>
      <point x="393.333" y="56.6667" type="curve"/>
      <point x="398.333" y="56.6667" type="line"/>
      <point x="408.333" y="0" type="line"/>
      <point x="498.333" y="0" type="line"/>
      <point x="498.333" y="500" type="line"/>
      <point x="371.667" y="500" type="line"/>
      <point x="371.667" y="135" type="line"/>
      <point x="364" y="124.667"/>
      <point x="356" y="115"/>
      <point x="347" y="106.667" type="curve"/>
      <point x="330.667" y="92.3333"/>
      <point x="308.333" y="78.3333"/>
      <point x="280" y="78.3333" type="curve" smooth="yes"/>
      <point x="231.333" y="78.3333"/>
      <point x="198.333" y="111.333"/>
      <point x="198.333" y="173.333" type="curve" smooth="yes"/>
      <point x="198.333" y="500" type="line"/>
      <point x="71.6667" y="500" type="line"/>
      <point x="71.6667" y="-200" type="line"/>
    </contour>
  </outline>
</glyph>
<glyph name="paragraph" format="2">
  <advance width="575"/>
  <unicode hex="00B6"/>
  <outline>
    <contour>
      <point x="331.667" y="-200" type="line"/>
      <point x="331.667" y="616.667" type="line"/>
      <point x="388.333" y="616.667" type="line"/>
      <point x="388.333" y="-200" type="line"/>
      <point x="498.333" y="-200" type="line"/>
      <point x="498.333" y="616.667" type="line"/>
      <point x="565" y="616.667" type="line"/>
      <point x="565" y="700" type="line"/>
      <point x="221.667" y="700" type="line" smooth="yes"/>
      <point x="105.333" y="700"/>
      <point x="15" y="610.667"/>
      <point x="15" y="481.667" type="curve" smooth="yes"/>
      <point x="15" y="352.667"/>
      <point x="105.333" y="263.333"/>
      <point x="221.667" y="263.333" type="curve"/>
      <point x="221.667" y="-200" type="line"/>
    </contour>
  </outline>
</glyph>
<glyph name="periodcentered" format="2">
  <advance width="297"/>
  <unicode hex="00B7"/>
  <outline>
    <contour>
      <point x="148.333" y="280" type="curve" smooth="yes"/>
      <point x="186.667" y="280"/>
      <point x="218.333" y="311.667"/>
      <point x="218.333" y="350" type="curve" smooth="yes"/>
      <point x="218.333" y="388.333"/>
      <point x="186.667" y="420"/>
      <point x="148.333" y="420" type="curve" smooth="yes"/>
      <point x="110" y="420"/>
      <point x="78.3333" y="388.333"/>
      <point x="78.3333" y="350" type="curve" smooth="yes"/>
      <point x="78.3333" y="311.667"/>
      <point x="110" y="280"/>
    </contour>
  </outline>
</glyph>
<glyph name="cedilla" format="2">
  <advance width="208"/>
  <unicode hex="00B8"/>
  <outline>
    <contour>
      <point x="93.3333" y="-193.333" type="curve" smooth="yes"/>
      <point x="160.667" y="-193.333"/>
      <point x="198.333" y="-155"/>
      <point x="198.333" y="-110" type="curve" smooth="yes"/>
      <point x="198.333" y="-65"/>
      <point x="161" y="-26.6667"/>
      <point x="105" y="-26.6667" type="curve"/>
      <point x="105" y="20" type="line"/>
      <point x="35" y="20" type="line"/>
      <point x="35" y="-78.3333" type="line"/>
      <point x="81.6667" y="-78.3333" type="line" smooth="yes"/>
      <point x="105.333" y="-78.3333"/>
      <point x="120" y="-90"/>
      <point x="120" y="-110" type="curve" smooth="yes"/>
      <point x="120" y="-130"/>
      <point x="105" y="-141.667"/>
      <point x="83.3333" y="-141.667" type="curve" smooth="yes"/>
      <point x="58.3333" y="-141.667"/>
      <point x="37.3333" y="-126.667"/>
      <point x="38.3333" y="-126.667" type="curve"/>
      <point x="29.3333" y="-126.667" type="line"/>
      <point x="10" y="-173.333" type="line"/>
      <point x="16.6667" y="-177.333"/>
      <point x="24.3333" y="-180.333"/>
      <point x="33" y="-183.333" type="curve" smooth="yes"/>
      <point x="48" y="-188.333"/>
      <point x="68.3333" y="-193.333"/>
    </contour>
  </outline>
</glyph>
<glyph name="onesuperior" format="2">
  <advance width="318"/>
  <unicode hex="00B9"/>
  <outline>
    <contour>
      <point x="293.333" y="360" type="line"/>
      <point x="293.333" y="433.333" type="line"/>
      <point x="221.667" y="433.333" type="line"/>
      <point x="221.667" y="700" type="line"/>
      <point x="120" y="700" type="line"/>
      <point x="25" y="620" type="line"/>
      <point x="58.3333" y="571.667" type="line"/>
      <point x="111.667" y="600" type="line"/>
      <point x="111.667" y="433.333" type="line"/>
      <point x="40" y="433.333" type="line"/>
      <point x="40" y="360" type="line"/>
    </contour>
  </outline>
</glyph>
<glyph name="guillemetright" format="2">
  <advance width="505"/>
  <unicode hex="00BB"/>
  <outline>
    <contour>
      <point x="495" y="250" type="line"/>
      <point x="273.333" y="503.333" type="line"/>
      <point x="197.667" y="433.333" type="line"/>
      <point x="355" y="250" type="line"/>
      <point x="197.667" y="66.6667" type="line"/>
      <point x="273.333" y="-3.33333" type="line"/>
    </contour>
    <contour>
      <point x="280" y="250" type="line"/>
      <point x="95" y="461.667" type="line"/>
      <point x="20" y="391.667" type="line"/>
      <point x="140" y="250" type="line"/>
      <point x="20" y="108.333" type="line"/>
      <point x="95" y="38.3333" type="line"/>
    </contour>
  </outline>
</glyph>
<glyph name="AE" format="2">
  <advance width="835"/>
  <unicode hex="00C6"/>
  <outline>
    <contour>
      <point x="103.333" y="0" type="line"/>
      <point x="185" y="193.333" type="line"/>
      <point x="398.333" y="193.333" type="line"/>
      <point x="398.333" y="0" type="line"/>
      <point x="808.333" y="0" type="line"/>
      <point x="808.333" y="83.3333" type="line"/>
      <point x="525" y="83.3333" type="line"/>
      <point x="525" y="323.333" type="line"/>
      <point x="748.333" y="323.333" type="line"/>
      <point x="748.333" y="406.667" type="line"/>
      <point x="525" y="406.667" type="line"/>
      <point x="525" y="616.667" type="line"/>
      <point x="808.333" y="616.667" type="line"/>
      <point x="808.333" y="700" type="line"/>
      <point x="271.667" y="700" type="line"/>
      <point x="-23.3333" y="0" type="line"/>
    </contour>
    <contour>
      <point x="361.667" y="616.667" type="line"/>
      <point x="398.333" y="616.667" type="line"/>
      <point x="398.333" y="276.667" type="line"/>
      <point x="221.667" y="276.667" type="line"/>
    </contour>
  </outline>
</glyph>
<glyph name="Oslash" format="2">
  <advance width="620"/>
  <unicode hex="00D8"/>
  <outline>
    <contour>
      <point x="310" y="-10" type="curve" smooth="yes"/>
      <point x="465" y="-10"/>
      <point x="568.333" y="93.3333"/>
      <point x="568.333" y="350" type="curve" smooth="yes"/>
      <point x="568.333" y="464.333"/>
      <point x="547.667" y="547.667"/>
      <point x="511.667" y="606" type="curve"/>
      <point x="566.667" y="700" type="line"/>
      <point x="463.333" y="700" type="line"/>
      <point x="446.667" y="672.333" type="line"/>
      <point x="409.333" y="697.667"/>
      <point x="363.667" y="710"/>
      <point x="310" y="710" type="curve" smooth="yes"/>
      <point x="155" y="710"/>
      <point x="51.6667" y="606.667"/>
      <point x="51.6667" y="350" type="curve" smooth="yes"/>
      <point x="51.6667" y="235"/>
      <point x="71.6667" y="152.667"/>
      <point x="108.333" y="93.6667" type="curve"/>
      <point x="53.3333" y="0" type="line"/>
      <point x="156.667" y="0" type="line"/>
      <point x="172.667" y="27.6667" type="line"/>
      <point x="211.667" y="2"/>
      <point x="257" y="-10"/>
    </contour>
    <contour>
      <point x="310" y="73.3333" type="curve" smooth="yes"/>
      <point x="279" y="73.3333"/>
      <point x="250.667" y="85.3333"/>
      <point x="226.333" y="119" type="curve"/>
      <point x="432.333" y="470.333" type="line"/>
      <point x="438.667" y="437.667"/>
      <point x="441.667" y="397.333"/>
      <point x="441.667" y="350" type="curve" smooth="yes"/>
      <point x="441.667" y="136"/>
      <point x="378.333" y="73.3333"/>
    </contour>
    <contour>
      <point x="187.667" y="228.667" type="line"/>
      <point x="181.333" y="261.667"/>
      <point x="178.333" y="301.333"/>
      <point x="178.333" y="350" type="curve" smooth="yes"/>
      <point x="178.333" y="564"/>
      <point x="241.667" y="626.667"/>
      <point x="310" y="626.667" type="curve" smooth="yes"/>
      <point x="340.333" y="626.667"/>
      <point x="368.667" y="614.333"/>
      <point x="393" y="580.667" type="curve"/>
    </contour>
  </outline>
</glyph>
<glyph name="Thorn" format="2">
  <advance width="635"/>
  <unicode hex="00DE"/>
  <outline>
    <contour>
      <point x="213.333" y="-20" type="line"/>
      <point x="213.333" y="53.3333" type="line"/>
      <point x="290" y="53.3333" type="line" smooth="yes"/>
      <point x="482.333" y="53.3333"/>
      <point x="593.333" y="165"/>
      <point x="593.333" y="350" type="curve" smooth="yes"/>
      <point x="593.333" y="535"/>
      <point x="482.333" y="646.667"/>
      <point x="290" y="646.667" type="curve" smooth="yes"/>
      <point x="213.333" y="646.667" type="line"/>
      <point x="213.333" y="720" type="line"/>
      <point x="86.6667" y="720" type="line"/>
      <point x="86.6667" y="-20" type="line"/>
    </contour>
    <contour>
      <point x="213.333" y="563.333" type="line"/>
      <point x="290" y="563.333" type="line" smooth="yes"/>
      <point x="395.333" y="563.333"/>
      <point x="466.667" y="491.667"/>
      <point x="466.667" y="350" type="curve" smooth="yes"/>
      <point x="466.667" y="208.333"/>
      <point x="395.333" y="136.667"/>
      <point x="290" y="136.667" type="curve" smooth="yes"/>
      <point x="213.333" y="136.667" type="line"/>
    </contour>
  </outline>
</glyph>
<glyph name="germandbls" format="2">
  <advance width="620"/>
  <unicode hex="00DF"/>
  <outline>
    <contour>
      <point x="386.667" y="-10" type="curve" smooth="yes"/>
      <point x="520.333" y="-10"/>
      <point x="595" y="65.3333"/>
      <point x="595" y="173.333" type="curve" smooth="yes"/>
      <point x="595" y="323.333"/>
      <point x="410" y="335"/>
      <point x="410" y="430" type="curve" smooth="yes"/>
      <point x="410" y="480.333"/>
      <point x="456.667" y="502.333"/>
      <point x="456.667" y="563.333" type="curve" smooth="yes"/>
      <point x="456.667" y="640"/>
      <point x="387" y="710"/>
      <point x="261.667" y="710" type="curve" smooth="yes"/>
      <point x="155.667" y="710"/>
      <point x="83.3333" y="638.667"/>
      <point x="83.3333" y="550" type="curve" smooth="yes"/>
      <point x="83.3333" y="496.667" type="line"/>
      <point x="25" y="496.667" type="line"/>
      <point x="25" y="413.333" type="line"/>
      <point x="83.3333" y="413.333" type="line"/>
      <point x="83.3333" y="0" type="line"/>
      <point x="210" y="0" type="line"/>
      <point x="210" y="550" type="line" smooth="yes"/>
      <point x="210" y="600"/>
      <point x="236" y="626.667"/>
      <point x="271.667" y="626.667" type="curve" smooth="yes"/>
      <point x="304" y="626.667"/>
      <point x="330" y="600"/>
      <point x="330" y="563.333" type="curve" smooth="yes"/>
      <point x="330" y="513"/>
      <point x="293.333" y="487"/>
      <point x="293.333" y="430" type="curve" smooth="yes"/>
      <point x="293.333" y="287.333"/>
      <point x="468.333" y="274.667"/>
      <point x="468.333" y="170" type="curve" smooth="yes"/>
      <point x="468.333" y="106.333"/>
      <point x="436.333" y="73.3333"/>
      <point x="376.667" y="73.3333" type="curve" smooth="yes"/>
      <point x="356.667" y="73.3333"/>
      <point x="339.667" y="78.3333"/>
      <point x="328.667" y="85.3333" type="curve"/>
      <point x="321.667" y="88.3333"/>
      <point x="316.667" y="93.3333"/>
      <point x="311.667" y="98.3333" type="curve"/>
      <point x="301.667" y="98.3333" type="line"/>
      <point x="270" y="20" type="line"/>
      <point x="280" y="14"/>
      <point x="290.667" y="9"/>
      <point x="302.333" y="5" type="curve"/>
      <point x="322.667" y="-3"/>
      <point x="351.667" y="-10"/>
    </contour>
  </outline>
</glyph>
<glyph name="iacute" format="2">
  <advance width="274"/>
  <unicode hex="00ED"/>
  <outline>
    <contour>
      <point x="198.333" y="0" type="line"/>
      <point x="198.333" y="500" type="line"/>
      <point x="71.6667" y="500" type="line"/>
      <point x="71.6667" y="0" type="line"/>
    </contour>
    <contour>
      <point x="162" y="550" type="line"/>
      <point x="258.667" y="700" type="line"/>
      <point x="132" y="700" type="line"/>
      <point x="87" y="550" type="line"/>
    </contour>
  </outline>
</glyph>
<glyph name="idieresis" format="2">
  <advance width="287"/>
  <unicode hex="00EF"/>
  <outline>
    <contour>
      <point x="206.667" y="0" type="line"/>
      <point x="206.667" y="500" type="line"/>
      <point x="80" y="500" type="line"/>
      <point x="80" y="0" type="line"/>
    </contour>
    <contour>
      <point x="46.6667" y="568.333" type="curve" smooth="yes"/>
      <point x="82" y="568.333"/>
      <point x="111.667" y="598"/>
      <point x="111.667" y="633.333" type="curve" smooth="yes"/>
      <point x="111.667" y="668.667"/>
      <point x="82" y="698.333"/>
      <point x="46.6667" y="698.333" type="curve" smooth="yes"/>
      <point x="11.3333" y="698.333"/>
      <point x="-18.3333" y="668.667"/>
      <point x="-18.3333" y="633.333" type="curve" smooth="yes"/>
      <point x="-18.3333" y="598"/>
      <point x="11.3333" y="568.333"/>
    </contour>
    <contour>
      <point x="235" y="568.333" type="curve" smooth="yes"/>
      <point x="270.333" y="568.333"/>
      <point x="300" y="598"/>
      <point x="300" y="633.333" type="curve" smooth="yes"/>
      <point x="300" y="668.667"/>
      <point x="270.333" y="698.333"/>
      <point x="235" y="698.333" type="curve" smooth="yes"/>
      <point x="199.667" y="698.333"/>
      <point x="170" y="668.667"/>
      <point x="170" y="633.333" type="curve" smooth="yes"/>
      <point x="170" y="598"/>
      <point x="199.667" y="568.333"/>
    </contour>
  </outline>
</glyph>
<glyph name="divide" format="2">
  <advance width="470"/>
  <unicode hex="00F7"/>
  <outline>
    <contour>
      <point x="440" y="283.333" type="line"/>
      <point x="440" y="376.667" type="line"/>
      <point x="30" y="376.667" type="line"/>
      <point x="30" y="283.333" type="line"/>
    </contour>
    <contour>
      <point x="235" y="86.6667" type="curve" smooth="yes"/>
      <point x="273.333" y="86.6667"/>
      <point x="305" y="118.333"/>
      <point x="305" y="156.667" type="curve" smooth="yes"/>
      <point x="305" y="195"/>
      <point x="273.333" y="226.667"/>
      <point x="235" y="226.667" type="curve" smooth="yes"/>
      <point x="196.667" y="226.667"/>
      <point x="165" y="195"/>
      <point x="165" y="156.667" type="curve" smooth="yes"/>
      <point x="165" y="118.333"/>
      <point x="196.667" y="86.6667"/>
    </contour>
    <contour>
      <point x="235" y="433.333" type="curve" smooth="yes"/>
      <point x="273.333" y="433.333"/>
      <point x="305" y="465"/>
      <point x="305" y="503.333" type="curve" smooth="yes"/>
      <point x="305" y="541.667"/>
      <point x="273.333" y="573.333"/>
      <point x="235" y="573.333" type="curve" smooth="yes"/>
      <point x="196.667" y="573.333"/>
      <point x="165" y="541.667"/>
      <point x="165" y="503.333" type="curve" smooth="yes"/>
      <point x="165" y="465"/>
      <point x="196.667" y="433.333"/>
    </contour>
  </outline>
</glyph>
<glyph name="thorn" format="2">
  <advance width="553"/>
  <unicode hex="00FE"/>
  <outline>
    <contour>
      <point x="200" y="-200" type="line"/>
      <point x="200" y="20" type="line"/>
      <point x="207.667" y="14"/>
      <point x="217.333" y="9"/>
      <point x="228.667" y="5" type="curve"/>
      <point x="246.667" y="-3"/>
      <point x="272.333" y="-10"/>
      <point x="303.333" y="-10" type="curve" smooth="yes"/>
      <point x="425" y="-10"/>
      <point x="510" y="75"/>
      <point x="510" y="250" type="curve" smooth="yes"/>
      <point x="510" y="425"/>
      <point x="425" y="510"/>
      <point x="303.333" y="510" type="curve" smooth="yes"/>
      <point x="272.333" y="510"/>
      <point x="246.667" y="502"/>
      <point x="228.667" y="495" type="curve"/>
      <point x="217.333" y="490"/>
      <point x="207.667" y="485"/>
      <point x="200" y="480" type="curve"/>
      <point x="200" y="700" type="line"/>
      <point x="110" y="700" type="line"/>
      <point x="73.3333" y="663.333" type="line"/>
      <point x="73.3333" y="-200" type="line"/>
    </contour>
    <contour>
      <point x="281.667" y="73.3333" type="curve" smooth="yes"/>
      <point x="257" y="73.3333"/>
      <point x="237.333" y="79.6667"/>
      <point x="223" y="86.6667" type="curve" smooth="yes"/>
      <point x="215" y="90.3333"/>
      <point x="207.333" y="94.6667"/>
      <point x="200" y="100" type="curve"/>
      <point x="200" y="400" type="line"/>
      <point x="204.838" y="402.884"/>
      <point x="217.132" y="410.523"/>
      <point x="223" y="413.333" type="curve"/>
      <point x="237.333" y="419.667"/>
      <point x="257" y="426.667"/>
      <point x="281.667" y="426.667" type="curve" smooth="yes"/>
      <point x="339.667" y="426.667"/>
      <point x="383.333" y="383.333"/>
      <point x="383.333" y="250" type="curve" smooth="yes"/>
      <point x="383.333" y="116.667"/>
      <point x="339.667" y="73.3333"/>
    </contour>
  </outline>
</glyph>
<glyph name="dcaron" format="2">
  <advance width="652"/>
  <unicode hex="010F"/>
  <outline>
    <contour>
      <point x="236.667" y="-10" type="curve" smooth="yes"/>
      <point x="283.667" y="-10"/>
      <point x="317.333" y="6"/>
      <point x="340.667" y="25" type="curve"/>
      <point x="354" y="35"/>
      <point x="365.333" y="47"/>
      <point x="375" y="60" type="curve"/>
      <point x="380" y="60" type="line"/>
      <point x="390" y="0" type="line"/>
      <point x="480" y="0" type="line"/>
      <point x="480" y="700" type="line"/>
      <point x="390" y="700" type="line"/>
      <point x="353.333" y="663.333" type="line"/>
      <point x="353.333" y="480" type="line"/>
      <point x="323.667" y="495" type="line"/>
      <point x="304.333" y="502"/>
      <point x="281" y="510"/>
      <point x="250" y="510" type="curve" smooth="yes"/>
      <point x="128.333" y="510"/>
      <point x="43.3333" y="425"/>
      <point x="43.3333" y="250" type="curve" smooth="yes"/>
      <point x="43.3333" y="75"/>
      <point x="128.333" y="-10"/>
    </contour>
    <contour>
      <point x="261.667" y="78.3333" type="curve" smooth="yes"/>
      <point x="213" y="78.3333"/>
      <point x="170" y="121.667"/>
      <point x="170" y="250" type="curve" smooth="yes"/>
      <point x="170" y="383.333"/>
      <point x="213.667" y="426.667"/>
      <point x="271.667" y="426.667" type="curve" smooth="yes"/>
      <point x="296" y="426.667"/>
      <point x="316" y="419.667"/>
      <point x="330.333" y="413.333" type="curve"/>
      <point x="336.201" y="410.523"/>
      <point x="348.495" y="402.884"/>
      <point x="353.333" y="400" type="curve"/>
      <point x="353.333" y="138.333" type="line"/>
      <point x="345.667" y="127.333"/>
      <point x="337.667" y="117.333"/>
      <point x="328.667" y="108.333" type="curve"/>
      <point x="312.333" y="93.3333"/>
      <point x="290" y="78.3333"/>
    </contour>
    <contour>
      <point x="561.667" y="484" type="line"/>
      <point x="576.667" y="493"/>
      <point x="589.667" y="505"/>
      <point x="601.667" y="520" type="curve" smooth="yes"/>
      <point x="621.667" y="545"/>
      <point x="641.667" y="583"/>
      <point x="641.667" y="636" type="curve" smooth="yes"/>
      <point x="641.667" y="675"/>
      <point x="616.667" y="700"/>
      <point x="581.667" y="700" type="curve" smooth="yes"/>
      <point x="556.667" y="700"/>
      <point x="531.667" y="676"/>
      <point x="531.667" y="645" type="curve" smooth="yes"/>
      <point x="531.667" y="614"/>
      <point x="556.667" y="590"/>
      <point x="581.667" y="590" type="curve"/>
      <point x="581.667" y="570"/>
      <point x="568.667" y="552"/>
      <point x="556.667" y="537" type="curve"/>
      <point x="549.667" y="529"/>
      <point x="540.667" y="522"/>
      <point x="531.667" y="515" type="curve"/>
    </contour>
  </outline>
</glyph>
<glyph name="imacron" format="2">
  <advance width="277"/>
  <unicode hex="012B"/>
  <outline>
    <contour>
      <point x="201.667" y="0" type="line"/>
      <point x="201.667" y="500" type="line"/>
      <point x="75" y="500" type="line"/>
      <point x="75" y="0" type="line"/>
    </contour>
    <contour>
      <point x="280" y="566.667" type="line"/>
      <point x="280" y="650" type="line"/>
      <point x="-3.33333" y="650" type="line"/>
      <point x="-3.33333" y="566.667" type="line"/>
    </contour>
  </outline>
</glyph>
<glyph name="ij" format="2">
  <advance width="525"/>
  <unicode hex="0133"/>
  <outline>
    <contour>
      <point x="268.333" y="-200" type="curve" smooth="yes"/>
      <point x="385" y="-200"/>
      <point x="453.333" y="-132"/>
      <point x="453.333" y="-33.3333" type="curve" smooth="yes"/>
      <point x="453.333" y="500" type="line"/>
      <point x="71.6667" y="500" type="line"/>
      <point x="71.6667" y="0" type="line"/>
      <point x="198.333" y="0" type="line"/>
      <point x="198.333" y="416.667" type="line"/>
      <point x="326.667" y="416.667" type="line"/>
      <point x="326.667" y="-33.3333" type="line" smooth="yes"/>
      <point x="326.667" y="-90.6667"/>
      <point x="300" y="-116.667"/>
      <point x="258.333" y="-116.667" type="curve" smooth="yes"/>
      <point x="243.333" y="-116.667"/>
      <point x="230.333" y="-111.667"/>
      <point x="219.333" y="-104.667" type="curve"/>
      <point x="213.333" y="-101.667"/>
      <point x="208.333" y="-96.6667"/>
      <point x="203.333" y="-91.6667" type="curve"/>
      <point x="193.333" y="-91.6667" type="line"/>
      <point x="161.667" y="-170" type="line"/>
      <point x="170" y="-176"/>
      <point x="180.333" y="-181"/>
      <point x="192" y="-185" type="curve"/>
      <point x="211" y="-193"/>
      <point x="237.333" y="-200"/>
    </contour>
    <contour>
      <point x="135" y="570" type="curve" smooth="yes"/>
      <point x="173.333" y="570"/>
      <point x="205" y="601.667"/>
      <point x="205" y="640" type="curve" smooth="yes"/>
      <point x="205" y="678.333"/>
      <point x="173.333" y="710"/>
      <point x="135" y="710" type="curve" smooth="yes"/>
      <point x="96.6667" y="710"/>
      <point x="65" y="678.333"/>
      <point x="65" y="640" type="curve" smooth="yes"/>
      <point x="65" y="601.667"/>
      <point x="96.6667" y="570"/>
    </contour>
    <contour>
      <point x="390" y="570" type="curve" smooth="yes"/>
      <point x="428.333" y="570"/>
      <point x="460" y="601.667"/>
      <point x="460" y="640" type="curve" smooth="yes"/>
      <point x="460" y="678.333"/>
      <point x="428.333" y="710"/>
      <point x="390" y="710" type="curve" smooth="yes"/>
      <point x="351.667" y="710"/>
      <point x="320" y="678.333"/>
      <point x="320" y="640" type="curve" smooth="yes"/>
      <point x="320" y="601.667"/>
      <point x="351.667" y="570"/>
    </contour>
  </outline>
</glyph>
<glyph name="lcaron" format="2">
  <advance width="395"/>
  <unicode hex="013E"/>
  <outline>
    <contour>
      <point x="198.333" y="0" type="line"/>
      <point x="198.333" y="700" type="line"/>
      <point x="108.333" y="700" type="line"/>
      <point x="71.6667" y="663.333" type="line"/>
      <point x="71.6667" y="0" type="line"/>
    </contour>
    <contour>
      <point x="301.667" y="468" type="line"/>
      <point x="317.333" y="477.667"/>
      <point x="331" y="490.333"/>
      <point x="343" y="506" type="curve" smooth="yes"/>
      <point x="363.667" y="532.333"/>
      <point x="385" y="571.667"/>
      <point x="385" y="628.667" type="curve" smooth="yes"/>
      <point x="385" y="673"/>
      <point x="358.667" y="700"/>
      <point x="318.333" y="700" type="curve" smooth="yes"/>
      <point x="288.667" y="700"/>
      <point x="261.667" y="673.333"/>
      <point x="261.667" y="638.333" type="curve" smooth="yes"/>
      <point x="261.667" y="606.667"/>
      <point x="288" y="580"/>
      <point x="325" y="580" type="curve"/>
      <point x="325" y="558"/>
      <point x="312" y="539.333"/>
      <point x="298" y="524.333" type="curve"/>
      <point x="290.333" y="515.667"/>
      <point x="281.333" y="508"/>
      <point x="271.667" y="501" type="curve"/>
    </contour>
  </outline>
</glyph>
<glyph name="Lslash" format="2">
  <advance width="497"/>
  <unicode hex="0141"/>
  <outline>
    <contour>
      <point x="487.333" y="0" type="line"/>
      <point x="487.333" y="83.3333" type="line"/>
      <point x="214" y="83.3333" type="line"/>
      <point x="214" y="350.333" type="line"/>
      <point x="311.667" y="423.333" type="line"/>
      <point x="311.667" y="546.667" type="line"/>
      <point x="214" y="473.667" type="line"/>
      <point x="214" y="700" type="line"/>
      <point x="87.3333" y="700" type="line"/>
      <point x="87.3333" y="380" type="line"/>
      <point x="28.3333" y="336.667" type="line"/>
      <point x="28.3333" y="213.333" type="line"/>
      <point x="87.3333" y="256.667" type="line"/>
      <point x="87.3333" y="0" type="line"/>
    </contour>
  </outline>
</glyph>
<glyph name="OE" format="2">
  <advance width="828"/>
  <unicode hex="0152"/>
  <outline>
    <contour>
      <point x="801.667" y="0" type="line"/>
      <point x="801.667" y="83.3333" type="line"/>
      <point x="525" y="83.3333" type="line"/>
      <point x="525" y="323.333" type="line"/>
      <point x="741.667" y="323.333" type="line"/>
      <point x="741.667" y="406.667" type="line"/>
      <point x="525" y="406.667" type="line"/>
      <point x="525" y="616.667" type="line"/>
      <point x="801.667" y="616.667" type="line"/>
      <point x="801.667" y="700" type="line"/>
      <point x="361.667" y="700" type="line" smooth="yes"/>
      <point x="157.667" y="700"/>
      <point x="51.6667" y="593.667"/>
      <point x="51.6667" y="350" type="curve" smooth="yes"/>
      <point x="51.6667" y="106.333"/>
      <point x="157.667" y="0"/>
      <point x="361.667" y="0" type="curve" smooth="yes"/>
    </contour>
    <contour>
      <point x="361.667" y="83.3333" type="line" smooth="yes"/>
      <point x="241" y="83.3333"/>
      <point x="178.333" y="146.333"/>
      <point x="178.333" y="350" type="curve" smooth="yes"/>
      <point x="178.333" y="553.667"/>
      <point x="241" y="616.667"/>
      <point x="361.667" y="616.667" type="curve" smooth="yes"/>
      <point x="398.333" y="616.667" type="line"/>
      <point x="398.333" y="83.3333" type="line"/>
    </contour>
  </outline>
</glyph>
<glyph name="circumflex" format="2">
  <advance width="333"/>
  <unicode hex="02C6"/>
  <outline>
    <contour>
      <point x="98.3333" y="560" type="line"/>
      <point x="166.667" y="628.333" type="line"/>
      <point x="235" y="560" type="line"/>
      <point x="320" y="560" type="line"/>
      <point x="211.667" y="692.667" type="line"/>
      <point x="121.667" y="692.667" type="line"/>
      <point x="13.3333" y="560" type="line"/>
    </contour>
  </outline>
</glyph>
<glyph name="caron" format="2">
  <advance width="333"/>
  <unicode hex="02C7"/>
  <outline>
    <contour>
      <point x="211.667" y="564" type="line"/>
      <point x="320" y="696.667" type="line"/>
      <point x="235" y="696.667" type="line"/>
      <point x="166.667" y="628.333" type="line"/>
      <point x="98.3333" y="696.667" type="line"/>
      <point x="13.3333" y="696.667" type="line"/>
      <point x="121.667" y="564" type="line"/>
    </contour>
  </outline>
</glyph>
<glyph name="tilde" format="2">
  <advance width="318"/>
  <unicode hex="02DC"/>
  <outline>
    <contour>
      <point x="215" y="583.333" type="curve" smooth="yes"/>
      <point x="265.333" y="583.333"/>
      <point x="300" y="629.333"/>
      <point x="308.333" y="678.333" type="curve"/>
      <point x="257.667" y="706.667" type="line"/>
      <point x="248.667" y="706.667" type="line"/>
      <point x="249.667" y="705.667"/>
      <point x="232.667" y="665.667"/>
      <point x="206.667" y="666.667" type="curve"/>
      <point x="173.333" y="666.667"/>
      <point x="156.667" y="711.667"/>
      <point x="103.333" y="711.667" type="curve" smooth="yes"/>
      <point x="52.3333" y="711.667"/>
      <point x="18.6667" y="665.667"/>
      <point x="10" y="616.667" type="curve"/>
      <point x="60.6667" y="588.333" type="line"/>
      <point x="69.6667" y="588.333" type="line"/>
      <point x="68.6667" y="587.333"/>
      <point x="84.3333" y="627.333"/>
      <point x="111.667" y="628.333" type="curve"/>
      <point x="145" y="628.333"/>
      <point x="161.667" y="583.333"/>
    </contour>
  </outline>
</glyph>
<glyph name="strokeshortcomb" format="2">
  <advance width="447"/>
  <unicode hex="0335"/>
  <anchor x="196.667" y="335" name="_center"/>
  <outline>
    <contour>
      <point x="350" y="293.333" type="line"/>
      <point x="350" y="376.667" type="line"/>
      <point x="43.3333" y="376.667" type="line"/>
      <point x="43.3333" y="293.333" type="line"/>
    </contour>
  </outline>
</glyph>
<glyph name="Dje-cy" format="2">
  <advance width="660"/>
  <unicode hex="0402"/>
  <outline>
    <contour>
      <point x="435" y="-30" type="curve" smooth="yes"/>
      <point x="542.667" y="-30"/>
      <point x="610" y="38"/>
      <point x="610" y="136.667" type="curve" smooth="yes"/>
      <point x="610" y="255" type="line" smooth="yes"/>
      <point x="610" y="376.667"/>
      <point x="531" y="456.667"/>
      <point x="386.667" y="456.667" type="curve" smooth="yes"/>
      <point x="350" y="456.667"/>
      <point x="318.333" y="452.667"/>
      <point x="296" y="448.667" type="curve"/>
      <point x="285.625" y="446.251"/>
      <point x="269.48" y="443.376"/>
      <point x="260" y="441.667" type="curve"/>
      <point x="260" y="616.667" type="line"/>
      <point x="433.333" y="616.667" type="line"/>
      <point x="433.333" y="700" type="line"/>
      <point x="0" y="700" type="line"/>
      <point x="0" y="616.667" type="line"/>
      <point x="133.333" y="616.667" type="line"/>
      <point x="133.333" y="0" type="line"/>
      <point x="260" y="0" type="line"/>
      <point x="260" y="358.333" type="line"/>
      <point x="289" y="365.333" type="line" smooth="yes"/>
      <point x="307.333" y="369.333"/>
      <point x="332" y="373.333"/>
      <point x="361.667" y="373.333" type="curve" smooth="yes"/>
      <point x="441.333" y="373.333"/>
      <point x="483.333" y="331.667"/>
      <point x="483.333" y="255" type="curve" smooth="yes"/>
      <point x="483.333" y="136.667" type="line" smooth="yes"/>
      <point x="483.333" y="79.3333"/>
      <point x="457.333" y="53.3333"/>
      <point x="421.667" y="53.3333" type="curve" smooth="yes"/>
      <point x="409" y="53.3333"/>
      <point x="397.667" y="55.3333"/>
      <point x="387.667" y="58.3333" type="curve"/>
      <point x="382.667" y="59.3333"/>
      <point x="377.667" y="61.3333"/>
      <point x="373.333" y="63.3333" type="curve"/>
      <point x="363.333" y="63.3333" type="line"/>
      <point x="350" y="-11.6667" type="line"/>
      <point x="357.333" y="-15.3333"/>
      <point x="365.667" y="-18"/>
      <point x="374.667" y="-21" type="curve"/>
      <point x="390" y="-25.6667"/>
      <point x="410.667" y="-30"/>
    </contour>
  </outline>
</glyph>
<glyph name="Nje-cy" format="2">
  <advance width="913"/>
  <unicode hex="040A"/>
  <outline>
    <contour>
      <point x="213.333" y="0" type="line"/>
      <point x="213.333" y="343.333" type="line"/>
      <point x="423.333" y="343.333" type="line"/>
      <point x="423.333" y="0" type="line"/>
      <point x="626.667" y="0" type="line" smooth="yes"/>
      <point x="807.667" y="0"/>
      <point x="888.333" y="79.6667"/>
      <point x="888.333" y="213.333" type="curve" smooth="yes"/>
      <point x="888.333" y="346.333"/>
      <point x="807.667" y="426.667"/>
      <point x="626.667" y="426.667" type="curve" smooth="yes"/>
      <point x="550" y="426.667" type="line"/>
      <point x="550" y="700" type="line"/>
      <point x="423.333" y="700" type="line"/>
      <point x="423.333" y="426.667" type="line"/>
      <point x="213.333" y="426.667" type="line"/>
      <point x="213.333" y="700" type="line"/>
      <point x="86.6667" y="700" type="line"/>
      <point x="86.6667" y="0" type="line"/>
    </contour>
    <contour>
      <point x="550" y="343.333" type="line"/>
      <point x="626.667" y="343.333" type="line" smooth="yes"/>
      <point x="719.333" y="343.333"/>
      <point x="761.667" y="300.333"/>
      <point x="761.667" y="213.333" type="curve" smooth="yes"/>
      <point x="761.667" y="126.333"/>
      <point x="719.333" y="83.3333"/>
      <point x="626.667" y="83.3333" type="curve" smooth="yes"/>
      <point x="550" y="83.3333" type="line"/>
    </contour>
  </outline>
</glyph>
<glyph name="Dzhe-cy" format="2">
  <advance width="650"/>
  <unicode hex="040F"/>
  <outline>
    <contour>
      <point x="371.667" y="-150" type="line"/>
      <point x="385" y="0" type="line"/>
      <point x="563.333" y="0" type="line"/>
      <point x="563.333" y="700" type="line"/>
      <point x="436.667" y="700" type="line"/>
      <point x="436.667" y="83.3333" type="line"/>
      <point x="213.333" y="83.3333" type="line"/>
      <point x="213.333" y="700" type="line"/>
      <point x="86.6667" y="700" type="line"/>
      <point x="86.6667" y="0" type="line"/>
      <point x="265" y="0" type="line"/>
      <point x="278.333" y="-150" type="line"/>
    </contour>
  </outline>
</glyph>
<glyph name="A-cy" format="2">
  <advance width="590"/>
  <unicode hex="0410"/>
  <anchor x="295" y="700" name="top"/>
  <outline>
    <contour>
      <point x="141.667" y="0" type="line"/>
      <point x="190" y="166.667" type="line"/>
      <point x="400" y="166.667" type="line"/>
      <point x="448.333" y="0" type="line"/>
      <point x="575" y="0" type="line"/>
      <point x="370" y="700" type="line"/>
      <point x="220" y="700" type="line"/>
      <point x="15" y="0" type="line"/>
    </contour>
    <contour>
      <point x="280" y="481.667" type="line" smooth="yes"/>
      <point x="284" y="496.667"/>
      <point x="286.333" y="514.667"/>
      <point x="289.333" y="529.667" type="curve"/>
      <point x="293" y="555" type="line"/>
      <point x="297" y="555" type="line"/>
      <point x="300" y="530" type="line"/>
      <point x="303" y="515"/>
      <point x="305" y="497.333"/>
      <point x="310" y="481.667" type="curve"/>
      <point x="376.667" y="250" type="line"/>
      <point x="213.333" y="250" type="line"/>
    </contour>
  </outline>
</glyph>
<glyph name="Zhe-cy" format="2">
  <advance width="887"/>
  <unicode hex="0416"/>
  <anchor x="674.333" y="0" name="bottomright"/>
  <anchor x="443.333" y="700" name="top"/>
  <outline>
    <contour>
      <point x="101.667" y="-10" type="curve" smooth="yes"/>
      <point x="170.667" y="-10"/>
      <point x="211" y="32.6667"/>
      <point x="223.333" y="90" type="curve" smooth="yes"/>
      <point x="258.333" y="250" type="line"/>
      <point x="269.333" y="295"/>
      <point x="291.333" y="318.333"/>
      <point x="338.333" y="318.333" type="curve" smooth="yes"/>
      <point x="380" y="318.333" type="line"/>
      <point x="380" y="0" type="line"/>
      <point x="506.667" y="0" type="line"/>
      <point x="506.667" y="318.333" type="line"/>
      <point x="548.333" y="318.333" type="line" smooth="yes"/>
      <point x="595.333" y="318.333"/>
      <point x="617.333" y="295"/>
      <point x="628.333" y="250" type="curve"/>
      <point x="663.333" y="90" type="line" smooth="yes"/>
      <point x="675.667" y="32.6667"/>
      <point x="716" y="-10"/>
      <point x="785" y="-10" type="curve" smooth="yes"/>
      <point x="813" y="-10"/>
      <point x="835.667" y="-7.33333"/>
      <point x="861.667" y="3.33333" type="curve"/>
      <point x="851.667" y="78.3333" type="line"/>
      <point x="846.667" y="78.3333" type="line"/>
      <point x="840" y="74.3333"/>
      <point x="836" y="73.3333"/>
      <point x="827.333" y="73.3333" type="curve" smooth="yes"/>
      <point x="808" y="73.3333"/>
      <point x="795.667" y="86.3333"/>
      <point x="790" y="111.667" type="curve" smooth="yes"/>
      <point x="758.333" y="258.333" type="line"/>
      <point x="747.333" y="304"/>
      <point x="721" y="330.667"/>
      <point x="695" y="346.333" type="curve" smooth="yes"/>
      <point x="680.333" y="355"/>
      <point x="664" y="361.667"/>
      <point x="646.667" y="365" type="curve"/>
      <point x="663" y="368"/>
      <point x="678" y="373.667"/>
      <point x="691.667" y="382" type="curve" smooth="yes"/>
      <point x="715.333" y="396"/>
      <point x="740.333" y="420.333"/>
      <point x="750" y="465" type="curve" smooth="yes"/>
      <point x="775" y="588.333" type="line" smooth="yes"/>
      <point x="780" y="614"/>
      <point x="792.333" y="626.667"/>
      <point x="811.667" y="626.667" type="curve" smooth="yes"/>
      <point x="816.667" y="626.667"/>
      <point x="821.667" y="624.667"/>
      <point x="825.667" y="623.667" type="curve"/>
      <point x="828.667" y="622.667"/>
      <point x="830.667" y="622.667"/>
      <point x="831.667" y="621.667" type="curve"/>
      <point x="836.667" y="621.667" type="line"/>
      <point x="846.667" y="696.667" type="line"/>
      <point x="825.667" y="703" type="line"/>
      <point x="812" y="706.667"/>
      <point x="793.333" y="710"/>
      <point x="770" y="710" type="curve" smooth="yes"/>
      <point x="701" y="710"/>
      <point x="660" y="667.333"/>
      <point x="648.333" y="610" type="curve" smooth="yes"/>
      <point x="620" y="473.333" type="line" smooth="yes"/>
      <point x="610" y="424.333"/>
      <point x="587.667" y="401.667"/>
      <point x="535" y="401.667" type="curve" smooth="yes"/>
      <point x="506.667" y="401.667" type="line"/>
      <point x="506.667" y="700" type="line"/>
      <point x="380" y="700" type="line"/>
      <point x="380" y="401.667" type="line"/>
      <point x="351.667" y="401.667" type="line" smooth="yes"/>
      <point x="299" y="401.667"/>
      <point x="276.667" y="424.333"/>
      <point x="266.667" y="473.333" type="curve" smooth="yes"/>
      <point x="238.333" y="610" type="line" smooth="yes"/>
      <point x="226.667" y="667.333"/>
      <point x="185.667" y="710"/>
      <point x="116.667" y="710" type="curve" smooth="yes"/>
      <point x="93.3333" y="710"/>
      <point x="74.6667" y="706.667"/>
      <point x="61" y="703" type="curve"/>
      <point x="40" y="696.667" type="line"/>
      <point x="50" y="621.667" type="line"/>
      <point x="55" y="621.667" type="line"/>
      <point x="56" y="622.667"/>
      <point x="58" y="622.667"/>
      <point x="61" y="623.667" type="curve"/>
      <point x="65" y="624.667"/>
      <point x="70" y="626.667"/>
      <point x="75" y="626.667" type="curve" smooth="yes"/>
      <point x="94.6667" y="626.667"/>
      <point x="106.667" y="613.667"/>
      <point x="111.667" y="588.333" type="curve" smooth="yes"/>
      <point x="136.667" y="465" type="line" smooth="yes"/>
      <point x="146.333" y="420.333"/>
      <point x="171.333" y="396"/>
      <point x="195" y="382" type="curve" smooth="yes"/>
      <point x="208.667" y="373.667"/>
      <point x="223.667" y="368"/>
      <point x="240" y="365" type="curve"/>
      <point x="222.667" y="361.667"/>
      <point x="206.333" y="355"/>
      <point x="191.667" y="346.333" type="curve" smooth="yes"/>
      <point x="165.667" y="330.667"/>
      <point x="138.667" y="304"/>
      <point x="128.333" y="258.333" type="curve" smooth="yes"/>
      <point x="96.6667" y="111.667" type="line" smooth="yes"/>
      <point x="91" y="86.3333"/>
      <point x="78.3333" y="73.3333"/>
      <point x="59.3333" y="73.3333" type="curve" smooth="yes"/>
      <point x="54.6667" y="73.3333"/>
      <point x="50.3333" y="74.3333"/>
      <point x="46" y="75.3333" type="curve"/>
      <point x="40" y="78.3333" type="line"/>
      <point x="35" y="78.3333" type="line"/>
      <point x="25" y="3.33333" type="line"/>
      <point x="28.3991" y="1.91548"/>
      <point x="39.8569" y="-2.3116"/>
      <point x="44.6667" y="-3.66667" type="curve" smooth="yes"/>
      <point x="58.3333" y="-7.33333"/>
      <point x="76.6667" y="-10"/>
    </contour>
  </outline>
</glyph>
<glyph name="Ze-cy" format="2">
  <advance width="530"/>
  <unicode hex="0417"/>
  <anchor x="218.667" y="0" name="bottom"/>
  <anchor x="219" y="700" name="top"/>
  <outline>
    <contour>
      <point x="218.333" y="-10" type="curve" smooth="yes"/>
      <point x="403" y="-10"/>
      <point x="483.333" y="70"/>
      <point x="483.333" y="188.333" type="curve" smooth="yes"/>
      <point x="483.333" y="268.667"/>
      <point x="446" y="313.333"/>
      <point x="410" y="339" type="curve" smooth="yes"/>
      <point x="388.333" y="354"/>
      <point x="364" y="364.333"/>
      <point x="336.667" y="370" type="curve"/>
      <point x="361" y="375.667"/>
      <point x="382.667" y="385"/>
      <point x="402" y="398.333" type="curve" smooth="yes"/>
      <point x="435.667" y="421.667"/>
      <point x="468.333" y="459.667"/>
      <point x="468.333" y="526.667" type="curve" smooth="yes"/>
      <point x="468.333" y="630"/>
      <point x="388.667" y="710"/>
      <point x="225" y="710" type="curve" smooth="yes"/>
      <point x="162.333" y="710"/>
      <point x="115.333" y="697"/>
      <point x="83" y="682" type="curve"/>
      <point x="64.3333" y="674"/>
      <point x="47.6667" y="665"/>
      <point x="33.3333" y="655" type="curve"/>
      <point x="75" y="581.667" type="line"/>
      <point x="85" y="581.667" type="line"/>
      <point x="94.3333" y="589.667"/>
      <point x="105.667" y="596.667"/>
      <point x="118.667" y="603.667" type="curve"/>
      <point x="141.667" y="614.667"/>
      <point x="173" y="626.667"/>
      <point x="215" y="626.667" type="curve" smooth="yes"/>
      <point x="302" y="626.667"/>
      <point x="341.667" y="583.667"/>
      <point x="341.667" y="516.667" type="curve" smooth="yes"/>
      <point x="341.667" y="449.667"/>
      <point x="299" y="406.667"/>
      <point x="221.667" y="406.667" type="curve" smooth="yes"/>
      <point x="128.333" y="406.667" type="line"/>
      <point x="128.333" y="323.333" type="line"/>
      <point x="221.667" y="323.333" type="line" smooth="yes"/>
      <point x="314.333" y="323.333"/>
      <point x="356.667" y="280"/>
      <point x="356.667" y="198.333" type="curve" smooth="yes"/>
      <point x="356.667" y="116.667"/>
      <point x="313.667" y="73.3333"/>
      <point x="208.333" y="73.3333" type="curve" smooth="yes"/>
      <point x="161.333" y="73.3333"/>
      <point x="126.333" y="84.3333"/>
      <point x="103" y="95.3333" type="curve"/>
      <point x="89.6667" y="102.333"/>
      <point x="77.6667" y="109.333"/>
      <point x="68.3333" y="118.333" type="curve"/>
      <point x="58.3333" y="118.333" type="line"/>
      <point x="16.6667" y="45" type="line"/>
      <point x="31" y="34"/>
      <point x="48" y="25"/>
      <point x="67.6667" y="17" type="curve"/>
      <point x="101.667" y="2"/>
      <point x="151.333" y="-10"/>
    </contour>
  </outline>
</glyph>
<glyph name="Ii-cy" format="2">
  <advance width="650"/>
  <unicode hex="0418"/>
  <anchor x="436.667" y="0" name="bottomright"/>
  <anchor x="325" y="700" name="top"/>
  <outline>
    <contour>
      <point x="210" y="0" type="line"/>
      <point x="410" y="411.667" type="line" smooth="yes"/>
      <point x="417" y="426.667"/>
      <point x="424" y="444"/>
      <point x="429.667" y="459" type="curve" smooth="yes"/>
      <point x="432.161" y="465.369"/>
      <point x="435.528" y="477.706"/>
      <point x="437.333" y="484" type="curve"/>
      <point x="441.333" y="484" type="line"/>
      <point x="438.667" y="459" type="line"/>
      <point x="437.667" y="444"/>
      <point x="436.667" y="426.667"/>
      <point x="436.667" y="411.667" type="curve" smooth="yes"/>
      <point x="436.667" y="0" type="line"/>
      <point x="563.333" y="0" type="line"/>
      <point x="563.333" y="700" type="line"/>
      <point x="440" y="700" type="line"/>
      <point x="240" y="288.333" type="line"/>
      <point x="232" y="273.333"/>
      <point x="226" y="255.333"/>
      <point x="220.333" y="241" type="curve" smooth="yes"/>
      <point x="217.839" y="234.631"/>
      <point x="214.472" y="222.294"/>
      <point x="212.667" y="216" type="curve"/>
      <point x="208.667" y="216" type="line"/>
      <point x="210.667" y="241" type="line" smooth="yes"/>
      <point x="211.667" y="255.333"/>
      <point x="213.333" y="273.333"/>
      <point x="213.333" y="288.333" type="curve" smooth="yes"/>
      <point x="213.333" y="700" type="line"/>
      <point x="86.6667" y="700" type="line"/>
      <point x="86.6667" y="0" type="line"/>
    </contour>
  </outline>
</glyph>
<glyph name="Pe-cy" format="2">
  <advance width="650"/>
  <unicode hex="041F"/>
  <anchor x="436.667" y="0" name="bottomright"/>
  <outline>
    <contour>
      <point x="213.333" y="0" type="line"/>
      <point x="213.333" y="616.667" type="line"/>
      <point x="436.667" y="616.667" type="line"/>
      <point x="436.667" y="0" type="line"/>
      <point x="563.333" y="0" type="line"/>
      <point x="563.333" y="700" type="line"/>
      <point x="86.6667" y="700" type="line"/>
      <point x="86.6667" y="0" type="line"/>
    </contour>
  </outline>
</glyph>
<glyph name="U-cy" format="2">
  <advance width="562"/>
  <unicode hex="0423"/>
  <anchor x="281.333" y="700" name="top"/>
  <outline>
    <contour>
      <point x="182" y="-15" type="curve" smooth="yes"/>
      <point x="280.333" y="-15"/>
      <point x="344.333" y="50"/>
      <point x="370.333" y="131.667" type="curve" smooth="yes"/>
      <point x="552" y="700" type="line"/>
      <point x="422" y="700" type="line"/>
      <point x="315.333" y="355" type="line"/>
      <point x="309.829" y="339.305"/>
      <point x="306.299" y="317.621"/>
      <point x="303.667" y="305.333" type="curve" smooth="yes"/>
      <point x="302" y="297"/>
      <point x="300.667" y="288.333"/>
      <point x="300.333" y="280" type="curve"/>
      <point x="296.333" y="280" type="line"/>
      <point x="295.28" y="286.878"/>
      <point x="293.062" y="298.42"/>
      <point x="291.333" y="305.333" type="curve"/>
      <point x="288" y="320.667"/>
      <point x="283.333" y="338"/>
      <point x="277" y="355" type="curve" smooth="yes"/>
      <point x="141.667" y="700" type="line"/>
      <point x="10" y="700" type="line"/>
      <point x="221.333" y="185" type="line"/>
      <point x="263.667" y="185" type="line"/>
      <point x="247" y="131.667" type="line" smooth="yes"/>
      <point x="235.333" y="95"/>
      <point x="208.667" y="68.3333"/>
      <point x="172" y="68.3333" type="curve" smooth="yes"/>
      <point x="153" y="68.3333"/>
      <point x="140" y="73.3333"/>
      <point x="129" y="80.3333" type="curve"/>
      <point x="122" y="83.3333"/>
      <point x="117" y="88.3333"/>
      <point x="112" y="93.3333" type="curve"/>
      <point x="102" y="93.3333" type="line"/>
      <point x="70.3333" y="15" type="line"/>
      <point x="79.6667" y="9"/>
      <point x="90" y="4"/>
      <point x="101.667" y="0" type="curve"/>
      <point x="122" y="-8"/>
      <point x="149" y="-15"/>
    </contour>
  </outline>
</glyph>
<glyph name="Tse-cy" format="2">
  <advance width="658"/>
  <unicode hex="0426"/>
  <outline>
    <contour>
      <point x="618.333" y="-150" type="line"/>
      <point x="618.333" y="83.3333" type="line"/>
      <point x="553.333" y="83.3333" type="line"/>
      <point x="553.333" y="700" type="line"/>
      <point x="426.667" y="700" type="line"/>
      <point x="426.667" y="83.3333" type="line"/>
      <point x="213.333" y="83.3333" type="line"/>
      <point x="213.333" y="700" type="line"/>
      <point x="86.6667" y="700" type="line"/>
      <point x="86.6667" y="0" type="line"/>
      <point x="503.333" y="0" type="line"/>
      <point x="521.667" y="-150" type="line"/>
    </contour>
  </outline>
</glyph>
<glyph name="Sha-cy" format="2">
  <advance width="940"/>
  <unicode hex="0428"/>
  <outline>
    <contour>
      <point x="853.333" y="0" type="line"/>
      <point x="853.333" y="700" type="line"/>
      <point x="726.667" y="700" type="line"/>
      <point x="726.667" y="83.3333" type="line"/>
      <point x="533.333" y="83.3333" type="line"/>
      <point x="533.333" y="700" type="line"/>
      <point x="406.667" y="700" type="line"/>
      <point x="406.667" y="83.3333" type="line"/>
      <point x="213.333" y="83.3333" type="line"/>
      <point x="213.333" y="700" type="line"/>
      <point x="86.6667" y="700" type="line"/>
      <point x="86.6667" y="0" type="line"/>
    </contour>
  </outline>
</glyph>
<glyph name="Shcha-cy" format="2">
  <advance width="958"/>
  <unicode hex="0429"/>
  <outline>
    <contour>
      <point x="918.333" y="-150" type="line"/>
      <point x="918.333" y="83.3333" type="line"/>
      <point x="853.333" y="83.3333" type="line"/>
      <point x="853.333" y="700" type="line"/>
      <point x="726.667" y="700" type="line"/>
      <point x="726.667" y="83.3333" type="line"/>
      <point x="533.333" y="83.3333" type="line"/>
      <point x="533.333" y="700" type="line"/>
      <point x="406.667" y="700" type="line"/>
      <point x="406.667" y="83.3333" type="line"/>
      <point x="213.333" y="83.3333" type="line"/>
      <point x="213.333" y="700" type="line"/>
      <point x="86.6667" y="700" type="line"/>
      <point x="86.6667" y="0" type="line"/>
      <point x="803.333" y="0" type="line"/>
      <point x="821.667" y="-150" type="line"/>
    </contour>
  </outline>
</glyph>
<glyph name="Hardsign-cy" format="2">
  <advance width="640"/>
  <unicode hex="042A"/>
  <outline>
    <contour>
      <point x="352.667" y="0" type="line" smooth="yes"/>
      <point x="508.333" y="0"/>
      <point x="605" y="68.3333"/>
      <point x="605" y="223.333" type="curve" smooth="yes"/>
      <point x="605" y="367"/>
      <point x="525" y="446.667"/>
      <point x="343.333" y="446.667" type="curve" smooth="yes"/>
      <point x="270" y="446.667" type="line"/>
      <point x="270" y="700" type="line"/>
      <point x="10" y="700" type="line"/>
      <point x="10" y="616.667" type="line"/>
      <point x="143.333" y="616.667" type="line"/>
      <point x="143.333" y="0" type="line"/>
    </contour>
    <contour>
      <point x="270" y="363.333" type="line"/>
      <point x="343.333" y="363.333" type="line" smooth="yes"/>
      <point x="436.333" y="363.333"/>
      <point x="478.333" y="320.667"/>
      <point x="478.333" y="223.333" type="curve" smooth="yes"/>
      <point x="478.333" y="126"/>
      <point x="436.333" y="83.3333"/>
      <point x="343.333" y="83.3333" type="curve" smooth="yes"/>
      <point x="270" y="83.3333" type="line"/>
    </contour>
  </outline>
</glyph>
<glyph name="Yeru-cy" format="2">
  <advance width="837"/>
  <unicode hex="042B"/>
  <anchor x="418.667" y="700" name="top"/>
  <outline>
    <contour>
      <point x="276.667" y="0" type="line" smooth="yes"/>
      <point x="458.333" y="0"/>
      <point x="538.333" y="79.6667"/>
      <point x="538.333" y="223.333" type="curve" smooth="yes"/>
      <point x="538.333" y="367"/>
      <point x="458.333" y="446.667"/>
      <point x="276.667" y="446.667" type="curve" smooth="yes"/>
      <point x="213.333" y="446.667" type="line"/>
      <point x="213.333" y="700" type="line"/>
      <point x="86.6667" y="700" type="line"/>
      <point x="86.6667" y="0" type="line"/>
    </contour>
    <contour>
      <point x="213.333" y="363.333" type="line"/>
      <point x="276.667" y="363.333" type="line" smooth="yes"/>
      <point x="369.667" y="363.333"/>
      <point x="411.667" y="320.667"/>
      <point x="411.667" y="223.333" type="curve" smooth="yes"/>
      <point x="411.667" y="126"/>
      <point x="369.667" y="83.3333"/>
      <point x="276.667" y="83.3333" type="curve" smooth="yes"/>
      <point x="213.333" y="83.3333" type="line"/>
    </contour>
    <contour>
      <point x="750" y="0" type="line"/>
      <point x="750" y="700" type="line"/>
      <point x="623.333" y="700" type="line"/>
      <point x="623.333" y="0" type="line"/>
    </contour>
  </outline>
</glyph>
<glyph name="Ereversed-cy" format="2">
  <advance width="528"/>
  <unicode hex="042D"/>
  <outline>
    <contour>
      <point x="203.333" y="-10" type="curve" smooth="yes"/>
      <point x="374" y="-10"/>
      <point x="476.667" y="93.3333"/>
      <point x="476.667" y="350" type="curve" smooth="yes"/>
      <point x="476.667" y="606.667"/>
      <point x="373" y="710"/>
      <point x="213.333" y="710" type="curve" smooth="yes"/>
      <point x="155.333" y="710"/>
      <point x="111.333" y="697"/>
      <point x="79.6667" y="682" type="curve"/>
      <point x="61.3333" y="674"/>
      <point x="45.3333" y="665"/>
      <point x="31.6667" y="655" type="curve"/>
      <point x="73.3333" y="581.667" type="line"/>
      <point x="83.3333" y="581.667" type="line"/>
      <point x="93" y="589.667"/>
      <point x="104" y="596.667"/>
      <point x="116" y="603.667" type="curve"/>
      <point x="137" y="614.667"/>
      <point x="165.667" y="626.667"/>
      <point x="203.333" y="626.667" type="curve" smooth="yes"/>
      <point x="281.333" y="626.667"/>
      <point x="339.667" y="573"/>
      <point x="349.667" y="396.667" type="curve"/>
      <point x="121.667" y="396.667" type="line"/>
      <point x="121.667" y="313.333" type="line"/>
      <point x="350" y="313.333" type="line"/>
      <point x="341" y="128"/>
      <point x="281.667" y="73.3333"/>
      <point x="193.333" y="73.3333" type="curve" smooth="yes"/>
      <point x="155.667" y="73.3333"/>
      <point x="127" y="84.3333"/>
      <point x="106" y="95.3333" type="curve"/>
      <point x="94" y="102.333"/>
      <point x="83" y="109.333"/>
      <point x="73.3333" y="118.333" type="curve"/>
      <point x="63.3333" y="118.333" type="line"/>
      <point x="21.6667" y="45" type="line"/>
      <point x="35.3333" y="34"/>
      <point x="51.3333" y="25"/>
      <point x="69.6667" y="17" type="curve"/>
      <point x="101.333" y="2"/>
      <point x="145.333" y="-10"/>
    </contour>
  </outline>
</glyph>
<glyph name="Iu-cy" format="2">
  <advance width="843"/>
  <unicode hex="042E"/>
  <outline>
    <contour>
      <point x="543.333" y="-10" type="curve" smooth="yes"/>
      <point x="688" y="-10"/>
      <point x="791.667" y="93.3333"/>
      <point x="791.667" y="350" type="curve" smooth="yes"/>
      <point x="791.667" y="606.667"/>
      <point x="688" y="710"/>
      <point x="543.333" y="710" type="curve" smooth="yes"/>
      <point x="403" y="710"/>
      <point x="306" y="614"/>
      <point x="295" y="396.667" type="curve"/>
      <point x="213.333" y="396.667" type="line"/>
      <point x="213.333" y="700" type="line"/>
      <point x="86.6667" y="700" type="line"/>
      <point x="86.6667" y="0" type="line"/>
      <point x="213.333" y="0" type="line"/>
      <point x="213.333" y="313.333" type="line"/>
      <point x="295" y="313.333" type="line"/>
      <point x="306" y="86.6667"/>
      <point x="403" y="-10"/>
    </contour>
    <contour>
      <point x="543.333" y="73.3333" type="curve" smooth="yes"/>
      <point x="484.333" y="73.3333"/>
      <point x="421.667" y="136"/>
      <point x="421.667" y="350" type="curve" smooth="yes"/>
      <point x="421.667" y="564"/>
      <point x="484.333" y="626.667"/>
      <point x="543.333" y="626.667" type="curve" smooth="yes"/>
      <point x="602.333" y="626.667"/>
      <point x="665" y="564"/>
      <point x="665" y="350" type="curve" smooth="yes"/>
      <point x="665" y="136"/>
      <point x="602.333" y="73.3333"/>
    </contour>
  </outline>
</glyph>
<glyph name="Ia-cy" format="2">
  <advance width="597"/>
  <unicode hex="042F"/>
  <outline>
    <contour>
      <point x="103.333" y="-10" type="curve" smooth="yes"/>
      <point x="163.333" y="-10"/>
      <point x="206" y="31"/>
      <point x="222.333" y="90" type="curve" smooth="yes"/>
      <point x="251.667" y="195" type="line" smooth="yes"/>
      <point x="264" y="240"/>
      <point x="287.333" y="263.333"/>
      <point x="331.667" y="263.333" type="curve" smooth="yes"/>
      <point x="383.333" y="263.333" type="line"/>
      <point x="383.333" y="0" type="line"/>
      <point x="510" y="0" type="line"/>
      <point x="510" y="700" type="line"/>
      <point x="321" y="700" type="line" smooth="yes"/>
      <point x="138" y="700"/>
      <point x="57.6667" y="620.333"/>
      <point x="57.6667" y="481" type="curve" smooth="yes"/>
      <point x="57.6667" y="379.333"/>
      <point x="119.333" y="310"/>
      <point x="208.333" y="295" type="curve"/>
      <point x="165.333" y="282.333"/>
      <point x="134" y="245.667"/>
      <point x="121.667" y="203.333" type="curve" smooth="yes"/>
      <point x="95" y="111.667" type="line" smooth="yes"/>
      <point x="87.3333" y="84.6667"/>
      <point x="76.6667" y="73.3333"/>
      <point x="57.6667" y="73.3333" type="curve" smooth="yes"/>
      <point x="50.6667" y="73.3333"/>
      <point x="45.3333" y="75.3333"/>
      <point x="38.3333" y="78.3333" type="curve"/>
      <point x="33.3333" y="78.3333" type="line"/>
      <point x="23.3333" y="3.33333" type="line"/>
      <point x="46" y="-8"/>
      <point x="78.3333" y="-10"/>
    </contour>
    <contour>
      <point x="321" y="346.667" type="line" smooth="yes"/>
      <point x="227" y="346.667"/>
      <point x="184.333" y="388.667"/>
      <point x="184.333" y="481.667" type="curve" smooth="yes"/>
      <point x="184.333" y="574.667"/>
      <point x="227" y="616.667"/>
      <point x="321" y="616.667" type="curve" smooth="yes"/>
      <point x="383.333" y="616.667" type="line"/>
      <point x="383.333" y="346.667" type="line"/>
    </contour>
  </outline>
</glyph>
<glyph name="be-cy" format="2">
  <advance width="545"/>
  <unicode hex="0431"/>
  <outline>
    <contour>
      <point x="275" y="-10" type="curve" smooth="yes"/>
      <point x="413.333" y="-10"/>
      <point x="498.333" y="74"/>
      <point x="498.333" y="230" type="curve" smooth="yes"/>
      <point x="498.333" y="386"/>
      <point x="413.333" y="470"/>
      <point x="300" y="470" type="curve" smooth="yes"/>
      <point x="234.333" y="470"/>
      <point x="186" y="441.667"/>
      <point x="155" y="386.667" type="curve"/>
      <point x="155" y="516"/>
      <point x="206.333" y="567.667"/>
      <point x="343.333" y="591.667" type="curve" smooth="yes"/>
      <point x="490" y="616.667" type="line"/>
      <point x="471.667" y="715" type="line"/>
      <point x="325" y="690" type="line" smooth="yes"/>
      <point x="138.333" y="658"/>
      <point x="51.6667" y="573.667"/>
      <point x="51.6667" y="325" type="curve" smooth="yes"/>
      <point x="51.6667" y="230" type="line" smooth="yes"/>
      <point x="51.6667" y="74"/>
      <point x="136.667" y="-10"/>
    </contour>
    <contour>
      <point x="275" y="73.3333" type="curve" smooth="yes"/>
      <point x="221" y="73.3333"/>
      <point x="178.333" y="117.333"/>
      <point x="178.333" y="230" type="curve" smooth="yes"/>
      <point x="178.333" y="338.333"/>
      <point x="221" y="381.667"/>
      <point x="275" y="381.667" type="curve" smooth="yes"/>
      <point x="329" y="381.667"/>
      <point x="371.667" y="338.333"/>
      <point x="371.667" y="230" type="curve" smooth="yes"/>
      <point x="371.667" y="117.333"/>
      <point x="329" y="73.3333"/>
    </contour>
  </outline>
</glyph>
<glyph name="ve-cy" format="2">
  <advance width="523"/>
  <unicode hex="0432"/>
  <outline>
    <contour>
      <point x="268.333" y="0" type="line" smooth="yes"/>
      <point x="425" y="0"/>
      <point x="485" y="60"/>
      <point x="485" y="135" type="curve" smooth="yes"/>
      <point x="485" y="191"/>
      <point x="454" y="220"/>
      <point x="423.667" y="239" type="curve"/>
      <point x="406" y="249"/>
      <point x="385.667" y="256"/>
      <point x="363.333" y="260" type="curve"/>
      <point x="381.667" y="265"/>
      <point x="399" y="272"/>
      <point x="413.667" y="281" type="curve" smooth="yes"/>
      <point x="439.667" y="297"/>
      <point x="465" y="325"/>
      <point x="465" y="370" type="curve" smooth="yes"/>
      <point x="465" y="439"/>
      <point x="404.667" y="500"/>
      <point x="268.333" y="500" type="curve" smooth="yes"/>
      <point x="71.6667" y="500" type="line"/>
      <point x="71.6667" y="0" type="line"/>
    </contour>
    <contour>
      <point x="198.333" y="213.333" type="line"/>
      <point x="268.333" y="213.333" type="line" smooth="yes"/>
      <point x="332" y="213.333"/>
      <point x="358.333" y="186.667"/>
      <point x="358.333" y="148.333" type="curve" smooth="yes"/>
      <point x="358.333" y="110"/>
      <point x="332" y="83.3333"/>
      <point x="268.333" y="83.3333" type="curve" smooth="yes"/>
      <point x="198.333" y="83.3333" type="line"/>
    </contour>
    <contour>
      <point x="198.333" y="416.667" type="line"/>
      <point x="268.333" y="416.667" type="line" smooth="yes"/>
      <point x="312" y="416.667"/>
      <point x="338.333" y="390.667"/>
      <point x="338.333" y="356.667" type="curve" smooth="yes"/>
      <point x="338.333" y="322.667"/>
      <point x="312" y="296.667"/>
      <point x="268.333" y="296.667" type="curve" smooth="yes"/>
      <point x="198.333" y="296.667" type="line"/>
    </contour>
  </outline>
</glyph>
<glyph name="ge-cy" format="2">
  <advance width="425"/>
  <unicode hex="0433"/>
  <anchor x="71.6667" y="0" name="bottomright"/>
  <anchor x="164.333" y="250" name="center"/>
  <anchor x="270" y="500" name="top"/>
  <outline>
    <contour>
      <point x="198.333" y="0" type="line"/>
      <point x="198.333" y="416.667" type="line"/>
      <point x="415" y="416.667" type="line"/>
      <point x="415" y="500" type="line"/>
      <point x="71.6667" y="500" type="line"/>
      <point x="71.6667" y="0" type="line"/>
    </contour>
  </outline>
</glyph>
<glyph name="de-cy" format="2">
  <advance width="587"/>
  <unicode hex="0434"/>
  <outline>
    <contour>
      <point x="106.667" y="-140" type="line"/>
      <point x="125" y="0" type="line"/>
      <point x="436.667" y="0" type="line"/>
      <point x="455" y="-140" type="line"/>
      <point x="551.667" y="-140" type="line"/>
      <point x="551.667" y="83.3333" type="line"/>
      <point x="486.667" y="83.3333" type="line"/>
      <point x="486.667" y="500" type="line"/>
      <point x="125" y="500" type="line"/>
      <point x="106.667" y="213.333" type="line" smooth="yes"/>
      <point x="103.667" y="168.667"/>
      <point x="91.3333" y="136.667"/>
      <point x="79" y="115" type="curve" smooth="yes"/>
      <point x="72" y="102.667"/>
      <point x="63.6667" y="91.6667"/>
      <point x="55" y="83.3333" type="curve"/>
      <point x="5" y="83.3333" type="line"/>
      <point x="5" y="-140" type="line"/>
    </contour>
    <contour>
      <point x="179" y="83.3333" type="line"/>
      <point x="187.667" y="91.6667"/>
      <point x="196" y="102.667"/>
      <point x="203" y="115" type="curve" smooth="yes"/>
      <point x="215.333" y="136.667"/>
      <point x="227.667" y="168.667"/>
      <point x="230.667" y="213.333" type="curve" smooth="yes"/>
      <point x="243.333" y="416.667" type="line"/>
      <point x="360" y="416.667" type="line"/>
      <point x="360" y="83.3333" type="line"/>
    </contour>
  </outline>
</glyph>
<glyph name="ie-cy" format="2">
  <advance width="515"/>
  <unicode hex="0435"/>
  <anchor x="257.667" y="500" name="top"/>
  <outline>
    <contour>
      <point x="283.333" y="-10" type="curve" smooth="yes"/>
      <point x="334.333" y="-10"/>
      <point x="374.333" y="2"/>
      <point x="404.667" y="15.6667" type="curve" smooth="yes"/>
      <point x="421.667" y="23"/>
      <point x="437.333" y="32"/>
      <point x="451.667" y="41.6667" type="curve"/>
      <point x="410" y="115" type="line"/>
      <point x="400" y="115" type="line"/>
      <point x="391.333" y="107.333"/>
      <point x="381.667" y="100.333"/>
      <point x="370.333" y="94" type="curve" smooth="yes"/>
      <point x="351" y="83"/>
      <point x="325" y="73.3333"/>
      <point x="293.333" y="73.3333" type="curve" smooth="yes"/>
      <point x="213.333" y="73.3333"/>
      <point x="170" y="118"/>
      <point x="170" y="208.333" type="curve"/>
      <point x="446.667" y="208.333" type="line"/>
      <point x="473.333" y="235" type="line"/>
      <point x="473.333" y="256.667" type="line" smooth="yes"/>
      <point x="473.333" y="425"/>
      <point x="388.333" y="510"/>
      <point x="258.333" y="510" type="curve" smooth="yes"/>
      <point x="128.333" y="510"/>
      <point x="43.3333" y="425"/>
      <point x="43.3333" y="250" type="curve" smooth="yes"/>
      <point x="43.3333" y="76.3333"/>
      <point x="127" y="-10"/>
    </contour>
    <contour>
      <point x="170" y="291.667" type="line"/>
      <point x="170" y="385.333"/>
      <point x="211.667" y="426.667"/>
      <point x="258.333" y="426.667" type="curve" smooth="yes"/>
      <point x="305" y="426.667"/>
      <point x="346.667" y="385.333"/>
      <point x="346.667" y="291.667" type="curve"/>
    </contour>
  </outline>
</glyph>
<glyph name="zhe-cy" format="2">
  <advance width="760"/>
  <unicode hex="0436"/>
  <anchor x="550.667" y="0" name="bottomright"/>
  <anchor x="380" y="500" name="top"/>
  <outline>
    <contour>
      <point x="95" y="-10" type="curve" smooth="yes"/>
      <point x="161" y="-10"/>
      <point x="192.667" y="23.3333"/>
      <point x="205" y="71.6667" type="curve" smooth="yes"/>
      <point x="230" y="170" type="line" smooth="yes"/>
      <point x="236.667" y="197"/>
      <point x="252.667" y="213.333"/>
      <point x="285" y="213.333" type="curve" smooth="yes"/>
      <point x="316.667" y="213.333" type="line"/>
      <point x="316.667" y="0" type="line"/>
      <point x="443.333" y="0" type="line"/>
      <point x="443.333" y="213.333" type="line"/>
      <point x="475" y="213.333" type="line" smooth="yes"/>
      <point x="507.333" y="213.333"/>
      <point x="523.333" y="197"/>
      <point x="530" y="170" type="curve" smooth="yes"/>
      <point x="555" y="71.6667" type="line" smooth="yes"/>
      <point x="567.333" y="23.3333"/>
      <point x="599" y="-10"/>
      <point x="665" y="-10" type="curve" smooth="yes"/>
      <point x="689.333" y="-10"/>
      <point x="715.667" y="-6.33333"/>
      <point x="738.333" y="3.33333" type="curve"/>
      <point x="725" y="78.3333" type="line"/>
      <point x="720" y="78.3333" type="line"/>
      <point x="714" y="75.3333" type="line" smooth="yes"/>
      <point x="712" y="74.3333"/>
      <point x="704" y="73.3333"/>
      <point x="700" y="73.3333" type="curve" smooth="yes"/>
      <point x="687.667" y="73.3333"/>
      <point x="677.667" y="83.3333"/>
      <point x="673.333" y="100" type="curve" smooth="yes"/>
      <point x="651.667" y="185" type="line" smooth="yes"/>
      <point x="639" y="234.333"/>
      <point x="584.667" y="256.667"/>
      <point x="555" y="260" type="curve"/>
      <point x="582.333" y="265.333"/>
      <point x="629.333" y="280"/>
      <point x="641.667" y="325" type="curve" smooth="yes"/>
      <point x="661.667" y="400" type="line" smooth="yes"/>
      <point x="666" y="416.667"/>
      <point x="676" y="426.667"/>
      <point x="688.333" y="426.667" type="curve" smooth="yes"/>
      <point x="692.667" y="426.667"/>
      <point x="696.667" y="425.667"/>
      <point x="702.333" y="423.667" type="curve" smooth="yes"/>
      <point x="708.333" y="421.667" type="line"/>
      <point x="713.333" y="421.667" type="line"/>
      <point x="726.667" y="496.667" type="line"/>
      <point x="705.667" y="503" type="line" smooth="yes"/>
      <point x="692" y="507.333"/>
      <point x="674.333" y="510"/>
      <point x="653.333" y="510" type="curve" smooth="yes"/>
      <point x="587" y="510"/>
      <point x="555.667" y="477"/>
      <point x="543.333" y="428.333" type="curve" smooth="yes"/>
      <point x="520" y="340" type="line" smooth="yes"/>
      <point x="513" y="313"/>
      <point x="498.667" y="296.667"/>
      <point x="465" y="296.667" type="curve" smooth="yes"/>
      <point x="443.333" y="296.667" type="line"/>
      <point x="443.333" y="500" type="line"/>
      <point x="316.667" y="500" type="line"/>
      <point x="316.667" y="296.667" type="line"/>
      <point x="295" y="296.667" type="line" smooth="yes"/>
      <point x="261.333" y="296.667"/>
      <point x="247" y="313"/>
      <point x="240" y="340" type="curve" smooth="yes"/>
      <point x="216.667" y="428.333" type="line" smooth="yes"/>
      <point x="204.333" y="477"/>
      <point x="173" y="510"/>
      <point x="106.667" y="510" type="curve" smooth="yes"/>
      <point x="85" y="510"/>
      <point x="68" y="507.333"/>
      <point x="54.3333" y="503" type="curve" smooth="yes"/>
      <point x="33.3333" y="496.667" type="line"/>
      <point x="46.6667" y="421.667" type="line"/>
      <point x="51.6667" y="421.667" type="line"/>
      <point x="57.6667" y="423.667" type="line"/>
      <point x="64.3333" y="425.667"/>
      <point x="68" y="426.667"/>
      <point x="71.6667" y="426.667" type="curve" smooth="yes"/>
      <point x="84" y="426.667"/>
      <point x="94" y="416.667"/>
      <point x="98.3333" y="400" type="curve" smooth="yes"/>
      <point x="118.333" y="325" type="line" smooth="yes"/>
      <point x="131" y="278.667"/>
      <point x="177.667" y="265.333"/>
      <point x="205" y="260" type="curve"/>
      <point x="173.667" y="256"/>
      <point x="121" y="234.333"/>
      <point x="108.333" y="185" type="curve" smooth="yes"/>
      <point x="86.6667" y="100" type="line" smooth="yes"/>
      <point x="82.3333" y="83.3333"/>
      <point x="72.3333" y="73.3333"/>
      <point x="60" y="73.3333" type="curve" smooth="yes"/>
      <point x="56" y="73.3333"/>
      <point x="48" y="74.3333"/>
      <point x="46" y="75.3333" type="curve" smooth="yes"/>
      <point x="40" y="78.3333" type="line"/>
      <point x="35" y="78.3333" type="line"/>
      <point x="21.6667" y="3.33333" type="line"/>
      <point x="44.3333" y="-6.33333"/>
      <point x="70.6667" y="-10"/>
    </contour>
  </outline>
</glyph>
<glyph name="ze-cy" format="2">
  <advance width="460"/>
  <unicode hex="0437"/>
  <anchor x="203.667" y="0" name="bottom"/>
  <anchor x="200.333" y="500" name="top"/>
  <outline>
    <contour>
      <point x="206.667" y="-10" type="curve" smooth="yes"/>
      <point x="361.667" y="-10"/>
      <point x="421.667" y="50"/>
      <point x="421.667" y="130" type="curve" smooth="yes"/>
      <point x="421.667" y="187"/>
      <point x="390.667" y="219"/>
      <point x="360.333" y="238" type="curve" smooth="yes"/>
      <point x="342.667" y="249"/>
      <point x="322.333" y="256"/>
      <point x="300" y="260" type="curve"/>
      <point x="320.333" y="264.333"/>
      <point x="339" y="271.667"/>
      <point x="355.333" y="281.333" type="curve" smooth="yes"/>
      <point x="383.667" y="297.667"/>
      <point x="411.667" y="326"/>
      <point x="411.667" y="375" type="curve" smooth="yes"/>
      <point x="411.667" y="450"/>
      <point x="351.667" y="510"/>
      <point x="203.333" y="510" type="curve" smooth="yes"/>
      <point x="147.333" y="510"/>
      <point x="104.333" y="497"/>
      <point x="74" y="484" type="curve" smooth="yes"/>
      <point x="56.3333" y="476.667"/>
      <point x="40.6667" y="467.667"/>
      <point x="26.6667" y="458.333" type="curve"/>
      <point x="68.3333" y="385" type="line"/>
      <point x="78.3333" y="385" type="line"/>
      <point x="86.6667" y="392.333"/>
      <point x="96.6667" y="399.333"/>
      <point x="108" y="405.667" type="curve" smooth="yes"/>
      <point x="127.333" y="416.667"/>
      <point x="155.667" y="426.667"/>
      <point x="193.333" y="426.667" type="curve" smooth="yes"/>
      <point x="258.667" y="426.667"/>
      <point x="285" y="400.667"/>
      <point x="285" y="365" type="curve" smooth="yes"/>
      <point x="285" y="323.333"/>
      <point x="259" y="296.667"/>
      <point x="205" y="296.667" type="curve" smooth="yes"/>
      <point x="120" y="296.667" type="line"/>
      <point x="120" y="213.333" type="line"/>
      <point x="205" y="213.333" type="line" smooth="yes"/>
      <point x="268.667" y="213.333"/>
      <point x="295" y="187"/>
      <point x="295" y="143.333" type="curve" smooth="yes"/>
      <point x="295" y="99.6667"/>
      <point x="268.333" y="73.3333"/>
      <point x="196.667" y="73.3333" type="curve" smooth="yes"/>
      <point x="153.333" y="73.3333"/>
      <point x="120.667" y="83"/>
      <point x="99" y="94" type="curve" smooth="yes"/>
      <point x="86.6667" y="100.333"/>
      <point x="76" y="107.333"/>
      <point x="66.6667" y="115" type="curve"/>
      <point x="56.6667" y="115" type="line"/>
      <point x="15" y="41.6667" type="line"/>
      <point x="29.3333" y="32"/>
      <point x="46" y="23"/>
      <point x="64.6667" y="15.6667" type="curve" smooth="yes"/>
      <point x="97" y="2"/>
      <point x="144" y="-10"/>
    </contour>
  </outline>
</glyph>
<glyph name="el-cy" format="2">
  <advance width="557"/>
  <unicode hex="043B"/>
  <outline>
    <contour>
      <point x="71.6667" y="-10" type="curve" smooth="yes"/>
      <point x="157.333" y="-10"/>
      <point x="208" y="42.6667"/>
      <point x="215" y="160" type="curve" smooth="yes"/>
      <point x="230" y="416.667" type="line"/>
      <point x="358.333" y="416.667" type="line"/>
      <point x="358.333" y="0" type="line"/>
      <point x="485" y="0" type="line"/>
      <point x="485" y="500" type="line"/>
      <point x="111.667" y="500" type="line"/>
      <point x="91.6667" y="160" type="line" smooth="yes"/>
      <point x="87.3333" y="93.3333"/>
      <point x="66.6667" y="73.3333"/>
      <point x="45" y="73.3333" type="curve" smooth="yes"/>
      <point x="41" y="73.3333"/>
      <point x="36" y="74.3333"/>
      <point x="31" y="75.3333" type="curve"/>
      <point x="25" y="78.3333" type="line"/>
      <point x="15" y="78.3333" type="line"/>
      <point x="6.66667" y="3.33333" type="line"/>
      <point x="10.6829" y="1.81229"/>
      <point x="22.0128" y="-2.36828"/>
      <point x="26.6667" y="-3.66667" type="curve" smooth="yes"/>
      <point x="39" y="-7.33333"/>
      <point x="54" y="-10"/>
    </contour>
  </outline>
</glyph>
<glyph name="en-cy" format="2">
  <advance width="570"/>
  <unicode hex="043D"/>
  <anchor x="371.667" y="0" name="bottomright"/>
  <outline>
    <contour>
      <point x="198.333" y="0" type="line"/>
      <point x="198.333" y="213.333" type="line"/>
      <point x="371.667" y="213.333" type="line"/>
      <point x="371.667" y="0" type="line"/>
      <point x="498.333" y="0" type="line"/>
      <point x="498.333" y="500" type="line"/>
      <point x="371.667" y="500" type="line"/>
      <point x="371.667" y="296.667" type="line"/>
      <point x="198.333" y="296.667" type="line"/>
      <point x="198.333" y="500" type="line"/>
      <point x="71.6667" y="500" type="line"/>
      <point x="71.6667" y="0" type="line"/>
    </contour>
  </outline>
</glyph>
<glyph name="pe-cy" format="2">
  <advance width="570"/>
  <unicode hex="043F"/>
  <anchor x="371.667" y="0" name="bottomright"/>
  <outline>
    <contour>
      <point x="198.333" y="0" type="line"/>
      <point x="198.333" y="416.667" type="line"/>
      <point x="371.667" y="416.667" type="line"/>
      <point x="371.667" y="0" type="line"/>
      <point x="498.333" y="0" type="line"/>
      <point x="498.333" y="500" type="line"/>
      <point x="71.6667" y="500" type="line"/>
      <point x="71.6667" y="0" type="line"/>
    </contour>
  </outline>
</glyph>
<glyph name="ef-cy" format="2">
  <advance width="700"/>
  <unicode hex="0444"/>
  <outline>
    <contour>
      <point x="413.333" y="-200" type="line"/>
      <point x="413.333" y="-10" type="line"/>
      <point x="572.667" y="-5"/>
      <point x="658.333" y="80.3333"/>
      <point x="658.333" y="250" type="curve" smooth="yes"/>
      <point x="658.333" y="419.667"/>
      <point x="572.667" y="505"/>
      <point x="413.333" y="510" type="curve"/>
      <point x="413.333" y="700" type="line"/>
      <point x="323.333" y="700" type="line"/>
      <point x="286.667" y="663.333" type="line"/>
      <point x="286.667" y="510" type="line"/>
      <point x="127.333" y="505"/>
      <point x="41.6667" y="419.667"/>
      <point x="41.6667" y="250" type="curve" smooth="yes"/>
      <point x="41.6667" y="80.3333"/>
      <point x="127.333" y="-5"/>
      <point x="286.667" y="-10" type="curve"/>
      <point x="286.667" y="-200" type="line"/>
    </contour>
    <contour>
      <point x="286.667" y="73.3333" type="line"/>
      <point x="213.667" y="78.3333"/>
      <point x="168.333" y="123"/>
      <point x="168.333" y="250" type="curve" smooth="yes"/>
      <point x="168.333" y="377"/>
      <point x="213.667" y="421.667"/>
      <point x="286.667" y="426.667" type="curve"/>
    </contour>
    <contour>
      <point x="413.333" y="426.667" type="line"/>
      <point x="486.333" y="421.667"/>
      <point x="531.667" y="377"/>
      <point x="531.667" y="250" type="curve" smooth="yes"/>
      <point x="531.667" y="123"/>
      <point x="486.333" y="78.3333"/>
      <point x="413.333" y="73.3333" type="curve"/>
    </contour>
  </outline>
</glyph>
<glyph name="hardsign-cy" format="2">
  <advance width="572"/>
  <unicode hex="044A"/>
  <outline>
    <contour>
      <point x="336.667" y="0" type="line" smooth="yes"/>
      <point x="462" y="0"/>
      <point x="550" y="41.3333"/>
      <point x="550" y="168.333" type="curve" smooth="yes"/>
      <point x="550" y="276.667"/>
      <point x="490" y="336.667"/>
      <point x="333.333" y="336.667" type="curve" smooth="yes"/>
      <point x="260" y="336.667" type="line"/>
      <point x="260" y="500" type="line"/>
      <point x="10" y="500" type="line"/>
      <point x="10" y="416.667" type="line"/>
      <point x="133.333" y="416.667" type="line"/>
      <point x="133.333" y="0" type="line"/>
    </contour>
    <contour>
      <point x="260" y="253.333" type="line"/>
      <point x="333.333" y="253.333" type="line" smooth="yes"/>
      <point x="394.333" y="253.333"/>
      <point x="423.333" y="224"/>
      <point x="423.333" y="168.333" type="curve" smooth="yes"/>
      <point x="423.333" y="112.667"/>
      <point x="394.333" y="83.3333"/>
      <point x="333.333" y="83.3333" type="curve" smooth="yes"/>
      <point x="260" y="83.3333" type="line"/>
    </contour>
  </outline>
</glyph>
<glyph name="iu-cy" format="2">
  <advance width="738"/>
  <unicode hex="044E"/>
  <outline>
    <contour>
      <point x="480" y="-10" type="curve" smooth="yes"/>
      <point x="610" y="-10"/>
      <point x="695" y="75"/>
      <point x="695" y="250" type="curve" smooth="yes"/>
      <point x="695" y="425"/>
      <point x="610" y="510"/>
      <point x="480" y="510" type="curve" smooth="yes"/>
      <point x="353.333" y="510"/>
      <point x="278.667" y="432.333"/>
      <point x="265" y="296.667" type="curve"/>
      <point x="198.333" y="296.667" type="line"/>
      <point x="198.333" y="500" type="line"/>
      <point x="71.6667" y="500" type="line"/>
      <point x="71.6667" y="0" type="line"/>
      <point x="198.333" y="0" type="line"/>
      <point x="198.333" y="213.333" type="line"/>
      <point x="265" y="213.333" type="line"/>
      <point x="278.667" y="71.3333"/>
      <point x="351.333" y="-10"/>
    </contour>
    <contour>
      <point x="480" y="73.3333" type="curve" smooth="yes"/>
      <point x="431.333" y="73.3333"/>
      <point x="391.667" y="113.333"/>
      <point x="391.667" y="250" type="curve" smooth="yes"/>
      <point x="391.667" y="386.667"/>
      <point x="431.333" y="426.667"/>
      <point x="480" y="426.667" type="curve" smooth="yes"/>
      <point x="528.667" y="426.667"/>
      <point x="568.333" y="386.667"/>
      <point x="568.333" y="250" type="curve" smooth="yes"/>
      <point x="568.333" y="113.333"/>
      <point x="528.667" y="73.3333"/>
    </contour>
  </outline>
</glyph>
<glyph name="dje-cy" format="2">
  <advance width="572"/>
  <unicode hex="0452"/>
  <outline>
    <contour>
      <point x="335" y="-140" type="curve" smooth="yes"/>
      <point x="442.667" y="-140"/>
      <point x="510" y="-72"/>
      <point x="510" y="26.6667" type="curve" smooth="yes"/>
      <point x="510" y="266.667" type="line" smooth="yes"/>
      <point x="510" y="380.667"/>
      <point x="440.667" y="450"/>
      <point x="326.667" y="450" type="curve" smooth="yes"/>
      <point x="289" y="450"/>
      <point x="260.667" y="437.667"/>
      <point x="240.333" y="426.333" type="curve"/>
      <point x="228.667" y="419.333"/>
      <point x="218.333" y="411.667"/>
      <point x="210" y="403.333" type="curve"/>
      <point x="210" y="506.667" type="line"/>
      <point x="338.333" y="506.667" type="line"/>
      <point x="338.333" y="590" type="line"/>
      <point x="210" y="590" type="line"/>
      <point x="210" y="700" type="line"/>
      <point x="120" y="700" type="line"/>
      <point x="83.3333" y="663.333" type="line"/>
      <point x="83.3333" y="590" type="line"/>
      <point x="25" y="590" type="line"/>
      <point x="25" y="506.667" type="line"/>
      <point x="83.3333" y="506.667" type="line"/>
      <point x="83.3333" y="0" type="line"/>
      <point x="210" y="0" type="line"/>
      <point x="210" y="301.667" type="line"/>
      <point x="217.667" y="312.667"/>
      <point x="225.667" y="322.667"/>
      <point x="234.667" y="331.667" type="curve"/>
      <point x="251" y="346.667"/>
      <point x="272.667" y="361.667"/>
      <point x="301.667" y="361.667" type="curve" smooth="yes"/>
      <point x="350.333" y="361.667"/>
      <point x="383.333" y="328.667"/>
      <point x="383.333" y="266.667" type="curve" smooth="yes"/>
      <point x="383.333" y="26.6667" type="line" smooth="yes"/>
      <point x="383.333" y="-30.6667"/>
      <point x="357.333" y="-56.6667"/>
      <point x="321.667" y="-56.6667" type="curve" smooth="yes"/>
      <point x="308.667" y="-56.6667"/>
      <point x="297.667" y="-54.6667"/>
      <point x="288.333" y="-51.6667" type="curve"/>
      <point x="283.333" y="-50.6667"/>
      <point x="278.667" y="-48.6667"/>
      <point x="275" y="-46.6667" type="curve"/>
      <point x="265" y="-46.6667" type="line"/>
      <point x="251.667" y="-121.667" type="line"/>
      <point x="258.667" y="-125.333"/>
      <point x="266.667" y="-128"/>
      <point x="275.333" y="-131" type="curve"/>
      <point x="290.333" y="-135.667"/>
      <point x="310.667" y="-140"/>
    </contour>
  </outline>
</glyph>
<glyph name="lje-cy" format="2">
  <advance width="787"/>
  <unicode hex="0459"/>
  <outline>
    <contour>
      <point x="71.6667" y="-10" type="curve" smooth="yes"/>
      <point x="157.333" y="-10"/>
      <point x="208" y="42.6667"/>
      <point x="215" y="160" type="curve" smooth="yes"/>
      <point x="230" y="416.667" type="line"/>
      <point x="348.333" y="416.667" type="line"/>
      <point x="348.333" y="0" type="line"/>
      <point x="548.333" y="0" type="line" smooth="yes"/>
      <point x="705" y="0"/>
      <point x="765" y="60"/>
      <point x="765" y="168.333" type="curve" smooth="yes"/>
      <point x="765" y="276.667"/>
      <point x="705" y="336.667"/>
      <point x="548.333" y="336.667" type="curve" smooth="yes"/>
      <point x="475" y="336.667" type="line"/>
      <point x="475" y="500" type="line"/>
      <point x="111.667" y="500" type="line"/>
      <point x="91.6667" y="160" type="line" smooth="yes"/>
      <point x="87.3333" y="93.3333"/>
      <point x="66.6667" y="73.3333"/>
      <point x="45" y="73.3333" type="curve" smooth="yes"/>
      <point x="41" y="73.3333"/>
      <point x="36" y="74.3333"/>
      <point x="31" y="75.3333" type="curve"/>
      <point x="25" y="78.3333" type="line"/>
      <point x="15" y="78.3333" type="line"/>
      <point x="6.66667" y="3.33333" type="line"/>
      <point x="10.6829" y="1.81229"/>
      <point x="22.0128" y="-2.36828"/>
      <point x="26.6667" y="-3.66667" type="curve" smooth="yes"/>
      <point x="39" y="-7.33333"/>
      <point x="54" y="-10"/>
    </contour>
    <contour>
      <point x="475" y="253.333" type="line"/>
      <point x="548.333" y="253.333" type="line" smooth="yes"/>
      <point x="609.333" y="253.333"/>
      <point x="638.333" y="224"/>
      <point x="638.333" y="168.333" type="curve" smooth="yes"/>
      <point x="638.333" y="112.667"/>
      <point x="609.333" y="83.3333"/>
      <point x="548.333" y="83.3333" type="curve" smooth="yes"/>
      <point x="475" y="83.3333" type="line"/>
    </contour>
  </outline>
</glyph>
<glyph name="tshe-cy" format="2">
  <advance width="577"/>
  <unicode hex="045B"/>
  <outline>
    <contour>
      <point x="210" y="0" type="line"/>
      <point x="210" y="301.667" type="line"/>
      <point x="217.667" y="312.667"/>
      <point x="225.667" y="322.667"/>
      <point x="234.667" y="331.667" type="curve"/>
      <point x="251" y="346.667"/>
      <point x="272.667" y="361.667"/>
      <point x="301.667" y="361.667" type="curve" smooth="yes"/>
      <point x="350.333" y="361.667"/>
      <point x="383.333" y="328.667"/>
      <point x="383.333" y="266.667" type="curve" smooth="yes"/>
      <point x="383.333" y="0" type="line"/>
      <point x="510" y="0" type="line"/>
      <point x="510" y="266.667" type="line" smooth="yes"/>
      <point x="510" y="380.667"/>
      <point x="440.667" y="450"/>
      <point x="326.667" y="450" type="curve" smooth="yes"/>
      <point x="289" y="450"/>
      <point x="260.667" y="437.667"/>
      <point x="240.333" y="426.333" type="curve"/>
      <point x="228.667" y="419.333"/>
      <point x="218.333" y="411.667"/>
      <point x="210" y="403.333" type="curve"/>
      <point x="210" y="506.667" type="line"/>
      <point x="338.333" y="506.667" type="line"/>
      <point x="338.333" y="590" type="line"/>
      <point x="210" y="590" type="line"/>
      <point x="210" y="700" type="line"/>
      <point x="120" y="700" type="line"/>
      <point x="83.3333" y="663.333" type="line"/>
      <point x="83.3333" y="590" type="line"/>
      <point x="25" y="590" type="line"/>
      <point x="25" y="506.667" type="line"/>
      <point x="83.3333" y="506.667" type="line"/>
      <point x="83.3333" y="0" type="line"/>
    </contour>
  </outline>
</glyph>
<glyph name="dzhe-cy" format="2">
  <advance width="570"/>
  <unicode hex="045F"/>
  <outline>
    <contour>
      <point x="331.667" y="-140" type="line"/>
      <point x="345" y="0" type="line"/>
      <point x="498.333" y="0" type="line"/>
      <point x="498.333" y="500" type="line"/>
      <point x="371.667" y="500" type="line"/>
      <point x="371.667" y="83.3333" type="line"/>
      <point x="198.333" y="83.3333" type="line"/>
      <point x="198.333" y="500" type="line"/>
      <point x="71.6667" y="500" type="line"/>
      <point x="71.6667" y="0" type="line"/>
      <point x="225" y="0" type="line"/>
      <point x="238.333" y="-140" type="line"/>
    </contour>
  </outline>
</glyph>
<glyph name="Yat-cy" format="2">
  <advance width="651"/>
  <unicode hex="0462"/>
  <outline>
    <contour>
      <point x="354" y="0" type="line" smooth="yes"/>
      <point x="535.667" y="0"/>
      <point x="615.667" y="79.6667"/>
      <point x="615.667" y="223.333" type="curve" smooth="yes"/>
      <point x="615.667" y="367"/>
      <point x="535.667" y="446.667"/>
      <point x="354" y="446.667" type="curve" smooth="yes"/>
      <point x="280.667" y="446.667" type="line"/>
      <point x="280.667" y="730" type="line"/>
      <point x="154" y="730" type="line"/>
      <point x="154" y="0" type="line"/>
    </contour>
    <contour>
      <point x="280.667" y="363.333" type="line"/>
      <point x="354" y="363.333" type="line" smooth="yes"/>
      <point x="447" y="363.333"/>
      <point x="489" y="320.667"/>
      <point x="489" y="223.333" type="curve" smooth="yes"/>
      <point x="489" y="126"/>
      <point x="447" y="83.3333"/>
      <point x="354" y="83.3333" type="curve" smooth="yes"/>
      <point x="280.667" y="83.3333" type="line"/>
    </contour>
    <contour>
      <point x="465" y="530" type="line"/>
      <point x="465" y="613.333" type="line"/>
      <point x="15" y="613.333" type="line"/>
      <point x="15" y="530" type="line"/>
    </contour>
  </outline>
</glyph>
<glyph name="yat-cy" format="2">
  <advance width="532"/>
  <unicode hex="0463"/>
  <outline>
    <contour>
      <point x="293.333" y="0" type="line" smooth="yes"/>
      <point x="450" y="0"/>
      <point x="510" y="60"/>
      <point x="510" y="168.333" type="curve" smooth="yes"/>
      <point x="510" y="276.667"/>
      <point x="450" y="336.667"/>
      <point x="293.333" y="336.667" type="curve" smooth="yes"/>
      <point x="220" y="336.667" type="line"/>
      <point x="220" y="700" type="line"/>
      <point x="93.3333" y="700" type="line"/>
      <point x="93.3333" y="0" type="line"/>
    </contour>
    <contour>
      <point x="220" y="253.333" type="line"/>
      <point x="293.333" y="253.333" type="line" smooth="yes"/>
      <point x="354.333" y="253.333"/>
      <point x="383.333" y="224"/>
      <point x="383.333" y="168.333" type="curve" smooth="yes"/>
      <point x="383.333" y="112.667"/>
      <point x="354.333" y="83.3333"/>
      <point x="293.333" y="83.3333" type="curve" smooth="yes"/>
      <point x="220" y="83.3333" type="line"/>
    </contour>
    <contour>
      <point x="371.667" y="416.667" type="line"/>
      <point x="371.667" y="500" type="line"/>
      <point x="15" y="500" type="line"/>
      <point x="15" y="416.667" type="line"/>
    </contour>
  </outline>
</glyph>
<glyph name="Yusbig-cy" format="2">
  <advance width="887"/>
  <unicode hex="046A"/>
  <outline>
    <contour>
      <point x="101.667" y="-10" type="curve" smooth="yes"/>
      <point x="170.667" y="-10"/>
      <point x="211" y="32.6667"/>
      <point x="223.333" y="90" type="curve" smooth="yes"/>
      <point x="258.333" y="250" type="line"/>
      <point x="269.333" y="295"/>
      <point x="291.333" y="318.333"/>
      <point x="338.333" y="318.333" type="curve" smooth="yes"/>
      <point x="380" y="318.333" type="line"/>
      <point x="380" y="0" type="line"/>
      <point x="506.667" y="0" type="line"/>
      <point x="506.667" y="318.333" type="line"/>
      <point x="548.333" y="318.333" type="line" smooth="yes"/>
      <point x="595.333" y="318.333"/>
      <point x="617.333" y="295"/>
      <point x="628.333" y="250" type="curve"/>
      <point x="663.333" y="90" type="line" smooth="yes"/>
      <point x="675.667" y="32.6667"/>
      <point x="716" y="-10"/>
      <point x="785" y="-10" type="curve" smooth="yes"/>
      <point x="813" y="-10"/>
      <point x="835.667" y="-7.33333"/>
      <point x="861.667" y="3.33333" type="curve"/>
      <point x="851.667" y="78.3333" type="line"/>
      <point x="846.667" y="78.3333" type="line"/>
      <point x="840" y="74.3333"/>
      <point x="836" y="73.3333"/>
      <point x="827.333" y="73.3333" type="curve" smooth="yes"/>
      <point x="808" y="73.3333"/>
      <point x="795.667" y="86.3333"/>
      <point x="790" y="111.667" type="curve" smooth="yes"/>
      <point x="758.333" y="258.333" type="line"/>
      <point x="737.333" y="344.667"/>
      <point x="678.333" y="374"/>
      <point x="560.333" y="380.667" type="curve"/>
      <point x="760.333" y="700" type="line"/>
      <point x="119.667" y="700" type="line"/>
      <point x="319.667" y="379.667" type="line"/>
      <point x="194" y="371.333"/>
      <point x="145.667" y="333"/>
      <point x="128.333" y="258.333" type="curve"/>
      <point x="96.6667" y="111.667" type="line" smooth="yes"/>
      <point x="91" y="86.3333"/>
      <point x="78.3333" y="73.3333"/>
      <point x="59.3333" y="73.3333" type="curve" smooth="yes"/>
      <point x="52.3333" y="73.3333"/>
      <point x="45.6667" y="75"/>
      <point x="40" y="78.3333" type="curve"/>
      <point x="35" y="78.3333" type="line"/>
      <point x="25" y="3.33333" type="line"/>
      <point x="44.6667" y="-5.33333"/>
      <point x="68" y="-10"/>
    </contour>
    <contour>
      <point x="287" y="616.667" type="line"/>
      <point x="596.333" y="616.667" type="line"/>
      <point x="444.667" y="368.333" type="line"/>
      <point x="440.667" y="368.333" type="line"/>
    </contour>
  </outline>
  <guideline angle="90" x="380" y="0"/>
  <guideline angle="90" x="480" y="0"/>
</glyph>
<glyph name="Izhitsa-cy" format="2">
  <advance width="578"/>
  <unicode hex="0474"/>
  <outline>
    <contour>
      <point x="355" y="0" type="line"/>
      <point x="498" y="540" type="line" smooth="yes"/>
      <point x="514.667" y="602.667"/>
      <point x="537.333" y="627.333"/>
      <point x="562.333" y="627.333" type="curve" smooth="yes"/>
      <point x="570" y="627.333"/>
      <point x="576.667" y="625.333"/>
      <point x="583.333" y="621.667" type="curve"/>
      <point x="588" y="621.667" type="line"/>
      <point x="596.333" y="696.667" type="line"/>
      <point x="571.667" y="706"/>
      <point x="557.333" y="710"/>
      <point x="531.333" y="710" type="curve" smooth="yes"/>
      <point x="439.333" y="710"/>
      <point x="406" y="652"/>
      <point x="379.667" y="540" type="curve" smooth="yes"/>
      <point x="303.333" y="218.333" type="line"/>
      <point x="298.667" y="202.667"/>
      <point x="296.333" y="184.667"/>
      <point x="293.333" y="169.667" type="curve"/>
      <point x="290.333" y="145" type="line"/>
      <point x="286.333" y="145" type="line"/>
      <point x="282.333" y="170.333" type="line"/>
      <point x="279.333" y="185.333"/>
      <point x="277.333" y="202.667"/>
      <point x="273.333" y="218.333" type="curve" smooth="yes"/>
      <point x="141.667" y="700" type="line"/>
      <point x="15" y="700" type="line"/>
      <point x="213.333" y="0" type="line"/>
    </contour>
  </outline>
</glyph>
<glyph name="izhitsa-cy" format="2">
  <advance width="499"/>
  <unicode hex="0475"/>
  <outline>
    <contour>
      <point x="315" y="0" type="line"/>
      <point x="415.667" y="340.667" type="line" smooth="yes"/>
      <point x="435" y="406.333"/>
      <point x="454.333" y="427.333"/>
      <point x="471.667" y="427.333" type="curve" smooth="yes"/>
      <point x="479.333" y="427.333"/>
      <point x="486.667" y="426.333"/>
      <point x="493.333" y="422.333" type="curve"/>
      <point x="499.667" y="422.333" type="line"/>
      <point x="514.333" y="497.333" type="line"/>
      <point x="494.667" y="506"/>
      <point x="477.333" y="510.667"/>
      <point x="450" y="510.667" type="curve" smooth="yes"/>
      <point x="364.333" y="510.667"/>
      <point x="323.333" y="465"/>
      <point x="294" y="340.667" type="curve" smooth="yes"/>
      <point x="256.333" y="183" type="line" smooth="yes"/>
      <point x="252" y="165.333"/>
      <point x="249" y="150"/>
      <point x="247" y="123.333" type="curve"/>
      <point x="243" y="123.333" type="line"/>
      <point x="241" y="150"/>
      <point x="238.667" y="165.333"/>
      <point x="233.333" y="183.333" type="curve" smooth="yes"/>
      <point x="138.333" y="500" type="line"/>
      <point x="11.6667" y="500" type="line"/>
      <point x="175" y="0" type="line"/>
    </contour>
  </outline>
</glyph>
<glyph name="Gheupturn-cy" format="2">
  <advance width="507"/>
  <unicode hex="0490"/>
  <outline>
    <contour>
      <point x="213.333" y="0" type="line"/>
      <point x="213.333" y="616.667" type="line"/>
      <point x="496.667" y="616.667" type="line"/>
      <point x="496.667" y="806.667" type="line"/>
      <point x="406.667" y="806.667" type="line"/>
      <point x="393.333" y="700" type="line"/>
      <point x="86.6667" y="700" type="line"/>
      <point x="86.6667" y="0" type="line"/>
    </contour>
  </outline>
</glyph>
<glyph name="gheupturn-cy" format="2">
  <advance width="425"/>
  <unicode hex="0491"/>
  <outline>
    <contour>
      <point x="198.333" y="0" type="line"/>
      <point x="198.333" y="416.667" type="line"/>
      <point x="415" y="416.667" type="line"/>
      <point x="415" y="596.667" type="line"/>
      <point x="325" y="596.667" type="line"/>
      <point x="311.667" y="500" type="line"/>
      <point x="71.6667" y="500" type="line"/>
      <point x="71.6667" y="0" type="line"/>
    </contour>
  </outline>
</glyph>
<glyph name="ghemiddlehook-cy" format="2">
  <advance width="527"/>
  <unicode hex="0495"/>
  <outline>
    <component base="ge-cy"/>
    <contour>
      <point x="323.333" y="-140" type="curve" smooth="yes"/>
      <point x="431" y="-140"/>
      <point x="498.333" y="-72"/>
      <point x="498.333" y="26.6667" type="curve" smooth="yes"/>
      <point x="498.333" y="136.667" type="line" smooth="yes"/>
      <point x="498.333" y="255.667"/>
      <point x="420.667" y="318"/>
      <point x="312" y="318" type="curve" smooth="yes"/>
      <point x="276.667" y="318"/>
      <point x="238" y="311.333"/>
      <point x="198.333" y="298" type="curve"/>
      <point x="198.333" y="210.333" type="line"/>
      <point x="228" y="221.667"/>
      <point x="257.667" y="228.667"/>
      <point x="284.667" y="228.667" type="curve" smooth="yes"/>
      <point x="334.667" y="228.667"/>
      <point x="371.667" y="203"/>
      <point x="371.667" y="130" type="curve" smooth="yes"/>
      <point x="371.667" y="26.6667" type="line" smooth="yes"/>
      <point x="371.667" y="-30.6667"/>
      <point x="345.667" y="-56.6667"/>
      <point x="310" y="-56.6667" type="curve" smooth="yes"/>
      <point x="297" y="-56.6667"/>
      <point x="273" y="-52"/>
      <point x="263.333" y="-46.6667" type="curve"/>
      <point x="253.333" y="-46.6667" type="line"/>
      <point x="240" y="-121.667" type="line"/>
      <point x="257.667" y="-130"/>
      <point x="289.667" y="-140"/>
    </contour>
  </outline>
</glyph>
<glyph name="zhedescender-cy" format="2">
  <advance width="760"/>
  <unicode hex="0497"/>
  <outline>
    <component base="zhe-cy"/>
    <contour>
      <point x="738.333" y="-140" type="line"/>
      <point x="738.333" y="3.33333" type="line"/>
      <point x="623.333" y="0" type="line"/>
      <point x="641.667" y="-140" type="line"/>
    </contour>
  </outline>
</glyph>
<glyph name="Kadescender-cy" format="2">
  <advance width="605"/>
  <unicode hex="049A"/>
  <outline>
    <component base="Ka-cy"/>
    <contour>
      <point x="580" y="-150" type="line"/>
      <point x="580" y="3.33333" type="line"/>
      <point x="465" y="0" type="line"/>
      <point x="483.333" y="-150" type="line"/>
    </contour>
  </outline>
</glyph>
<glyph name="kaverticalstroke-cy" format="2">
  <advance width="569"/>
  <unicode hex="049D"/>
  <outline>
    <component base="verticalbar-cy" xyScale="-1.24345e-20" xOffset="193" yOffset="-0.333333"/>
    <contour>
      <point x="473.667" y="-10" type="curve" smooth="yes"/>
      <point x="494.667" y="-10"/>
      <point x="512" y="-7.33333"/>
      <point x="526" y="-3.66667" type="curve" smooth="yes"/>
      <point x="533.667" y="-1.66667"/>
      <point x="540.667" y="0.666667"/>
      <point x="547" y="3.33333" type="curve"/>
      <point x="533.667" y="78.3333" type="line"/>
      <point x="528.667" y="78.3333" type="line"/>
      <point x="522.667" y="75.3333" type="line"/>
      <point x="517.667" y="74.3333"/>
      <point x="512.667" y="73.3333"/>
      <point x="508.667" y="73.3333" type="curve" smooth="yes"/>
      <point x="496.333" y="73.3333"/>
      <point x="486.333" y="83.3333"/>
      <point x="482" y="100" type="curve" smooth="yes"/>
      <point x="460.333" y="185" type="line" smooth="yes"/>
      <point x="452.333" y="217"/>
      <point x="428" y="235.667"/>
      <point x="406" y="247" type="curve" smooth="yes"/>
      <point x="393.333" y="253.333"/>
      <point x="379" y="258"/>
      <point x="363.667" y="260" type="curve"/>
      <point x="377.333" y="262.333"/>
      <point x="389.667" y="266.333"/>
      <point x="401.333" y="271.333" type="curve" smooth="yes"/>
      <point x="421" y="279.667"/>
      <point x="442.667" y="296"/>
      <point x="450.333" y="325" type="curve" smooth="yes"/>
      <point x="470.333" y="400" type="line" smooth="yes"/>
      <point x="474.667" y="416.667"/>
      <point x="484.667" y="426.667"/>
      <point x="497" y="426.667" type="curve" smooth="yes"/>
      <point x="502" y="426.667"/>
      <point x="507" y="424.667"/>
      <point x="511" y="423.667" type="curve"/>
      <point x="514" y="422.667"/>
      <point x="516" y="422.667"/>
      <point x="517" y="421.667" type="curve"/>
      <point x="522" y="421.667" type="line"/>
      <point x="535.333" y="496.667" type="line"/>
      <point x="529.809" y="498.252"/>
      <point x="520.673" y="500.704"/>
      <point x="514.333" y="503" type="curve" smooth="yes"/>
      <point x="500.667" y="508"/>
      <point x="483" y="510"/>
      <point x="462" y="510" type="curve" smooth="yes"/>
      <point x="395.667" y="510"/>
      <point x="364.333" y="477"/>
      <point x="352" y="428.333" type="curve" smooth="yes"/>
      <point x="328.667" y="340" type="line" smooth="yes"/>
      <point x="321.667" y="313"/>
      <point x="307.333" y="296.667"/>
      <point x="273.667" y="296.667" type="curve" smooth="yes"/>
      <point x="198.333" y="296.667" type="line"/>
      <point x="198.333" y="500" type="line"/>
      <point x="71.6667" y="500" type="line"/>
      <point x="71.6667" y="0" type="line"/>
      <point x="198.333" y="0" type="line"/>
      <point x="198.333" y="213.333" type="line"/>
      <point x="283.667" y="213.333" type="line" smooth="yes"/>
      <point x="316" y="213.333"/>
      <point x="332" y="197"/>
      <point x="338.667" y="170" type="curve" smooth="yes"/>
      <point x="363.667" y="71.6667" type="line" smooth="yes"/>
      <point x="376" y="23.3333"/>
      <point x="407.667" y="-10"/>
    </contour>
  </outline>
</glyph>
<glyph name="Kabashkir-cy" format="2">
  <advance width="732"/>
  <unicode hex="04A0"/>
  <outline>
    <component base="Ka-cy" xScale="1" xOffset="126.667"/>
    <contour>
      <point x="213.333" y="616.667" type="line"/>
      <point x="340" y="700" type="line"/>
      <point x="10" y="700" type="line"/>
      <point x="10" y="616.667" type="line"/>
    </contour>
  </outline>
</glyph>
<glyph name="kabashkir-cy" format="2">
  <advance width="612"/>
  <unicode hex="04A1"/>
  <outline>
    <component base="ka-cy" xScale="1" xOffset="81.6667"/>
    <contour>
      <point x="153.333" y="416.667" type="line"/>
      <point x="280" y="500" type="line"/>
      <point x="10" y="500" type="line"/>
      <point x="10" y="416.667" type="line"/>
    </contour>
  </outline>
</glyph>
<glyph name="Enghe-cy" format="2">
  <advance width="817"/>
  <unicode hex="04A4"/>
  <outline>
    <component base="En-cy"/>
    <contour>
      <point x="806.667" y="616.667" type="line"/>
      <point x="806.667" y="700" type="line"/>
      <point x="436.667" y="700" type="line"/>
      <point x="563.333" y="616.667" type="line"/>
    </contour>
  </outline>
</glyph>
<glyph name="enghe-cy" format="2">
  <advance width="675"/>
  <unicode hex="04A5"/>
  <outline>
    <component base="en-cy"/>
    <contour>
      <point x="665" y="416.667" type="line"/>
      <point x="665" y="500" type="line"/>
      <point x="371.667" y="500" type="line"/>
      <point x="498.333" y="416.667" type="line"/>
    </contour>
  </outline>
</glyph>
<glyph name="Esdescender-cy" format="2">
  <advance width="528"/>
  <unicode hex="04AA"/>
  <outline>
    <component base="Es-cy"/>
    <contour>
      <point x="370.333" y="-150" type="line"/>
      <point x="370.333" y="3.33333" type="line"/>
      <point x="255.333" y="0" type="line"/>
      <point x="273.667" y="-150" type="line"/>
    </contour>
  </outline>
</glyph>
<glyph name="esdescender-cy" format="2">
  <advance width="468"/>
  <unicode hex="04AB"/>
  <outline>
    <component base="es-cy"/>
    <contour>
      <point x="330.333" y="-140" type="line"/>
      <point x="330.333" y="3.33333" type="line"/>
      <point x="215.333" y="0" type="line"/>
      <point x="233.667" y="-140" type="line"/>
    </contour>
  </outline>
</glyph>
<glyph name="chekhakassian-cy" format="2">
  <advance width="540"/>
  <unicode hex="04CC"/>
  <outline>
    <component base="che-cy"/>
    <contour>
      <point x="373.333" y="-140" type="line"/>
      <point x="391.667" y="0" type="line"/>
      <point x="468.333" y="0" type="line"/>
      <point x="468.333" y="83.3333" type="line"/>
      <point x="276.667" y="83.3333" type="line"/>
      <point x="276.667" y="-140" type="line"/>
    </contour>
  </outline>
</glyph>
<glyph name="Schwa-cy" format="2">
  <advance width="604"/>
  <unicode hex="04D8"/>
  <outline>
    <contour>
      <point x="301.333" y="-10.6667" type="curve" smooth="yes"/>
      <point x="452.333" y="-10.6667"/>
      <point x="552.667" y="105"/>
      <point x="552.333" y="346.667" type="curve" smooth="yes"/>
      <point x="552" y="592.667"/>
      <point x="456.333" y="710"/>
      <point x="287.667" y="710" type="curve" smooth="yes"/>
      <point x="206.667" y="710"/>
      <point x="140" y="683"/>
      <point x="71.3333" y="623.667" type="curve"/>
      <point x="105.667" y="568.333" type="line"/>
      <point x="119.667" y="568.333" type="line"/>
      <point x="163.333" y="606.333"/>
      <point x="222" y="626.667"/>
      <point x="276.333" y="626.667" type="curve" smooth="yes"/>
      <point x="390" y="626.667"/>
      <point x="438" y="539.333"/>
      <point x="434.667" y="373.333" type="curve"/>
      <point x="434.667" y="340" type="line"/>
      <point x="438" y="157"/>
      <point x="391" y="73.6667"/>
      <point x="301.333" y="73.6667" type="curve" smooth="yes"/>
      <point x="216" y="73.6667"/>
      <point x="164.333" y="149"/>
      <point x="164.333" y="313.333" type="curve"/>
      <point x="477.333" y="313.333" type="line"/>
      <point x="477.333" y="396.667" type="line"/>
      <point x="89" y="396.667" type="line"/>
      <point x="51.6667" y="359.333" type="line"/>
      <point x="51.6667" y="337.667" type="line" smooth="yes"/>
      <point x="51.6667" y="104"/>
      <point x="153.333" y="-10.6667"/>
    </contour>
  </outline>
</glyph>
<glyph name="emdash" format="2">
  <advance width="733"/>
  <unicode hex="2014"/>
  <outline>
    <contour>
      <point x="703.333" y="243.333" type="line"/>
      <point x="703.333" y="336.667" type="line"/>
      <point x="30" y="336.667" type="line"/>
      <point x="30" y="243.333" type="line"/>
    </contour>
  </outline>
</glyph>
<glyph name="dagger" format="2">
  <advance width="460"/>
  <unicode hex="2020"/>
  <outline>
    <contour>
      <point x="293.333" y="-200" type="line"/>
      <point x="293.333" y="396.667" type="line"/>
      <point x="440" y="396.667" type="line"/>
      <point x="440" y="480" type="line"/>
      <point x="293.333" y="480" type="line"/>
      <point x="293.333" y="700" type="line"/>
      <point x="166.667" y="700" type="line"/>
      <point x="166.667" y="480" type="line"/>
      <point x="20" y="480" type="line"/>
      <point x="20" y="396.667" type="line"/>
      <point x="166.667" y="396.667" type="line"/>
      <point x="166.667" y="-200" type="line"/>
    </contour>
  </outline>
</glyph>
<glyph name="ellipsis" format="2">
  <advance width="633"/>
  <unicode hex="2026"/>
  <outline>
    <contour>
      <point x="526.667" y="-10" type="curve" smooth="yes"/>
      <point x="565" y="-10"/>
      <point x="596.667" y="21.6667"/>
      <point x="596.667" y="60" type="curve" smooth="yes"/>
      <point x="596.667" y="98.3333"/>
      <point x="565" y="130"/>
      <point x="526.667" y="130" type="curve" smooth="yes"/>
      <point x="488.333" y="130"/>
      <point x="456.667" y="98.3333"/>
      <point x="456.667" y="60" type="curve" smooth="yes"/>
      <point x="456.667" y="21.6667"/>
      <point x="488.333" y="-10"/>
    </contour>
    <contour>
      <point x="106.667" y="-10" type="curve" smooth="yes"/>
      <point x="145" y="-10"/>
      <point x="176.667" y="21.6667"/>
      <point x="176.667" y="60" type="curve" smooth="yes"/>
      <point x="176.667" y="98.3333"/>
      <point x="145" y="130"/>
      <point x="106.667" y="130" type="curve" smooth="yes"/>
      <point x="68.3333" y="130"/>
      <point x="36.6667" y="98.3333"/>
      <point x="36.6667" y="60" type="curve" smooth="yes"/>
      <point x="36.6667" y="21.6667"/>
      <point x="68.3333" y="-10"/>
    </contour>
    <contour>
      <point x="316.667" y="-10" type="curve" smooth="yes"/>
      <point x="355" y="-10"/>
      <point x="386.667" y="21.6667"/>
      <point x="386.667" y="60" type="curve" smooth="yes"/>
      <point x="386.667" y="98.3333"/>
      <point x="355" y="130"/>
      <point x="316.667" y="130" type="curve" smooth="yes"/>
      <point x="278.333" y="130"/>
      <point x="246.667" y="98.3333"/>
      <point x="246.667" y="60" type="curve" smooth="yes"/>
      <point x="246.667" y="21.6667"/>
      <point x="278.333" y="-10"/>
    </contour>
  </outline>
</glyph>
<glyph name="perthousand" format="2">
  <advance width="1177"/>
  <unicode hex="2030"/>
  <outline>
    <contour>
      <point x="246.667" y="0" type="line"/>
      <point x="716.667" y="700" type="line"/>
      <point x="580" y="700" type="line"/>
      <point x="110" y="0" type="line"/>
    </contour>
    <contour>
      <point x="190" y="350" type="curve" smooth="yes"/>
      <point x="288.667" y="350"/>
      <point x="360" y="422"/>
      <point x="360" y="530" type="curve" smooth="yes"/>
      <point x="360" y="638"/>
      <point x="288.667" y="710"/>
      <point x="190" y="710" type="curve" smooth="yes"/>
      <point x="91.3333" y="710"/>
      <point x="20" y="638"/>
      <point x="20" y="530" type="curve" smooth="yes"/>
      <point x="20" y="422"/>
      <point x="91.3333" y="350"/>
    </contour>
    <contour>
      <point x="190" y="423.333" type="curve" smooth="yes"/>
      <point x="156" y="423.333"/>
      <point x="130" y="449.667"/>
      <point x="130" y="530" type="curve" smooth="yes"/>
      <point x="130" y="609.667"/>
      <point x="156" y="636.667"/>
      <point x="190" y="636.667" type="curve" smooth="yes"/>
      <point x="222.667" y="636.667"/>
      <point x="250" y="609.667"/>
      <point x="250" y="530" type="curve" smooth="yes"/>
      <point x="250" y="449.667"/>
      <point x="222.667" y="423.333"/>
    </contour>
    <contour>
      <point x="623.333" y="-10" type="curve" smooth="yes"/>
      <point x="722" y="-10"/>
      <point x="793.333" y="62"/>
      <point x="793.333" y="170" type="curve" smooth="yes"/>
      <point x="793.333" y="278"/>
      <point x="722" y="350"/>
      <point x="623.333" y="350" type="curve" smooth="yes"/>
      <point x="524.667" y="350"/>
      <point x="453.333" y="278"/>
      <point x="453.333" y="170" type="curve" smooth="yes"/>
      <point x="453.333" y="62"/>
      <point x="524.667" y="-10"/>
    </contour>
    <contour>
      <point x="623.333" y="63.3333" type="curve" smooth="yes"/>
      <point x="589.333" y="63.3333"/>
      <point x="563.333" y="89.6667"/>
      <point x="563.333" y="170" type="curve" smooth="yes"/>
      <point x="563.333" y="249.667"/>
      <point x="589.333" y="276.667"/>
      <point x="623.333" y="276.667" type="curve" smooth="yes"/>
      <point x="656" y="276.667"/>
      <point x="683.333" y="249.667"/>
      <point x="683.333" y="170" type="curve" smooth="yes"/>
      <point x="683.333" y="89.6667"/>
      <point x="656" y="63.3333"/>
    </contour>
    <contour>
      <point x="987" y="-10" type="curve" smooth="yes"/>
      <point x="1085.67" y="-10"/>
      <point x="1157" y="62"/>
      <point x="1157" y="170" type="curve" smooth="yes"/>
      <point x="1157" y="278"/>
      <point x="1085.67" y="350"/>
      <point x="987" y="350" type="curve" smooth="yes"/>
      <point x="888.333" y="350"/>
      <point x="817" y="278"/>
      <point x="817" y="170" type="curve" smooth="yes"/>
      <point x="817" y="62"/>
      <point x="888.333" y="-10"/>
    </contour>
    <contour>
      <point x="987" y="63.3333" type="curve" smooth="yes"/>
      <point x="953" y="63.3333"/>
      <point x="927" y="89.6667"/>
      <point x="927" y="170" type="curve" smooth="yes"/>
      <point x="927" y="249.667"/>
      <point x="953" y="276.667"/>
      <point x="987" y="276.667" type="curve" smooth="yes"/>
      <point x="1019.67" y="276.667"/>
      <point x="1047" y="249.667"/>
      <point x="1047" y="170" type="curve" smooth="yes"/>
      <point x="1047" y="89.6667"/>
      <point x="1019.67" y="63.3333"/>
    </contour>
  </outline>
</glyph>
<glyph name="foursuperior" format="2">
  <advance width="387"/>
  <unicode hex="2074"/>
  <outline>
    <contour>
      <point x="305" y="360" type="line"/>
      <point x="305" y="423.333" type="line"/>
      <point x="351.667" y="423.333" type="line"/>
      <point x="351.667" y="496.667" type="line"/>
      <point x="305" y="496.667" type="line"/>
      <point x="305" y="700" type="line"/>
      <point x="198.333" y="700" type="line"/>
      <point x="28.3333" y="496.667" type="line"/>
      <point x="28.3333" y="423.333" type="line"/>
      <point x="195" y="423.333" type="line"/>
      <point x="195" y="360" type="line"/>
    </contour>
    <contour>
      <point x="179.333" y="569.333" type="line"/>
      <point x="184" y="574.333"/>
      <point x="189" y="583.667"/>
      <point x="191.667" y="591.333" type="curve" smooth="yes"/>
      <point x="193" y="595"/>
      <point x="195.333" y="599.667"/>
      <point x="196.333" y="604.333" type="curve"/>
      <point x="200.333" y="604.333" type="line"/>
      <point x="197.333" y="591.667" type="line" smooth="yes"/>
      <point x="195.333" y="584"/>
      <point x="195" y="576.333"/>
      <point x="195" y="570" type="curve" smooth="yes"/>
      <point x="195" y="496.667" type="line"/>
      <point x="118.333" y="496.667" type="line"/>
    </contour>
  </outline>
</glyph>
<glyph name="euro" format="2">
  <advance width="558"/>
  <unicode hex="20AC"/>
  <outline>
    <contour>
      <point x="355" y="-10" type="curve" smooth="yes"/>
      <point x="411.667" y="-10"/>
      <point x="457" y="2"/>
      <point x="488.667" y="17" type="curve"/>
      <point x="507" y="25"/>
      <point x="523" y="34"/>
      <point x="536.667" y="45" type="curve"/>
      <point x="495" y="118.333" type="line"/>
      <point x="485" y="118.333" type="line"/>
      <point x="475.333" y="109.333"/>
      <point x="464.333" y="102.333"/>
      <point x="452.333" y="95.3333" type="curve"/>
      <point x="431.333" y="84.3333"/>
      <point x="401.333" y="73.3333"/>
      <point x="365" y="73.3333" type="curve" smooth="yes"/>
      <point x="286.333" y="73.3333"/>
      <point x="230" y="116.667"/>
      <point x="213" y="253.333" type="curve"/>
      <point x="398.333" y="253.333" type="line"/>
      <point x="411.667" y="323.333" type="line"/>
      <point x="208.333" y="323.333" type="line"/>
      <point x="208.333" y="376.667" type="line"/>
      <point x="413" y="376.667" type="line"/>
      <point x="426.333" y="446.667" type="line"/>
      <point x="213" y="446.667" type="line"/>
      <point x="229" y="582.667"/>
      <point x="286.333" y="626.667"/>
      <point x="355" y="626.667" type="curve" smooth="yes"/>
      <point x="391.333" y="626.667"/>
      <point x="421.333" y="614.667"/>
      <point x="442.333" y="603.667" type="curve"/>
      <point x="454.333" y="596.667"/>
      <point x="465.333" y="589.667"/>
      <point x="475" y="581.667" type="curve"/>
      <point x="485" y="581.667" type="line"/>
      <point x="526.667" y="655" type="line"/>
      <point x="513" y="665"/>
      <point x="497" y="674"/>
      <point x="478.667" y="682" type="curve"/>
      <point x="447" y="697"/>
      <point x="401.667" y="710"/>
      <point x="345" y="710" type="curve" smooth="yes"/>
      <point x="208" y="710"/>
      <point x="109.333" y="634.333"/>
      <point x="86.3333" y="446.667" type="curve"/>
      <point x="28.3333" y="446.667" type="line"/>
      <point x="15" y="376.667" type="line"/>
      <point x="81.6667" y="376.667" type="line"/>
      <point x="81.6667" y="323.333" type="line"/>
      <point x="23.3333" y="323.333" type="line"/>
      <point x="10" y="253.333" type="line"/>
      <point x="86.3333" y="253.333" type="line"/>
      <point x="109.333" y="65.3333"/>
      <point x="209.333" y="-10"/>
    </contour>
  </outline>
</glyph>
<glyph name="numero" format="2">
  <advance width="985"/>
  <unicode hex="2116"/>
  <outline>
    <contour>
      <point x="213.333" y="0" type="line"/>
      <point x="213.333" y="408.333" type="line" smooth="yes"/>
      <point x="213.333" y="423.333"/>
      <point x="211.667" y="440.667"/>
      <point x="210.667" y="455.667" type="curve" smooth="yes"/>
      <point x="208.667" y="480" type="line"/>
      <point x="212.667" y="480" type="line"/>
      <point x="214.6" y="473.885"/>
      <point x="219.479" y="461.242"/>
      <point x="221.333" y="455.667" type="curve"/>
      <point x="227" y="440.667"/>
      <point x="233" y="423.333"/>
      <point x="240" y="408.333" type="curve" smooth="yes"/>
      <point x="426.667" y="0" type="line"/>
      <point x="563.333" y="0" type="line"/>
      <point x="563.333" y="700" type="line"/>
      <point x="436.667" y="700" type="line"/>
      <point x="436.667" y="291.667" type="line" smooth="yes"/>
      <point x="436.667" y="276.667"/>
      <point x="437.667" y="258"/>
      <point x="438.667" y="244.333" type="curve"/>
      <point x="441.333" y="220" type="line"/>
      <point x="437.333" y="220" type="line"/>
      <point x="435.479" y="225.576"/>
      <point x="430.6" y="238.218"/>
      <point x="428.667" y="244.333" type="curve"/>
      <point x="423" y="258"/>
      <point x="417" y="276.667"/>
      <point x="410" y="291.667" type="curve" smooth="yes"/>
      <point x="223.333" y="700" type="line"/>
      <point x="86.6667" y="700" type="line"/>
      <point x="86.6667" y="0" type="line"/>
    </contour>
    <contour>
      <point x="937" y="213.333" type="line"/>
      <point x="937" y="296.667" type="line"/>
      <point x="643.667" y="296.667" type="line"/>
      <point x="643.667" y="213.333" type="line"/>
    </contour>
    <contour>
      <point x="790.333" y="350" type="curve" smooth="yes"/>
      <point x="889" y="350"/>
      <point x="960.333" y="422"/>
      <point x="960.333" y="530" type="curve" smooth="yes"/>
      <point x="960.333" y="638"/>
      <point x="889" y="710"/>
      <point x="790.333" y="710" type="curve" smooth="yes"/>
      <point x="691.667" y="710"/>
      <point x="620.333" y="638"/>
      <point x="620.333" y="530" type="curve" smooth="yes"/>
      <point x="620.333" y="422"/>
      <point x="691.667" y="350"/>
    </contour>
    <contour>
      <point x="790.333" y="423.333" type="curve" smooth="yes"/>
      <point x="756.333" y="423.333"/>
      <point x="730.333" y="449.667"/>
      <point x="730.333" y="530" type="curve" smooth="yes"/>
      <point x="730.333" y="609.667"/>
      <point x="756.333" y="636.667"/>
      <point x="790.333" y="636.667" type="curve" smooth="yes"/>
      <point x="823" y="636.667"/>
      <point x="850.333" y="609.667"/>
      <point x="850.333" y="530" type="curve" smooth="yes"/>
      <point x="850.333" y="449.667"/>
      <point x="823" y="423.333"/>
    </contour>
  </outline>
</glyph>
<glyph name="Decyr.loclBGR" format="2">
  <advance width="677"/>
  <outline>
    <contour>
      <point x="401.667" y="700" type="line"/>
      <point x="280.667" y="700" type="line"/>
      <point x="105.333" y="83.3333" type="line"/>
      <point x="40" y="83.3333" type="line"/>
      <point x="40" y="-150" type="line"/>
      <point x="141.667" y="-150" type="line"/>
      <point x="160" y="0" type="line"/>
      <point x="521.667" y="0" type="line"/>
      <point x="540" y="-150" type="line"/>
      <point x="636.667" y="-150" type="line"/>
      <point x="636.667" y="83.3333" type="line"/>
      <point x="576" y="83.3333" type="line"/>
    </contour>
    <contour>
      <point x="323" y="481.667" type="line" smooth="yes"/>
      <point x="327.667" y="497.333"/>
      <point x="330" y="515.333"/>
      <point x="333" y="530.333" type="curve"/>
      <point x="336" y="555" type="line"/>
      <point x="340" y="555" type="line"/>
      <point x="344" y="529.667" type="line"/>
      <point x="347" y="514.667"/>
      <point x="349" y="497.333"/>
      <point x="353" y="481.667" type="curve" smooth="yes"/>
      <point x="461.333" y="83.3333" type="line"/>
      <point x="213.667" y="83.3333" type="line"/>
    </contour>
  </outline>
</glyph>
<glyph name="Elcyr.loclBGR" format="2">
  <advance width="564"/>
  <outline>
    <contour>
      <point x="342.333" y="700" type="line"/>
      <point x="221.333" y="700" type="line"/>
      <point x="23" y="0" type="line"/>
      <point x="132" y="0" type="line"/>
      <point x="263.667" y="481.667" type="line" smooth="yes"/>
      <point x="268.333" y="497.333"/>
      <point x="270.667" y="515.333"/>
      <point x="273.667" y="530.333" type="curve"/>
      <point x="276.667" y="555" type="line"/>
      <point x="280.667" y="555" type="line"/>
      <point x="284.667" y="529.667" type="line"/>
      <point x="287.667" y="514.667"/>
      <point x="289.667" y="497.333"/>
      <point x="293.667" y="481.667" type="curve" smooth="yes"/>
      <point x="425.333" y="0" type="line"/>
      <point x="540.667" y="0" type="line"/>
    </contour>
  </outline>
</glyph>
<glyph name="becyr.loclSRB" format="2">
  <advance width="533"/>
  <outline>
    <contour>
      <point x="266.667" y="-10" type="curve" smooth="yes"/>
      <point x="405" y="-10"/>
      <point x="490" y="74"/>
      <point x="490" y="230" type="curve" smooth="yes"/>
      <point x="490" y="244.667" type="line" smooth="yes"/>
      <point x="490" y="382.333"/>
      <point x="384.667" y="473.333"/>
      <point x="319.667" y="526.667" type="curve" smooth="yes"/>
      <point x="283" y="556.667"/>
      <point x="253.667" y="580"/>
      <point x="253.667" y="592.333" type="curve" smooth="yes"/>
      <point x="253.667" y="609"/>
      <point x="263" y="616.667"/>
      <point x="309.667" y="616.667" type="curve" smooth="yes"/>
      <point x="414" y="616.667" type="line"/>
      <point x="434" y="715" type="line"/>
      <point x="285.333" y="715" type="line" smooth="yes"/>
      <point x="170.333" y="715"/>
      <point x="113" y="672.667"/>
      <point x="113" y="597.667" type="curve" smooth="yes"/>
      <point x="113" y="551.333"/>
      <point x="159" y="513.667"/>
      <point x="218.333" y="472.667" type="curve"/>
      <point x="126" y="446.333"/>
      <point x="43.3333" y="382.667"/>
      <point x="43.3333" y="230" type="curve" smooth="yes"/>
      <point x="43.3333" y="74"/>
      <point x="128.333" y="-10"/>
    </contour>
    <contour>
      <point x="266.667" y="73.3333" type="curve" smooth="yes"/>
      <point x="212.667" y="73.3333"/>
      <point x="170" y="117.333"/>
      <point x="170" y="230" type="curve" smooth="yes"/>
      <point x="170" y="335"/>
      <point x="222" y="383"/>
      <point x="281.333" y="410.333" type="curve"/>
      <point x="324.667" y="377.667"/>
      <point x="363.333" y="338.333"/>
      <point x="363.333" y="230" type="curve" smooth="yes"/>
      <point x="363.333" y="117.333"/>
      <point x="320.667" y="73.3333"/>
    </contour>
  </outline>
</glyph>
